<svg xmlns="http://www.w3.org/2000/svg" xmlns:xlink="http://www.w3.org/1999/xlink" width="1080" zoomAndPan="magnify" viewBox="0 0 810 809.999993" height="1080" preserveAspectRatio="xMidYMid meet" version="1.0"><defs><clipPath id="e3614031a5"><path d="M 213.636719 1 L 596.136719 1 L 596.136719 809 L 213.636719 809 Z M 213.636719 1 " clip-rule="nonzero"/></clipPath></defs><g clip-path="url(#e3614031a5)"><path fill="#000000" d="M 508.066406 134.34375 L 596.359375 134.34375 L 596.359375 1.222656 L 483.613281 1.222656 L 483.613281 1.730469 C 335.382812 7.164062 304.820312 90.195312 302.273438 177.980469 L 301.933594 177.980469 L 301.933594 270.351562 L 213.636719 270.351562 L 213.636719 403.640625 L 301.933594 403.640625 L 301.933594 808.777344 L 460.351562 808.777344 L 460.351562 403.640625 L 573.945312 403.640625 L 596.359375 270.351562 L 460.351562 270.351562 L 460.351562 187.660156 C 460.351562 158.285156 480.050781 134.34375 508.066406 134.34375 Z M 508.066406 134.34375 " fill-opacity="1" fill-rule="nonzero"/></g></svg>