<svg xmlns="http://www.w3.org/2000/svg" xmlns:xlink="http://www.w3.org/1999/xlink" width="324" zoomAndPan="magnify" viewBox="0 0 242.87999 809.999993" height="1080" preserveAspectRatio="xMidYMid meet" version="1.0"><defs><g/><clipPath id="afbee8786f"><path d="M 0 0.199219 L 242.761719 0.199219 L 242.761719 809.800781 L 0 809.800781 Z M 0 0.199219 " clip-rule="nonzero"/></clipPath><clipPath id="2ff8d14fc3"><path d="M 83.695312 524.007812 L 161.433594 524.007812 L 161.433594 601.746094 L 83.695312 601.746094 Z M 83.695312 524.007812 " clip-rule="nonzero"/></clipPath><clipPath id="c2517060f9"><path d="M 122.5625 524.007812 C 101.097656 524.007812 83.695312 541.410156 83.695312 562.878906 C 83.695312 584.34375 101.097656 601.746094 122.5625 601.746094 C 144.03125 601.746094 161.433594 584.34375 161.433594 562.878906 C 161.433594 541.410156 144.03125 524.007812 122.5625 524.007812 Z M 122.5625 524.007812 " clip-rule="nonzero"/></clipPath><clipPath id="b55f3a3ec8"><path d="M 101.539062 366.695312 L 141.339844 366.695312 L 141.339844 406.496094 L 101.539062 406.496094 Z M 101.539062 366.695312 " clip-rule="nonzero"/></clipPath><clipPath id="e5e6b2e45c"><path d="M 121.441406 366.695312 C 110.449219 366.695312 101.539062 375.605469 101.539062 386.59375 C 101.539062 397.585938 110.449219 406.496094 121.441406 406.496094 C 132.429688 406.496094 141.339844 397.585938 141.339844 386.59375 C 141.339844 375.605469 132.429688 366.695312 121.441406 366.695312 Z M 121.441406 366.695312 " clip-rule="nonzero"/></clipPath><clipPath id="494a9a8aaa"><path d="M 101.539062 208.253906 L 141.339844 208.253906 L 141.339844 248.058594 L 101.539062 248.058594 Z M 101.539062 208.253906 " clip-rule="nonzero"/></clipPath><clipPath id="c1bb0d7d08"><path d="M 121.441406 208.253906 C 110.449219 208.253906 101.539062 217.164062 101.539062 228.15625 C 101.539062 239.148438 110.449219 248.058594 121.441406 248.058594 C 132.429688 248.058594 141.339844 239.148438 141.339844 228.15625 C 141.339844 217.164062 132.429688 208.253906 121.441406 208.253906 Z M 121.441406 208.253906 " clip-rule="nonzero"/></clipPath><clipPath id="6a3df6fa1c"><path d="M 101.539062 419.050781 L 141.339844 419.050781 L 141.339844 458.851562 L 101.539062 458.851562 Z M 101.539062 419.050781 " clip-rule="nonzero"/></clipPath><clipPath id="a8b2c3ef48"><path d="M 121.441406 419.050781 C 110.449219 419.050781 101.539062 427.960938 101.539062 438.949219 C 101.539062 449.941406 110.449219 458.851562 121.441406 458.851562 C 132.429688 458.851562 141.339844 449.941406 141.339844 438.949219 C 141.339844 427.960938 132.429688 419.050781 121.441406 419.050781 Z M 121.441406 419.050781 " clip-rule="nonzero"/></clipPath><clipPath id="6d31488527"><path d="M 101.539062 314.144531 L 141.339844 314.144531 L 141.339844 353.949219 L 101.539062 353.949219 Z M 101.539062 314.144531 " clip-rule="nonzero"/></clipPath><clipPath id="0108d01099"><path d="M 121.441406 314.144531 C 110.449219 314.144531 101.539062 323.058594 101.539062 334.046875 C 101.539062 345.039062 110.449219 353.949219 121.441406 353.949219 C 132.429688 353.949219 141.339844 345.039062 141.339844 334.046875 C 141.339844 323.058594 132.429688 314.144531 121.441406 314.144531 Z M 121.441406 314.144531 " clip-rule="nonzero"/></clipPath><clipPath id="a1633bd255"><path d="M 101.539062 261.597656 L 141.339844 261.597656 L 141.339844 301.402344 L 101.539062 301.402344 Z M 101.539062 261.597656 " clip-rule="nonzero"/></clipPath><clipPath id="6183fcbd97"><path d="M 121.441406 261.597656 C 110.449219 261.597656 101.539062 270.507812 101.539062 281.5 C 101.539062 292.492188 110.449219 301.402344 121.441406 301.402344 C 132.429688 301.402344 141.339844 292.492188 141.339844 281.5 C 141.339844 270.507812 132.429688 261.597656 121.441406 261.597656 Z M 121.441406 261.597656 " clip-rule="nonzero"/></clipPath><clipPath id="95d2fb6169"><path d="M 101.539062 471.460938 L 141.339844 471.460938 L 141.339844 511.265625 L 101.539062 511.265625 Z M 101.539062 471.460938 " clip-rule="nonzero"/></clipPath><clipPath id="9b0967bb35"><path d="M 121.441406 471.460938 C 110.449219 471.460938 101.539062 480.371094 101.539062 491.363281 C 101.539062 502.355469 110.449219 511.265625 121.441406 511.265625 C 132.429688 511.265625 141.339844 502.355469 141.339844 491.363281 C 141.339844 480.371094 132.429688 471.460938 121.441406 471.460938 Z M 121.441406 471.460938 " clip-rule="nonzero"/></clipPath></defs><g clip-path="url(#afbee8786f)"><path fill="#2e2e2e" d="M 0 0.199219 L 242.878906 0.199219 L 242.878906 809.484375 L 0 809.484375 Z M 0 0.199219 " fill-opacity="1" fill-rule="nonzero"/><path stroke-linecap="butt" transform="matrix(0.74963, 0, 0, 0.74963, 0, 0.200043)" fill="none" stroke-linejoin="miter" d="M 0 -0.00109929 L 323.998568 -0.00109929 L 323.998568 1080.001075 L 0 1080.001075 Z M 0 -0.00109929 " stroke="#2e2e2e" stroke-width="2" stroke-opacity="1" stroke-miterlimit="4"/></g><path fill="#ffffff" d="M 122.5625 237.300781 L 122.570312 239.550781 L 120.320312 239.558594 L 120.3125 237.308594 M 122.578125 241.796875 L 122.585938 244.046875 L 120.339844 244.054688 L 120.332031 241.808594 M 122.597656 246.296875 L 122.605469 248.546875 L 120.355469 248.554688 L 120.347656 246.304688 M 122.613281 250.792969 L 122.621094 253.042969 L 120.371094 253.050781 L 120.363281 250.800781 M 122.628906 255.292969 L 122.636719 257.539062 L 120.390625 257.550781 L 120.378906 255.300781 M 122.644531 259.789062 L 122.65625 262.039062 L 120.40625 262.046875 L 120.398438 259.796875 M 122.664062 264.289062 L 122.671875 266.535156 L 120.421875 266.542969 L 120.414062 264.296875 M 122.679688 268.785156 L 122.6875 271.035156 L 120.4375 271.042969 L 120.429688 268.792969 M 122.695312 273.28125 L 122.703125 275.53125 L 120.457031 275.539062 L 120.449219 273.292969 M 122.710938 277.78125 L 122.722656 280.03125 L 120.472656 280.039062 L 120.464844 277.789062 M 122.730469 282.277344 L 122.738281 284.527344 L 120.488281 284.535156 L 120.480469 282.285156 M 122.746094 286.777344 L 122.753906 289.023438 L 120.503906 289.035156 L 120.496094 286.785156 M 122.761719 291.273438 L 122.769531 293.523438 L 120.523438 293.53125 L 120.515625 291.28125 M 122.78125 295.773438 L 122.789062 298.019531 L 120.539062 298.027344 L 120.53125 295.78125 M 122.796875 300.269531 L 122.804688 302.519531 L 120.554688 302.527344 L 120.546875 300.277344 M 122.8125 304.765625 L 122.820312 307.015625 L 120.574219 307.023438 L 120.5625 304.773438 M 122.828125 309.265625 L 122.835938 311.511719 L 120.589844 311.523438 L 120.582031 309.273438 M 122.847656 313.761719 L 122.855469 316.011719 L 120.605469 316.019531 L 120.597656 313.769531 M 122.863281 318.261719 L 122.871094 320.507812 L 120.621094 320.515625 L 120.613281 318.269531 M 122.878906 322.757812 L 122.886719 325.007812 L 120.640625 325.015625 L 120.628906 322.765625 M 122.894531 327.253906 L 122.90625 329.503906 L 120.65625 329.511719 L 120.648438 327.265625 M 122.914062 331.753906 L 122.921875 334.003906 L 120.671875 334.011719 L 120.664062 331.761719 M 122.929688 336.25 L 122.9375 338.5 L 120.6875 338.507812 L 120.679688 336.257812 M 122.945312 340.75 L 122.953125 342.996094 L 120.707031 343.007812 L 120.699219 340.757812 M 122.960938 345.246094 L 122.972656 347.496094 L 120.722656 347.503906 L 120.714844 345.253906 M 122.980469 349.746094 L 122.988281 351.992188 L 120.738281 352 L 120.730469 349.753906 M 122.996094 354.242188 L 123.003906 356.492188 L 120.753906 356.5 L 120.746094 354.25 M 123.011719 358.738281 L 123.019531 360.988281 L 120.773438 360.996094 L 120.765625 358.75 M 123.03125 363.238281 L 123.039062 365.488281 L 120.789062 365.496094 L 120.78125 363.246094 M 123.046875 367.734375 L 123.054688 369.984375 L 120.804688 369.992188 L 120.796875 367.742188 M 123.0625 372.234375 L 123.070312 374.480469 L 120.824219 374.492188 L 120.8125 372.242188 M 123.078125 376.730469 L 123.089844 378.980469 L 120.839844 378.988281 L 120.832031 376.738281 M 123.097656 381.230469 L 123.105469 383.476562 L 120.855469 383.484375 L 120.847656 381.238281 M 123.113281 385.726562 L 123.121094 387.976562 L 120.871094 387.984375 L 120.863281 385.734375 M 123.128906 390.222656 L 123.136719 392.472656 L 120.890625 392.480469 L 120.878906 390.234375 M 123.144531 394.722656 L 123.15625 396.972656 L 120.90625 396.980469 L 120.898438 394.730469 M 123.164062 399.21875 L 123.171875 401.46875 L 120.921875 401.476562 L 120.914062 399.226562 M 123.179688 403.71875 L 123.1875 405.964844 L 120.9375 405.976562 L 120.929688 403.726562 M 123.195312 408.214844 L 123.203125 410.464844 L 120.957031 410.472656 L 120.949219 408.222656 M 123.214844 412.714844 L 123.222656 414.960938 L 120.972656 414.96875 L 120.964844 412.722656 M 123.230469 417.210938 L 123.238281 419.460938 L 120.988281 419.46875 L 120.980469 417.21875 M 123.246094 421.707031 L 123.253906 423.957031 L 121.003906 423.964844 L 120.996094 421.714844 M 123.261719 426.207031 L 123.269531 428.453125 L 121.023438 428.464844 L 121.015625 426.214844 M 123.28125 430.703125 L 123.289062 432.953125 L 121.039062 432.960938 L 121.03125 430.710938 M 123.296875 435.203125 L 123.304688 437.449219 L 121.054688 437.457031 L 121.046875 435.210938 M 123.3125 439.699219 L 123.320312 441.949219 L 121.074219 441.957031 L 121.0625 439.707031 M 123.328125 444.195312 L 123.339844 446.445312 L 121.089844 446.453125 L 121.082031 444.207031 M 123.347656 448.695312 L 123.355469 450.945312 L 121.105469 450.953125 L 121.097656 448.703125 M 123.363281 453.191406 L 123.371094 455.441406 L 121.121094 455.449219 L 121.113281 453.199219 M 123.378906 457.691406 L 123.386719 459.9375 L 121.140625 459.949219 L 121.128906 457.699219 M 123.394531 462.1875 L 123.40625 464.4375 L 121.15625 464.445312 L 121.148438 462.195312 M 123.414062 466.6875 L 123.421875 468.933594 L 121.171875 468.941406 L 121.164062 466.695312 M 123.429688 471.183594 L 123.4375 473.433594 L 121.1875 473.441406 L 121.179688 471.191406 M 123.445312 475.679688 L 123.453125 477.929688 L 121.207031 477.9375 L 121.199219 475.691406 M 123.464844 480.179688 L 123.472656 482.429688 L 121.222656 482.4375 L 121.214844 480.1875 M 123.480469 484.675781 L 123.488281 486.925781 L 121.238281 486.933594 L 121.230469 484.683594 M 123.496094 489.175781 L 123.503906 491.421875 L 121.253906 491.433594 L 121.246094 489.183594 M 123.511719 493.671875 L 123.519531 495.921875 L 121.273438 495.929688 L 121.265625 493.679688 M 123.53125 498.171875 L 123.539062 500.417969 L 121.289062 500.425781 L 121.28125 498.179688 M 123.546875 502.667969 L 123.554688 504.917969 L 121.304688 504.925781 L 121.296875 502.675781 M 123.5625 507.164062 L 123.570312 509.414062 L 121.324219 509.421875 L 121.3125 507.175781 M 123.578125 511.664062 L 123.589844 513.914062 L 121.339844 513.921875 L 121.332031 511.671875 M 123.597656 516.160156 L 123.605469 518.410156 L 121.355469 518.417969 L 121.347656 516.167969 M 123.613281 520.660156 L 123.621094 522.90625 L 121.371094 522.917969 L 121.363281 520.667969 M 123.628906 525.15625 L 123.636719 527.40625 L 121.390625 527.414062 L 121.378906 525.164062 M 123.644531 529.65625 L 123.65625 531.902344 L 121.40625 531.910156 L 121.398438 529.664062 M 123.664062 534.152344 L 123.671875 536.402344 L 121.421875 536.410156 L 121.414062 534.160156 M 123.679688 538.648438 L 123.6875 540.667969 L 121.4375 540.675781 L 121.429688 538.65625 " fill-opacity="1" fill-rule="nonzero"/><g clip-path="url(#2ff8d14fc3)"><g clip-path="url(#c2517060f9)"><path fill="#1a8fd2" d="M 83.695312 524.007812 L 161.433594 524.007812 L 161.433594 601.746094 L 83.695312 601.746094 Z M 83.695312 524.007812 " fill-opacity="1" fill-rule="nonzero"/></g></g><g fill="#fffefe" fill-opacity="1"><g transform="translate(115.718501, 572.734065)"><g><path d="M 6.40625 0 L 2.515625 0 L 9.15625 -15.78125 L 9.078125 -16.0625 L 0.53125 -16.0625 L 0.53125 -19.265625 L 13.015625 -19.265625 L 13.015625 -15.890625 Z M 6.40625 0 "/></g></g></g><g clip-path="url(#b55f3a3ec8)"><g clip-path="url(#e5e6b2e45c)"><path fill="#fffefe" d="M 101.539062 366.695312 L 141.339844 366.695312 L 141.339844 406.496094 L 101.539062 406.496094 Z M 101.539062 366.695312 " fill-opacity="1" fill-rule="nonzero"/></g></g><g fill="#2e2e2e" fill-opacity="1"><g transform="translate(116.144384, 392.930436)"><g><path d="M 8.234375 0 L 5.9375 0 L 5.9375 -2.640625 L 0.421875 -2.640625 L 0.421875 -4.5625 L 5.171875 -12.125 L 8.234375 -12.125 L 8.234375 -4.5625 L 10.09375 -4.5625 L 10.09375 -2.640625 L 8.234375 -2.640625 Z M 2.875 -4.75 L 2.9375 -4.5625 L 5.9375 -4.5625 L 5.9375 -9.265625 L 5.75 -9.296875 Z M 2.875 -4.75 "/></g></g></g><g clip-path="url(#494a9a8aaa)"><g clip-path="url(#c1bb0d7d08)"><path fill="#fffefe" d="M 101.539062 208.253906 L 141.339844 208.253906 L 141.339844 248.058594 L 101.539062 248.058594 Z M 101.539062 208.253906 " fill-opacity="1" fill-rule="nonzero"/></g></g><g fill="#2e2e2e" fill-opacity="1"><g transform="translate(116.952578, 234.49059)"><g><path d="M 0.640625 0 L 0.640625 -1.984375 L 3.5625 -1.984375 L 3.5625 -9.53125 L 3.375 -9.578125 C 2.957031 -9.378906 2.546875 -9.222656 2.140625 -9.109375 C 1.742188 -8.992188 1.289062 -8.898438 0.78125 -8.828125 L 0.78125 -10.875 C 2.125 -11.15625 3.207031 -11.570312 4.03125 -12.125 L 5.9375 -12.125 L 5.9375 -1.984375 L 8.546875 -1.984375 L 8.546875 0 Z M 0.640625 0 "/></g></g></g><g clip-path="url(#6a3df6fa1c)"><g clip-path="url(#a8b2c3ef48)"><path fill="#fffefe" d="M 101.539062 419.050781 L 141.339844 419.050781 L 141.339844 458.851562 L 101.539062 458.851562 Z M 101.539062 419.050781 " fill-opacity="1" fill-rule="nonzero"/></g></g><g fill="#2e2e2e" fill-opacity="1"><g transform="translate(116.320078, 445.286508)"><g><path d="M 5.046875 0.171875 C 3.835938 0.171875 2.878906 -0.0820312 2.171875 -0.59375 C 1.460938 -1.101562 1 -1.8125 0.78125 -2.71875 L 2.59375 -3.53125 L 2.78125 -3.484375 C 2.957031 -2.953125 3.222656 -2.550781 3.578125 -2.28125 C 3.929688 -2.007812 4.414062 -1.875 5.03125 -1.875 C 5.65625 -1.875 6.140625 -2.050781 6.484375 -2.40625 C 6.828125 -2.769531 7 -3.304688 7 -4.015625 C 7 -4.722656 6.828125 -5.257812 6.484375 -5.625 C 6.148438 -5.988281 5.6875 -6.171875 5.09375 -6.171875 C 4.644531 -6.171875 4.269531 -6.070312 3.96875 -5.875 C 3.664062 -5.6875 3.410156 -5.40625 3.203125 -5.03125 L 1.234375 -5.171875 L 1.46875 -12.125 L 8.6875 -12.125 L 8.6875 -10.109375 L 3.484375 -10.109375 L 3.375 -7.015625 L 3.546875 -6.984375 C 3.828125 -7.347656 4.164062 -7.625 4.5625 -7.8125 C 4.957031 -8.007812 5.429688 -8.109375 5.984375 -8.109375 C 6.671875 -8.109375 7.269531 -7.953125 7.78125 -7.640625 C 8.300781 -7.335938 8.703125 -6.882812 8.984375 -6.28125 C 9.265625 -5.675781 9.40625 -4.9375 9.40625 -4.0625 C 9.40625 -3.175781 9.234375 -2.414062 8.890625 -1.78125 C 8.554688 -1.144531 8.0625 -0.660156 7.40625 -0.328125 C 6.757812 0.00390625 5.972656 0.171875 5.046875 0.171875 Z M 5.046875 0.171875 "/></g></g></g><g clip-path="url(#6d31488527)"><g clip-path="url(#0108d01099)"><path fill="#fffefe" d="M 101.539062 314.144531 L 141.339844 314.144531 L 141.339844 353.949219 L 101.539062 353.949219 Z M 101.539062 314.144531 " fill-opacity="1" fill-rule="nonzero"/></g></g><g fill="#2e2e2e" fill-opacity="1"><g transform="translate(116.413782, 340.383394)"><g><path d="M 4.9375 0.171875 C 3.644531 0.171875 2.613281 -0.0976562 1.84375 -0.640625 C 1.082031 -1.191406 0.597656 -1.972656 0.390625 -2.984375 L 2.21875 -3.828125 L 2.40625 -3.796875 C 2.613281 -3.128906 2.90625 -2.640625 3.28125 -2.328125 C 3.65625 -2.023438 4.179688 -1.875 4.859375 -1.875 C 5.515625 -1.875 6.007812 -2.023438 6.34375 -2.328125 C 6.6875 -2.628906 6.859375 -3.070312 6.859375 -3.65625 C 6.859375 -4.226562 6.6875 -4.664062 6.34375 -4.96875 C 6.007812 -5.269531 5.515625 -5.421875 4.859375 -5.421875 L 3.03125 -5.421875 L 3.03125 -7.296875 L 4.625 -7.296875 C 5.164062 -7.296875 5.597656 -7.429688 5.921875 -7.703125 C 6.242188 -7.972656 6.40625 -8.359375 6.40625 -8.859375 C 6.40625 -9.359375 6.253906 -9.734375 5.953125 -9.984375 C 5.648438 -10.234375 5.234375 -10.359375 4.703125 -10.359375 C 4.160156 -10.359375 3.679688 -10.226562 3.265625 -9.96875 C 2.847656 -9.71875 2.507812 -9.378906 2.25 -8.953125 L 2.0625 -8.921875 L 0.796875 -10.390625 C 1.222656 -10.960938 1.769531 -11.421875 2.4375 -11.765625 C 3.113281 -12.117188 3.910156 -12.296875 4.828125 -12.296875 C 6.109375 -12.296875 7.082031 -12.03125 7.75 -11.5 C 8.414062 -10.96875 8.75 -10.222656 8.75 -9.265625 C 8.75 -8.679688 8.613281 -8.179688 8.34375 -7.765625 C 8.070312 -7.359375 7.679688 -7.003906 7.171875 -6.703125 L 7.171875 -6.53125 C 8.566406 -6.039062 9.265625 -5.046875 9.265625 -3.546875 C 9.265625 -2.796875 9.101562 -2.140625 8.78125 -1.578125 C 8.46875 -1.023438 7.988281 -0.59375 7.34375 -0.28125 C 6.695312 0.0195312 5.894531 0.171875 4.9375 0.171875 Z M 4.9375 0.171875 "/></g></g></g><g clip-path="url(#a1633bd255)"><g clip-path="url(#6183fcbd97)"><path fill="#fffefe" d="M 101.539062 261.597656 L 141.339844 261.597656 L 141.339844 301.402344 L 101.539062 301.402344 Z M 101.539062 261.597656 " fill-opacity="1" fill-rule="nonzero"/></g></g><g fill="#2e2e2e" fill-opacity="1"><g transform="translate(116.694893, 287.836353)"><g><path d="M 0.59375 -0.96875 C 0.59375 -1.632812 0.664062 -2.195312 0.8125 -2.65625 C 0.957031 -3.113281 1.195312 -3.53125 1.53125 -3.90625 C 1.863281 -4.289062 2.332031 -4.703125 2.9375 -5.140625 L 4.546875 -6.296875 C 4.992188 -6.617188 5.335938 -6.894531 5.578125 -7.125 C 5.828125 -7.351562 6.015625 -7.59375 6.140625 -7.84375 C 6.265625 -8.101562 6.328125 -8.394531 6.328125 -8.71875 C 6.328125 -9.21875 6.175781 -9.597656 5.875 -9.859375 C 5.582031 -10.128906 5.132812 -10.265625 4.53125 -10.265625 C 3.957031 -10.265625 3.445312 -10.128906 3 -9.859375 C 2.550781 -9.585938 2.179688 -9.210938 1.890625 -8.734375 L 1.734375 -8.6875 L 0.421875 -10.171875 C 0.847656 -10.804688 1.40625 -11.316406 2.09375 -11.703125 C 2.789062 -12.097656 3.632812 -12.296875 4.625 -12.296875 C 5.53125 -12.296875 6.289062 -12.144531 6.90625 -11.84375 C 7.519531 -11.550781 7.972656 -11.144531 8.265625 -10.625 C 8.554688 -10.113281 8.703125 -9.519531 8.703125 -8.84375 C 8.703125 -8.269531 8.582031 -7.742188 8.34375 -7.265625 C 8.101562 -6.796875 7.769531 -6.359375 7.34375 -5.953125 C 6.914062 -5.546875 6.375 -5.113281 5.71875 -4.65625 L 4.28125 -3.65625 C 3.84375 -3.34375 3.539062 -3.066406 3.375 -2.828125 C 3.207031 -2.585938 3.125 -2.3125 3.125 -2 L 8.59375 -2 L 8.59375 0 L 0.59375 0 Z M 0.59375 -0.96875 "/></g></g></g><g clip-path="url(#95d2fb6169)"><g clip-path="url(#9b0967bb35)"><path fill="#fffefe" d="M 101.539062 471.460938 L 141.339844 471.460938 L 141.339844 511.265625 L 101.539062 511.265625 Z M 101.539062 471.460938 " fill-opacity="1" fill-rule="nonzero"/></g></g><g fill="#2e2e2e" fill-opacity="1"><g transform="translate(115.921838, 497.698112)"><g><path d="M 5.796875 0.171875 C 4.878906 0.171875 4.0625 -0.0351562 3.34375 -0.453125 C 2.632812 -0.878906 2.066406 -1.546875 1.640625 -2.453125 C 1.222656 -3.367188 1.015625 -4.535156 1.015625 -5.953125 C 1.015625 -7.390625 1.234375 -8.582031 1.671875 -9.53125 C 2.117188 -10.476562 2.722656 -11.175781 3.484375 -11.625 C 4.253906 -12.070312 5.132812 -12.296875 6.125 -12.296875 C 6.945312 -12.296875 7.65625 -12.175781 8.25 -11.9375 C 8.84375 -11.695312 9.304688 -11.347656 9.640625 -10.890625 L 8.46875 -9.375 L 8.265625 -9.375 C 7.753906 -9.976562 7.039062 -10.28125 6.125 -10.28125 C 4.40625 -10.28125 3.523438 -9.019531 3.484375 -6.5 L 3.65625 -6.4375 C 3.9375 -6.957031 4.304688 -7.351562 4.765625 -7.625 C 5.234375 -7.894531 5.816406 -8.03125 6.515625 -8.03125 C 7.265625 -8.03125 7.910156 -7.867188 8.453125 -7.546875 C 9.003906 -7.234375 9.425781 -6.78125 9.71875 -6.1875 C 10.019531 -5.601562 10.171875 -4.90625 10.171875 -4.09375 C 10.171875 -3.207031 9.992188 -2.441406 9.640625 -1.796875 C 9.285156 -1.160156 8.78125 -0.671875 8.125 -0.328125 C 7.46875 0.00390625 6.691406 0.171875 5.796875 0.171875 Z M 5.75 -1.875 C 6.375 -1.875 6.863281 -2.054688 7.21875 -2.421875 C 7.570312 -2.796875 7.75 -3.3125 7.75 -3.96875 C 7.75 -4.632812 7.570312 -5.148438 7.21875 -5.515625 C 6.863281 -5.890625 6.375 -6.078125 5.75 -6.078125 C 5.34375 -6.078125 4.984375 -5.988281 4.671875 -5.8125 C 4.367188 -5.644531 4.132812 -5.398438 3.96875 -5.078125 C 3.800781 -4.765625 3.71875 -4.394531 3.71875 -3.96875 C 3.71875 -3.320312 3.894531 -2.8125 4.25 -2.4375 C 4.613281 -2.0625 5.113281 -1.875 5.75 -1.875 Z M 5.75 -1.875 "/></g></g></g></svg>