<svg xmlns="http://www.w3.org/2000/svg" xmlns:xlink="http://www.w3.org/1999/xlink" width="324" zoomAndPan="magnify" viewBox="0 0 242.87999 809.999993" height="1080" preserveAspectRatio="xMidYMid meet" version="1.0"><defs><g/><clipPath id="98531b1fb3"><path d="M 0 0.199219 L 242.761719 0.199219 L 242.761719 809.800781 L 0 809.800781 Z M 0 0.199219 " clip-rule="nonzero"/></clipPath><clipPath id="b61a5c9803"><path d="M 83.695312 418.515625 L 161.433594 418.515625 L 161.433594 496.253906 L 83.695312 496.253906 Z M 83.695312 418.515625 " clip-rule="nonzero"/></clipPath><clipPath id="03f4e254a8"><path d="M 122.5625 418.515625 C 101.097656 418.515625 83.695312 435.917969 83.695312 457.382812 C 83.695312 478.851562 101.097656 496.253906 122.5625 496.253906 C 144.03125 496.253906 161.433594 478.851562 161.433594 457.382812 C 161.433594 435.917969 144.03125 418.515625 122.5625 418.515625 Z M 122.5625 418.515625 " clip-rule="nonzero"/></clipPath><clipPath id="aa6ad79097"><path d="M 101.539062 313.746094 L 141.339844 313.746094 L 141.339844 353.550781 L 101.539062 353.550781 Z M 101.539062 313.746094 " clip-rule="nonzero"/></clipPath><clipPath id="12b1a278cc"><path d="M 121.441406 313.746094 C 110.449219 313.746094 101.539062 322.65625 101.539062 333.648438 C 101.539062 344.640625 110.449219 353.550781 121.441406 353.550781 C 132.429688 353.550781 141.339844 344.640625 141.339844 333.648438 C 141.339844 322.65625 132.429688 313.746094 121.441406 313.746094 Z M 121.441406 313.746094 " clip-rule="nonzero"/></clipPath><clipPath id="c32ee70459"><path d="M 101.539062 208.652344 L 141.339844 208.652344 L 141.339844 248.457031 L 101.539062 248.457031 Z M 101.539062 208.652344 " clip-rule="nonzero"/></clipPath><clipPath id="5cea7c0a5c"><path d="M 121.441406 208.652344 C 110.449219 208.652344 101.539062 217.5625 101.539062 228.554688 C 101.539062 239.546875 110.449219 248.457031 121.441406 248.457031 C 132.429688 248.457031 141.339844 239.546875 141.339844 228.554688 C 141.339844 217.5625 132.429688 208.652344 121.441406 208.652344 Z M 121.441406 208.652344 " clip-rule="nonzero"/></clipPath><clipPath id="ac084d1ec4"><path d="M 101.539062 366.101562 L 141.339844 366.101562 L 141.339844 405.90625 L 101.539062 405.90625 Z M 101.539062 366.101562 " clip-rule="nonzero"/></clipPath><clipPath id="e872860903"><path d="M 121.441406 366.101562 C 110.449219 366.101562 101.539062 375.011719 101.539062 386.003906 C 101.539062 396.996094 110.449219 405.90625 121.441406 405.90625 C 132.429688 405.90625 141.339844 396.996094 141.339844 386.003906 C 141.339844 375.011719 132.429688 366.101562 121.441406 366.101562 Z M 121.441406 366.101562 " clip-rule="nonzero"/></clipPath><clipPath id="dc4d774514"><path d="M 101.539062 261.199219 L 141.339844 261.199219 L 141.339844 301.003906 L 101.539062 301.003906 Z M 101.539062 261.199219 " clip-rule="nonzero"/></clipPath><clipPath id="9a5c435e00"><path d="M 121.441406 261.199219 C 110.449219 261.199219 101.539062 270.109375 101.539062 281.101562 C 101.539062 292.09375 110.449219 301.003906 121.441406 301.003906 C 132.429688 301.003906 141.339844 292.09375 141.339844 281.101562 C 141.339844 270.109375 132.429688 261.199219 121.441406 261.199219 Z M 121.441406 261.199219 " clip-rule="nonzero"/></clipPath><clipPath id="96275b5191"><path d="M 101.539062 561.542969 L 141.339844 561.542969 L 141.339844 601.347656 L 101.539062 601.347656 Z M 101.539062 561.542969 " clip-rule="nonzero"/></clipPath><clipPath id="0ac1d73cbd"><path d="M 121.441406 561.542969 C 110.449219 561.542969 101.539062 570.453125 101.539062 581.445312 C 101.539062 592.4375 110.449219 601.347656 121.441406 601.347656 C 132.429688 601.347656 141.339844 592.4375 141.339844 581.445312 C 141.339844 570.453125 132.429688 561.542969 121.441406 561.542969 Z M 121.441406 561.542969 " clip-rule="nonzero"/></clipPath><clipPath id="499c271ca5"><path d="M 101.539062 508.996094 L 141.339844 508.996094 L 141.339844 548.800781 L 101.539062 548.800781 Z M 101.539062 508.996094 " clip-rule="nonzero"/></clipPath><clipPath id="5f16c912ac"><path d="M 121.441406 508.996094 C 110.449219 508.996094 101.539062 517.90625 101.539062 528.898438 C 101.539062 539.890625 110.449219 548.800781 121.441406 548.800781 C 132.429688 548.800781 141.339844 539.890625 141.339844 528.898438 C 141.339844 517.90625 132.429688 508.996094 121.441406 508.996094 Z M 121.441406 508.996094 " clip-rule="nonzero"/></clipPath></defs><g clip-path="url(#98531b1fb3)"><path fill="#2e2e2e" d="M 0 0.199219 L 242.878906 0.199219 L 242.878906 809.484375 L 0 809.484375 Z M 0 0.199219 " fill-opacity="1" fill-rule="nonzero"/></g><path fill="#ffffff" d="M 122.5625 236.902344 L 122.570312 239.152344 L 120.320312 239.160156 L 120.3125 236.910156 M 122.574219 241.402344 L 122.582031 243.648438 L 120.332031 243.65625 L 120.328125 241.40625 M 122.589844 245.898438 L 122.597656 248.148438 L 120.347656 248.15625 L 120.339844 245.90625 M 122.605469 250.398438 L 122.609375 252.644531 L 120.363281 252.652344 L 120.355469 250.402344 M 122.617188 254.894531 L 122.625 257.144531 L 120.375 257.148438 L 120.367188 254.902344 M 122.632812 259.390625 L 122.640625 261.640625 L 120.390625 261.648438 L 120.382812 259.398438 M 122.644531 263.890625 L 122.652344 266.140625 L 120.402344 266.144531 L 120.398438 263.898438 M 122.660156 268.386719 L 122.667969 270.636719 L 120.417969 270.644531 L 120.410156 268.394531 M 122.675781 272.886719 L 122.679688 275.132812 L 120.433594 275.140625 L 120.425781 272.890625 M 122.6875 277.382812 L 122.695312 279.632812 L 120.445312 279.640625 L 120.4375 277.390625 M 122.703125 281.882812 L 122.710938 284.128906 L 120.460938 284.136719 L 120.453125 281.886719 M 122.714844 286.378906 L 122.722656 288.628906 L 120.472656 288.632812 L 120.46875 286.386719 M 122.730469 290.875 L 122.738281 293.125 L 120.488281 293.132812 L 120.480469 290.882812 M 122.746094 295.375 L 122.75 297.625 L 120.503906 297.628906 L 120.496094 295.382812 M 122.757812 299.871094 L 122.765625 302.121094 L 120.515625 302.128906 L 120.507812 299.878906 M 122.773438 304.371094 L 122.78125 306.617188 L 120.53125 306.625 L 120.523438 304.375 M 122.785156 308.867188 L 122.792969 311.117188 L 120.542969 311.125 L 120.539062 308.875 M 122.800781 313.363281 L 122.808594 315.613281 L 120.558594 315.621094 L 120.550781 313.371094 M 122.816406 317.863281 L 122.820312 320.113281 L 120.574219 320.117188 L 120.566406 317.871094 M 122.828125 322.359375 L 122.835938 324.609375 L 120.585938 324.617188 L 120.578125 322.367188 M 122.84375 326.859375 L 122.851562 329.105469 L 120.601562 329.113281 L 120.59375 326.867188 M 122.855469 331.355469 L 122.863281 333.605469 L 120.613281 333.613281 L 120.609375 331.363281 M 122.871094 335.855469 L 122.878906 338.101562 L 120.628906 338.109375 L 120.621094 335.859375 M 122.886719 340.351562 L 122.890625 342.601562 L 120.644531 342.609375 L 120.636719 340.359375 M 122.898438 344.847656 L 122.90625 347.097656 L 120.65625 347.105469 L 120.648438 344.855469 M 122.914062 349.347656 L 122.921875 351.597656 L 120.671875 351.601562 L 120.664062 349.355469 M 122.925781 353.84375 L 122.933594 356.09375 L 120.683594 356.101562 L 120.679688 353.851562 M 122.941406 358.34375 L 122.949219 360.589844 L 120.699219 360.597656 L 120.691406 358.351562 M 122.957031 362.839844 L 122.960938 365.089844 L 120.714844 365.097656 L 120.707031 362.847656 M 122.96875 367.339844 L 122.976562 369.585938 L 120.726562 369.59375 L 120.71875 367.34375 M 122.984375 371.835938 L 122.992188 374.085938 L 120.742188 374.09375 L 120.734375 371.84375 M 122.996094 376.332031 L 123.003906 378.582031 L 120.753906 378.589844 L 120.75 376.339844 M 123.011719 380.832031 L 123.019531 383.082031 L 120.769531 383.085938 L 120.761719 380.839844 M 123.027344 385.328125 L 123.03125 387.578125 L 120.785156 387.585938 L 120.777344 385.335938 M 123.039062 389.828125 L 123.046875 392.074219 L 120.796875 392.082031 L 120.789062 389.835938 M 123.054688 394.324219 L 123.0625 396.574219 L 120.8125 396.582031 L 120.804688 394.332031 M 123.066406 398.824219 L 123.074219 401.070312 L 120.824219 401.078125 L 120.820312 398.828125 M 123.082031 403.320312 L 123.089844 405.570312 L 120.839844 405.578125 L 120.832031 403.328125 M 123.097656 407.816406 L 123.101562 410.066406 L 120.855469 410.074219 L 120.847656 407.824219 M 123.109375 412.316406 L 123.117188 414.566406 L 120.867188 414.570312 L 120.859375 412.324219 M 123.125 416.8125 L 123.132812 419.0625 L 120.882812 419.070312 L 120.875 416.820312 M 123.136719 421.3125 L 123.144531 423.558594 L 120.894531 423.566406 L 120.890625 421.320312 M 123.152344 425.808594 L 123.160156 428.058594 L 120.910156 428.066406 L 120.902344 425.816406 M 123.167969 430.308594 L 123.171875 432.554688 L 120.925781 432.5625 L 120.917969 430.3125 M 123.179688 434.804688 L 123.1875 437.054688 L 120.9375 437.058594 L 120.929688 434.8125 M 123.195312 439.300781 L 123.203125 441.550781 L 120.953125 441.558594 L 120.945312 439.308594 M 123.207031 443.800781 L 123.214844 446.050781 L 120.964844 446.054688 L 120.960938 443.808594 M 123.222656 448.296875 L 123.230469 450.546875 L 120.980469 450.554688 L 120.972656 448.304688 M 123.238281 452.796875 L 123.242188 455.042969 L 120.996094 455.050781 L 120.988281 452.800781 M 123.25 457.292969 L 123.257812 459.542969 L 121.007812 459.550781 L 121 457.300781 M 123.265625 461.792969 L 123.273438 464.039062 L 121.023438 464.046875 L 121.015625 461.796875 M 123.277344 466.289062 L 123.285156 468.539062 L 121.039062 468.542969 L 121.03125 466.296875 M 123.292969 470.785156 L 123.300781 473.035156 L 121.050781 473.042969 L 121.042969 470.792969 M 123.308594 475.285156 L 123.3125 477.535156 L 121.066406 477.539062 L 121.058594 475.292969 M 123.320312 479.78125 L 123.328125 482.03125 L 121.078125 482.039062 L 121.074219 479.789062 M 123.335938 484.28125 L 123.34375 486.527344 L 121.09375 486.535156 L 121.085938 484.285156 M 123.347656 488.777344 L 123.355469 491.027344 L 121.109375 491.035156 L 121.101562 488.785156 M 123.363281 493.277344 L 123.371094 495.523438 L 121.121094 495.53125 L 121.113281 493.28125 M 123.378906 497.773438 L 123.382812 500.023438 L 121.136719 500.027344 L 121.128906 497.78125 M 123.390625 502.269531 L 123.398438 504.519531 L 121.148438 504.527344 L 121.144531 502.277344 M 123.40625 506.769531 L 123.414062 509.015625 L 121.164062 509.023438 L 121.15625 506.777344 M 123.417969 511.265625 L 123.425781 513.515625 L 121.179688 513.523438 L 121.171875 511.273438 M 123.433594 515.765625 L 123.441406 518.011719 L 121.191406 518.019531 L 121.183594 515.769531 M 123.449219 520.261719 L 123.453125 522.511719 L 121.207031 522.519531 L 121.199219 520.269531 M 123.460938 524.757812 L 123.46875 527.007812 L 121.21875 527.015625 L 121.214844 524.765625 M 123.476562 529.257812 L 123.484375 531.507812 L 121.234375 531.511719 L 121.226562 529.265625 M 123.488281 533.753906 L 123.496094 536.003906 L 121.25 536.011719 L 121.242188 533.761719 M 123.503906 538.253906 L 123.511719 540.5 L 121.261719 540.507812 L 121.253906 538.261719 M 123.519531 542.75 L 123.523438 545 L 121.277344 545.007812 L 121.269531 542.757812 M 123.53125 547.25 L 123.539062 549.496094 L 121.289062 549.503906 L 121.285156 547.253906 M 123.546875 551.746094 L 123.554688 553.996094 L 121.304688 554.003906 L 121.296875 551.753906 M 123.558594 556.242188 L 123.566406 558.492188 L 121.320312 558.5 L 121.3125 556.25 M 123.574219 560.742188 L 123.582031 562.992188 L 121.332031 562.996094 L 121.324219 560.75 M 123.589844 565.238281 L 123.59375 567.488281 L 121.347656 567.496094 L 121.339844 565.246094 M 123.601562 569.738281 L 123.609375 571.984375 L 121.359375 571.992188 L 121.355469 569.746094 M 123.617188 574.234375 L 123.625 576.484375 L 121.375 576.492188 L 121.367188 574.242188 M 123.628906 578.734375 L 123.636719 580.980469 L 121.390625 580.988281 L 121.382812 578.738281 M 123.644531 583.230469 L 123.652344 585.480469 L 121.402344 585.488281 L 121.394531 583.238281 M 123.660156 587.726562 L 123.664062 589.976562 L 121.417969 589.984375 L 121.410156 587.734375 M 123.671875 592.226562 L 123.679688 594.476562 L 121.429688 594.480469 L 121.425781 592.234375 " fill-opacity="1" fill-rule="nonzero"/><g clip-path="url(#b61a5c9803)"><g clip-path="url(#03f4e254a8)"><path fill="#1a8fd2" d="M 83.695312 418.515625 L 161.433594 418.515625 L 161.433594 496.253906 L 83.695312 496.253906 Z M 83.695312 418.515625 " fill-opacity="1" fill-rule="nonzero"/></g></g><g fill="#fffefe" fill-opacity="1"><g transform="translate(114.441788, 467.240579)"><g><path d="M 8.03125 0.28125 C 6.101562 0.28125 4.570312 -0.117188 3.4375 -0.921875 C 2.3125 -1.734375 1.578125 -2.867188 1.234375 -4.328125 L 4.125 -5.59375 L 4.421875 -5.546875 C 4.703125 -4.691406 5.117188 -4.050781 5.671875 -3.625 C 6.234375 -3.195312 7.003906 -2.984375 7.984375 -2.984375 C 8.984375 -2.984375 9.753906 -3.265625 10.296875 -3.828125 C 10.847656 -4.398438 11.125 -5.253906 11.125 -6.390625 C 11.125 -7.515625 10.851562 -8.363281 10.3125 -8.9375 C 9.769531 -9.519531 9.035156 -9.8125 8.109375 -9.8125 C 7.390625 -9.8125 6.789062 -9.65625 6.3125 -9.34375 C 5.832031 -9.039062 5.425781 -8.585938 5.09375 -7.984375 L 1.953125 -8.203125 L 2.34375 -19.265625 L 13.8125 -19.265625 L 13.8125 -16.0625 L 5.546875 -16.0625 L 5.359375 -11.140625 L 5.640625 -11.09375 C 6.085938 -11.6875 6.625 -12.132812 7.25 -12.4375 C 7.875 -12.738281 8.625 -12.890625 9.5 -12.890625 C 10.59375 -12.890625 11.550781 -12.644531 12.375 -12.15625 C 13.195312 -11.664062 13.832031 -10.9375 14.28125 -9.96875 C 14.726562 -9.007812 14.953125 -7.835938 14.953125 -6.453125 C 14.953125 -5.035156 14.679688 -3.820312 14.140625 -2.8125 C 13.597656 -1.8125 12.804688 -1.046875 11.765625 -0.515625 C 10.734375 0.015625 9.488281 0.28125 8.03125 0.28125 Z M 8.03125 0.28125 "/></g></g></g><g clip-path="url(#aa6ad79097)"><g clip-path="url(#12b1a278cc)"><path fill="#fffefe" d="M 101.539062 313.746094 L 141.339844 313.746094 L 141.339844 353.550781 L 101.539062 353.550781 Z M 101.539062 313.746094 " fill-opacity="1" fill-rule="nonzero"/></g></g><g fill="#2e2e2e" fill-opacity="1"><g transform="translate(116.413782, 339.984013)"><g><path d="M 4.9375 0.171875 C 3.644531 0.171875 2.613281 -0.0976562 1.84375 -0.640625 C 1.082031 -1.191406 0.597656 -1.972656 0.390625 -2.984375 L 2.21875 -3.828125 L 2.40625 -3.796875 C 2.613281 -3.128906 2.90625 -2.640625 3.28125 -2.328125 C 3.65625 -2.023438 4.179688 -1.875 4.859375 -1.875 C 5.515625 -1.875 6.007812 -2.023438 6.34375 -2.328125 C 6.6875 -2.628906 6.859375 -3.070312 6.859375 -3.65625 C 6.859375 -4.226562 6.6875 -4.664062 6.34375 -4.96875 C 6.007812 -5.269531 5.515625 -5.421875 4.859375 -5.421875 L 3.03125 -5.421875 L 3.03125 -7.296875 L 4.625 -7.296875 C 5.164062 -7.296875 5.597656 -7.429688 5.921875 -7.703125 C 6.242188 -7.972656 6.40625 -8.359375 6.40625 -8.859375 C 6.40625 -9.359375 6.253906 -9.734375 5.953125 -9.984375 C 5.648438 -10.234375 5.234375 -10.359375 4.703125 -10.359375 C 4.160156 -10.359375 3.679688 -10.226562 3.265625 -9.96875 C 2.847656 -9.71875 2.507812 -9.378906 2.25 -8.953125 L 2.0625 -8.921875 L 0.796875 -10.390625 C 1.222656 -10.960938 1.769531 -11.421875 2.4375 -11.765625 C 3.113281 -12.117188 3.910156 -12.296875 4.828125 -12.296875 C 6.109375 -12.296875 7.082031 -12.03125 7.75 -11.5 C 8.414062 -10.96875 8.75 -10.222656 8.75 -9.265625 C 8.75 -8.679688 8.613281 -8.179688 8.34375 -7.765625 C 8.070312 -7.359375 7.679688 -7.003906 7.171875 -6.703125 L 7.171875 -6.53125 C 8.566406 -6.039062 9.265625 -5.046875 9.265625 -3.546875 C 9.265625 -2.796875 9.101562 -2.140625 8.78125 -1.578125 C 8.46875 -1.023438 7.988281 -0.59375 7.34375 -0.28125 C 6.695312 0.0195312 5.894531 0.171875 4.9375 0.171875 Z M 4.9375 0.171875 "/></g></g></g><g clip-path="url(#c32ee70459)"><g clip-path="url(#5cea7c0a5c)"><path fill="#fffefe" d="M 101.539062 208.652344 L 141.339844 208.652344 L 141.339844 248.457031 L 101.539062 248.457031 Z M 101.539062 208.652344 " fill-opacity="1" fill-rule="nonzero"/></g></g><g fill="#2e2e2e" fill-opacity="1"><g transform="translate(116.952578, 234.889959)"><g><path d="M 0.640625 0 L 0.640625 -1.984375 L 3.5625 -1.984375 L 3.5625 -9.53125 L 3.375 -9.578125 C 2.957031 -9.378906 2.546875 -9.222656 2.140625 -9.109375 C 1.742188 -8.992188 1.289062 -8.898438 0.78125 -8.828125 L 0.78125 -10.875 C 2.125 -11.15625 3.207031 -11.570312 4.03125 -12.125 L 5.9375 -12.125 L 5.9375 -1.984375 L 8.546875 -1.984375 L 8.546875 0 Z M 0.640625 0 "/></g></g></g><g clip-path="url(#ac084d1ec4)"><g clip-path="url(#e872860903)"><path fill="#fffefe" d="M 101.539062 366.101562 L 141.339844 366.101562 L 141.339844 405.90625 L 101.539062 405.90625 Z M 101.539062 366.101562 " fill-opacity="1" fill-rule="nonzero"/></g></g><g fill="#2e2e2e" fill-opacity="1"><g transform="translate(116.144384, 392.340073)"><g><path d="M 8.234375 0 L 5.9375 0 L 5.9375 -2.640625 L 0.421875 -2.640625 L 0.421875 -4.5625 L 5.171875 -12.125 L 8.234375 -12.125 L 8.234375 -4.5625 L 10.09375 -4.5625 L 10.09375 -2.640625 L 8.234375 -2.640625 Z M 2.875 -4.75 L 2.9375 -4.5625 L 5.9375 -4.5625 L 5.9375 -9.265625 L 5.75 -9.296875 Z M 2.875 -4.75 "/></g></g></g><g clip-path="url(#dc4d774514)"><g clip-path="url(#9a5c435e00)"><path fill="#fffefe" d="M 101.539062 261.199219 L 141.339844 261.199219 L 141.339844 301.003906 L 101.539062 301.003906 Z M 101.539062 261.199219 " fill-opacity="1" fill-rule="nonzero"/></g></g><g fill="#2e2e2e" fill-opacity="1"><g transform="translate(116.694893, 287.437)"><g><path d="M 0.59375 -0.96875 C 0.59375 -1.632812 0.664062 -2.195312 0.8125 -2.65625 C 0.957031 -3.113281 1.195312 -3.53125 1.53125 -3.90625 C 1.863281 -4.289062 2.332031 -4.703125 2.9375 -5.140625 L 4.546875 -6.296875 C 4.992188 -6.617188 5.335938 -6.894531 5.578125 -7.125 C 5.828125 -7.351562 6.015625 -7.59375 6.140625 -7.84375 C 6.265625 -8.101562 6.328125 -8.394531 6.328125 -8.71875 C 6.328125 -9.21875 6.175781 -9.597656 5.875 -9.859375 C 5.582031 -10.128906 5.132812 -10.265625 4.53125 -10.265625 C 3.957031 -10.265625 3.445312 -10.128906 3 -9.859375 C 2.550781 -9.585938 2.179688 -9.210938 1.890625 -8.734375 L 1.734375 -8.6875 L 0.421875 -10.171875 C 0.847656 -10.804688 1.40625 -11.316406 2.09375 -11.703125 C 2.789062 -12.097656 3.632812 -12.296875 4.625 -12.296875 C 5.53125 -12.296875 6.289062 -12.144531 6.90625 -11.84375 C 7.519531 -11.550781 7.972656 -11.144531 8.265625 -10.625 C 8.554688 -10.113281 8.703125 -9.519531 8.703125 -8.84375 C 8.703125 -8.269531 8.582031 -7.742188 8.34375 -7.265625 C 8.101562 -6.796875 7.769531 -6.359375 7.34375 -5.953125 C 6.914062 -5.546875 6.375 -5.113281 5.71875 -4.65625 L 4.28125 -3.65625 C 3.84375 -3.34375 3.539062 -3.066406 3.375 -2.828125 C 3.207031 -2.585938 3.125 -2.3125 3.125 -2 L 8.59375 -2 L 8.59375 0 L 0.59375 0 Z M 0.59375 -0.96875 "/></g></g></g><g clip-path="url(#96275b5191)"><g clip-path="url(#0ac1d73cbd)"><path fill="#fffefe" d="M 101.539062 561.542969 L 141.339844 561.542969 L 141.339844 601.347656 L 101.539062 601.347656 Z M 101.539062 561.542969 " fill-opacity="1" fill-rule="nonzero"/></g></g><g fill="#2e2e2e" fill-opacity="1"><g transform="translate(117.128273, 587.780774)"><g><path d="M 4.03125 0 L 1.578125 0 L 5.765625 -9.9375 L 5.71875 -10.109375 L 0.328125 -10.109375 L 0.328125 -12.125 L 8.1875 -12.125 L 8.1875 -10 Z M 4.03125 0 "/></g></g></g><g clip-path="url(#499c271ca5)"><g clip-path="url(#5f16c912ac)"><path fill="#fffefe" d="M 101.539062 508.996094 L 141.339844 508.996094 L 141.339844 548.800781 L 101.539062 548.800781 Z M 101.539062 508.996094 " fill-opacity="1" fill-rule="nonzero"/></g></g><g fill="#2e2e2e" fill-opacity="1"><g transform="translate(115.921838, 535.233732)"><g><path d="M 5.796875 0.171875 C 4.878906 0.171875 4.0625 -0.0351562 3.34375 -0.453125 C 2.632812 -0.878906 2.066406 -1.546875 1.640625 -2.453125 C 1.222656 -3.367188 1.015625 -4.535156 1.015625 -5.953125 C 1.015625 -7.390625 1.234375 -8.582031 1.671875 -9.53125 C 2.117188 -10.476562 2.722656 -11.175781 3.484375 -11.625 C 4.253906 -12.070312 5.132812 -12.296875 6.125 -12.296875 C 6.945312 -12.296875 7.65625 -12.175781 8.25 -11.9375 C 8.84375 -11.695312 9.304688 -11.347656 9.640625 -10.890625 L 8.46875 -9.375 L 8.265625 -9.375 C 7.753906 -9.976562 7.039062 -10.28125 6.125 -10.28125 C 4.40625 -10.28125 3.523438 -9.019531 3.484375 -6.5 L 3.65625 -6.4375 C 3.9375 -6.957031 4.304688 -7.351562 4.765625 -7.625 C 5.234375 -7.894531 5.816406 -8.03125 6.515625 -8.03125 C 7.265625 -8.03125 7.910156 -7.867188 8.453125 -7.546875 C 9.003906 -7.234375 9.425781 -6.78125 9.71875 -6.1875 C 10.019531 -5.601562 10.171875 -4.90625 10.171875 -4.09375 C 10.171875 -3.207031 9.992188 -2.441406 9.640625 -1.796875 C 9.285156 -1.160156 8.78125 -0.671875 8.125 -0.328125 C 7.46875 0.00390625 6.691406 0.171875 5.796875 0.171875 Z M 5.75 -1.875 C 6.375 -1.875 6.863281 -2.054688 7.21875 -2.421875 C 7.570312 -2.796875 7.75 -3.3125 7.75 -3.96875 C 7.75 -4.632812 7.570312 -5.148438 7.21875 -5.515625 C 6.863281 -5.890625 6.375 -6.078125 5.75 -6.078125 C 5.34375 -6.078125 4.984375 -5.988281 4.671875 -5.8125 C 4.367188 -5.644531 4.132812 -5.398438 3.96875 -5.078125 C 3.800781 -4.765625 3.71875 -4.394531 3.71875 -3.96875 C 3.71875 -3.320312 3.894531 -2.8125 4.25 -2.4375 C 4.613281 -2.0625 5.113281 -1.875 5.75 -1.875 Z M 5.75 -1.875 "/></g></g></g></svg>