<svg xmlns="http://www.w3.org/2000/svg" xmlns:xlink="http://www.w3.org/1999/xlink" width="324" zoomAndPan="magnify" viewBox="0 0 242.87999 809.999993" height="1080" preserveAspectRatio="xMidYMid meet" version="1.0"><defs><g/><clipPath id="e3f32f7ec3"><path d="M 0 0.199219 L 242.761719 0.199219 L 242.761719 809.800781 L 0 809.800781 Z M 0 0.199219 " clip-rule="nonzero"/></clipPath><clipPath id="7ff85a663d"><path d="M 82.570312 470.992188 L 160.308594 470.992188 L 160.308594 548.730469 L 82.570312 548.730469 Z M 82.570312 470.992188 " clip-rule="nonzero"/></clipPath><clipPath id="c327257cc5"><path d="M 121.441406 470.992188 C 99.972656 470.992188 82.570312 488.394531 82.570312 509.863281 C 82.570312 531.328125 99.972656 548.730469 121.441406 548.730469 C 142.90625 548.730469 160.308594 531.328125 160.308594 509.863281 C 160.308594 488.394531 142.90625 470.992188 121.441406 470.992188 Z M 121.441406 470.992188 " clip-rule="nonzero"/></clipPath><clipPath id="c6fae9fefa"><path d="M 101.539062 313.679688 L 141.339844 313.679688 L 141.339844 353.484375 L 101.539062 353.484375 Z M 101.539062 313.679688 " clip-rule="nonzero"/></clipPath><clipPath id="6bc8f26378"><path d="M 121.441406 313.679688 C 110.449219 313.679688 101.539062 322.589844 101.539062 333.582031 C 101.539062 344.574219 110.449219 353.484375 121.441406 353.484375 C 132.429688 353.484375 141.339844 344.574219 141.339844 333.582031 C 141.339844 322.589844 132.429688 313.679688 121.441406 313.679688 Z M 121.441406 313.679688 " clip-rule="nonzero"/></clipPath><clipPath id="a1f4847893"><path d="M 101.539062 208.71875 L 141.339844 208.71875 L 141.339844 248.523438 L 101.539062 248.523438 Z M 101.539062 208.71875 " clip-rule="nonzero"/></clipPath><clipPath id="44c3101b71"><path d="M 121.441406 208.71875 C 110.449219 208.71875 101.539062 217.632812 101.539062 228.621094 C 101.539062 239.613281 110.449219 248.523438 121.441406 248.523438 C 132.429688 248.523438 141.339844 239.613281 141.339844 228.621094 C 141.339844 217.632812 132.429688 208.71875 121.441406 208.71875 Z M 121.441406 208.71875 " clip-rule="nonzero"/></clipPath><clipPath id="c7fa14e1fd"><path d="M 101.539062 366.035156 L 141.339844 366.035156 L 141.339844 405.839844 L 101.539062 405.839844 Z M 101.539062 366.035156 " clip-rule="nonzero"/></clipPath><clipPath id="c4a6772f7c"><path d="M 121.441406 366.035156 C 110.449219 366.035156 101.539062 374.945312 101.539062 385.9375 C 101.539062 396.929688 110.449219 405.839844 121.441406 405.839844 C 132.429688 405.839844 141.339844 396.929688 141.339844 385.9375 C 141.339844 374.945312 132.429688 366.035156 121.441406 366.035156 Z M 121.441406 366.035156 " clip-rule="nonzero"/></clipPath><clipPath id="c16cd40604"><path d="M 101.539062 261.132812 L 141.339844 261.132812 L 141.339844 300.9375 L 101.539062 300.9375 Z M 101.539062 261.132812 " clip-rule="nonzero"/></clipPath><clipPath id="651e48b8f2"><path d="M 121.441406 261.132812 C 110.449219 261.132812 101.539062 270.042969 101.539062 281.035156 C 101.539062 292.023438 110.449219 300.9375 121.441406 300.9375 C 132.429688 300.9375 141.339844 292.023438 141.339844 281.035156 C 141.339844 270.042969 132.429688 261.132812 121.441406 261.132812 Z M 121.441406 261.132812 " clip-rule="nonzero"/></clipPath><clipPath id="819f0bdc4e"><path d="M 101.539062 561.476562 L 141.339844 561.476562 L 141.339844 601.28125 L 101.539062 601.28125 Z M 101.539062 561.476562 " clip-rule="nonzero"/></clipPath><clipPath id="c3a700ede9"><path d="M 121.441406 561.476562 C 110.449219 561.476562 101.539062 570.386719 101.539062 581.378906 C 101.539062 592.367188 110.449219 601.28125 121.441406 601.28125 C 132.429688 601.28125 141.339844 592.367188 141.339844 581.378906 C 141.339844 570.386719 132.429688 561.476562 121.441406 561.476562 Z M 121.441406 561.476562 " clip-rule="nonzero"/></clipPath><clipPath id="dddb9ebb5d"><path d="M 101.539062 418.445312 L 141.339844 418.445312 L 141.339844 458.25 L 101.539062 458.25 Z M 101.539062 418.445312 " clip-rule="nonzero"/></clipPath><clipPath id="94ea57183a"><path d="M 121.441406 418.445312 C 110.449219 418.445312 101.539062 427.355469 101.539062 438.347656 C 101.539062 449.339844 110.449219 458.25 121.441406 458.25 C 132.429688 458.25 141.339844 449.339844 141.339844 438.347656 C 141.339844 427.355469 132.429688 418.445312 121.441406 418.445312 Z M 121.441406 418.445312 " clip-rule="nonzero"/></clipPath></defs><g clip-path="url(#e3f32f7ec3)"><path fill="#2e2e2e" d="M 0 0.199219 L 242.878906 0.199219 L 242.878906 809.484375 L 0 809.484375 Z M 0 0.199219 " fill-opacity="1" fill-rule="nonzero"/></g><path fill="#ffffff" d="M 122.558594 240.625 L 122.558594 242.875 L 120.308594 242.875 L 120.308594 240.625 M 122.558594 245.125 L 122.558594 247.371094 L 120.308594 247.371094 L 120.308594 245.125 M 122.558594 249.621094 L 122.558594 251.871094 L 120.308594 251.871094 L 120.308594 249.621094 M 122.558594 254.121094 L 122.558594 256.367188 L 120.308594 256.367188 L 120.308594 254.121094 M 122.558594 258.617188 L 122.558594 260.867188 L 120.308594 260.867188 L 120.308594 258.617188 M 122.558594 263.113281 L 122.558594 265.363281 L 120.308594 265.363281 L 120.308594 263.113281 M 122.558594 267.613281 L 122.558594 269.863281 L 120.308594 269.863281 L 120.308594 267.613281 M 122.558594 272.109375 L 122.558594 274.359375 L 120.308594 274.359375 L 120.308594 272.109375 M 122.558594 276.609375 L 122.558594 278.855469 L 120.308594 278.855469 L 120.308594 276.609375 M 122.558594 281.105469 L 122.558594 283.355469 L 120.308594 283.355469 L 120.308594 281.105469 M 122.558594 285.605469 L 122.558594 287.851562 L 120.308594 287.851562 L 120.308594 285.605469 M 122.558594 290.101562 L 122.558594 292.351562 L 120.308594 292.351562 L 120.308594 290.101562 M 122.558594 294.597656 L 122.558594 296.847656 L 120.308594 296.847656 L 120.308594 294.597656 M 122.558594 299.097656 L 122.558594 301.347656 L 120.308594 301.347656 L 120.308594 299.097656 M 122.558594 303.59375 L 122.558594 305.84375 L 120.308594 305.84375 L 120.308594 303.59375 M 122.558594 308.09375 L 122.558594 310.34375 L 120.308594 310.34375 L 120.308594 308.09375 M 122.558594 312.589844 L 122.558594 314.839844 L 120.308594 314.839844 L 120.308594 312.589844 M 122.558594 317.089844 L 122.558594 319.335938 L 120.308594 319.335938 L 120.308594 317.089844 M 122.558594 321.585938 L 122.558594 323.835938 L 120.308594 323.835938 L 120.308594 321.585938 M 122.558594 326.085938 L 122.558594 328.332031 L 120.308594 328.332031 L 120.308594 326.085938 M 122.558594 330.582031 L 122.558594 332.832031 L 120.308594 332.832031 L 120.308594 330.582031 M 122.558594 335.078125 L 122.558594 337.328125 L 120.308594 337.328125 L 120.308594 335.078125 M 122.558594 339.578125 L 122.558594 341.828125 L 120.308594 341.828125 L 120.308594 339.578125 M 122.558594 344.074219 L 122.558594 346.324219 L 120.308594 346.324219 L 120.308594 344.074219 M 122.558594 348.574219 L 122.558594 350.820312 L 120.308594 350.820312 L 120.308594 348.574219 M 122.558594 353.070312 L 122.558594 355.320312 L 120.308594 355.320312 L 120.308594 353.070312 M 122.558594 357.570312 L 122.558594 359.816406 L 120.308594 359.816406 L 120.308594 357.570312 M 122.558594 362.066406 L 122.558594 364.316406 L 120.308594 364.316406 L 120.308594 362.066406 M 122.558594 366.5625 L 122.558594 368.8125 L 120.308594 368.8125 L 120.308594 366.5625 M 122.558594 371.0625 L 122.558594 373.3125 L 120.308594 373.3125 L 120.308594 371.0625 M 122.558594 375.558594 L 122.558594 377.808594 L 120.308594 377.808594 L 120.308594 375.558594 M 122.558594 380.058594 L 122.558594 382.304688 L 120.308594 382.304688 L 120.308594 380.058594 M 122.558594 384.554688 L 122.558594 386.804688 L 120.308594 386.804688 L 120.308594 384.554688 M 122.558594 389.054688 L 122.558594 391.300781 L 120.308594 391.300781 L 120.308594 389.054688 M 122.558594 393.550781 L 122.558594 395.800781 L 120.308594 395.800781 L 120.308594 393.550781 M 122.558594 398.046875 L 122.558594 400.296875 L 120.308594 400.296875 L 120.308594 398.046875 M 122.558594 402.546875 L 122.558594 404.796875 L 120.308594 404.796875 L 120.308594 402.546875 M 122.558594 407.042969 L 122.558594 409.292969 L 120.308594 409.292969 L 120.308594 407.042969 M 122.558594 411.542969 L 122.558594 413.789062 L 120.308594 413.789062 L 120.308594 411.542969 M 122.558594 416.039062 L 122.558594 418.289062 L 120.308594 418.289062 L 120.308594 416.039062 M 122.558594 420.539062 L 122.558594 422.785156 L 120.308594 422.785156 L 120.308594 420.539062 M 122.558594 425.035156 L 122.558594 427.285156 L 120.308594 427.285156 L 120.308594 425.035156 M 122.558594 429.53125 L 122.558594 431.78125 L 120.308594 431.78125 L 120.308594 429.53125 M 122.558594 434.03125 L 122.558594 436.28125 L 120.308594 436.28125 L 120.308594 434.03125 M 122.558594 438.527344 L 122.558594 440.777344 L 120.308594 440.777344 L 120.308594 438.527344 M 122.558594 443.027344 L 122.558594 445.273438 L 120.308594 445.273438 L 120.308594 443.027344 M 122.558594 447.523438 L 122.558594 449.773438 L 120.308594 449.773438 L 120.308594 447.523438 M 122.558594 452.023438 L 122.558594 454.269531 L 120.308594 454.269531 L 120.308594 452.023438 M 122.558594 456.519531 L 122.558594 458.769531 L 120.308594 458.769531 L 120.308594 456.519531 M 122.558594 461.015625 L 122.558594 463.265625 L 120.308594 463.265625 L 120.308594 461.015625 M 122.558594 465.515625 L 122.558594 467.765625 L 120.308594 467.765625 L 120.308594 465.515625 M 122.558594 470.011719 L 122.558594 472.261719 L 120.308594 472.261719 L 120.308594 470.011719 M 122.558594 474.511719 L 122.558594 476.757812 L 120.308594 476.757812 L 120.308594 474.511719 M 122.558594 479.007812 L 122.558594 481.257812 L 120.308594 481.257812 L 120.308594 479.007812 M 122.558594 483.507812 L 122.558594 485.753906 L 120.308594 485.753906 L 120.308594 483.507812 M 122.558594 488.003906 L 122.558594 490.253906 L 120.308594 490.253906 L 120.308594 488.003906 M 122.558594 492.5 L 122.558594 494.75 L 120.308594 494.75 L 120.308594 492.5 M 122.558594 497 L 122.558594 499.25 L 120.308594 499.25 L 120.308594 497 M 122.558594 501.496094 L 122.558594 503.746094 L 120.308594 503.746094 L 120.308594 501.496094 M 122.558594 505.996094 L 122.558594 508.242188 L 120.308594 508.242188 L 120.308594 505.996094 M 122.558594 510.492188 L 122.558594 512.742188 L 120.308594 512.742188 L 120.308594 510.492188 M 122.558594 514.992188 L 122.558594 517.238281 L 120.308594 517.238281 L 120.308594 514.992188 M 122.558594 519.488281 L 122.558594 521.738281 L 120.308594 521.738281 L 120.308594 519.488281 M 122.558594 523.984375 L 122.558594 526.234375 L 120.308594 526.234375 L 120.308594 523.984375 M 122.558594 528.484375 L 122.558594 530.734375 L 120.308594 530.734375 L 120.308594 528.484375 M 122.558594 532.980469 L 122.558594 535.230469 L 120.308594 535.230469 L 120.308594 532.980469 M 122.558594 537.480469 L 122.558594 539.726562 L 120.308594 539.726562 L 120.308594 537.480469 M 122.558594 541.976562 L 122.558594 544.226562 L 120.308594 544.226562 L 120.308594 541.976562 M 122.558594 546.476562 L 122.558594 548.722656 L 120.308594 548.722656 L 120.308594 546.476562 M 122.558594 550.972656 L 122.558594 553.222656 L 120.308594 553.222656 L 120.308594 550.972656 M 122.558594 555.46875 L 122.558594 557.71875 L 120.308594 557.71875 L 120.308594 555.46875 M 122.558594 559.96875 L 122.558594 562.21875 L 120.308594 562.21875 L 120.308594 559.96875 M 122.558594 564.464844 L 122.558594 566.714844 L 120.308594 566.714844 L 120.308594 564.464844 M 122.558594 568.964844 L 122.558594 571.214844 L 120.308594 571.214844 L 120.308594 568.964844 M 122.558594 573.460938 L 122.558594 575.710938 L 120.308594 575.710938 L 120.308594 573.460938 M 122.558594 577.960938 L 122.558594 580.207031 L 120.308594 580.207031 L 120.308594 577.960938 M 122.558594 582.457031 L 122.558594 584.707031 L 120.308594 584.707031 L 120.308594 582.457031 M 122.558594 586.957031 L 122.558594 589.203125 L 120.308594 589.203125 L 120.308594 586.957031 " fill-opacity="1" fill-rule="nonzero"/><g clip-path="url(#7ff85a663d)"><g clip-path="url(#c327257cc5)"><path fill="#1a8fd2" d="M 82.570312 470.992188 L 160.308594 470.992188 L 160.308594 548.730469 L 82.570312 548.730469 Z M 82.570312 470.992188 " fill-opacity="1" fill-rule="nonzero"/></g></g><g fill="#fffefe" fill-opacity="1"><g transform="translate(112.684844, 519.719902)"><g><path d="M 9.203125 0.28125 C 7.753906 0.28125 6.460938 -0.0507812 5.328125 -0.71875 C 4.191406 -1.382812 3.289062 -2.445312 2.625 -3.90625 C 1.957031 -5.363281 1.625 -7.210938 1.625 -9.453125 C 1.625 -11.734375 1.972656 -13.625 2.671875 -15.125 C 3.378906 -16.632812 4.335938 -17.75 5.546875 -18.46875 C 6.765625 -19.1875 8.160156 -19.546875 9.734375 -19.546875 C 11.046875 -19.546875 12.171875 -19.351562 13.109375 -18.96875 C 14.054688 -18.59375 14.796875 -18.035156 15.328125 -17.296875 L 13.453125 -14.90625 L 13.125 -14.90625 C 12.320312 -15.863281 11.191406 -16.34375 9.734375 -16.34375 C 6.992188 -16.34375 5.59375 -14.332031 5.53125 -10.3125 L 5.8125 -10.21875 C 6.257812 -11.050781 6.847656 -11.679688 7.578125 -12.109375 C 8.316406 -12.546875 9.242188 -12.765625 10.359375 -12.765625 C 11.546875 -12.765625 12.570312 -12.507812 13.4375 -12 C 14.3125 -11.5 14.984375 -10.78125 15.453125 -9.84375 C 15.921875 -8.90625 16.15625 -7.789062 16.15625 -6.5 C 16.15625 -5.09375 15.875 -3.878906 15.3125 -2.859375 C 14.757812 -1.835938 13.957031 -1.054688 12.90625 -0.515625 C 11.863281 0.015625 10.628906 0.28125 9.203125 0.28125 Z M 9.125 -2.984375 C 10.125 -2.984375 10.90625 -3.273438 11.46875 -3.859375 C 12.03125 -4.441406 12.3125 -5.257812 12.3125 -6.3125 C 12.3125 -7.363281 12.03125 -8.179688 11.46875 -8.765625 C 10.90625 -9.347656 10.125 -9.640625 9.125 -9.640625 C 8.476562 -9.640625 7.910156 -9.503906 7.421875 -9.234375 C 6.929688 -8.960938 6.554688 -8.578125 6.296875 -8.078125 C 6.035156 -7.578125 5.90625 -6.988281 5.90625 -6.3125 C 5.90625 -5.28125 6.191406 -4.46875 6.765625 -3.875 C 7.335938 -3.28125 8.125 -2.984375 9.125 -2.984375 Z M 9.125 -2.984375 "/></g></g></g><g clip-path="url(#c6fae9fefa)"><g clip-path="url(#6bc8f26378)"><path fill="#fffefe" d="M 101.539062 313.679688 L 141.339844 313.679688 L 141.339844 353.484375 L 101.539062 353.484375 Z M 101.539062 313.679688 " fill-opacity="1" fill-rule="nonzero"/></g></g><g fill="#2e2e2e" fill-opacity="1"><g transform="translate(116.413782, 339.916311)"><g><path d="M 4.9375 0.171875 C 3.644531 0.171875 2.613281 -0.0976562 1.84375 -0.640625 C 1.082031 -1.191406 0.597656 -1.972656 0.390625 -2.984375 L 2.21875 -3.828125 L 2.40625 -3.796875 C 2.613281 -3.128906 2.90625 -2.640625 3.28125 -2.328125 C 3.65625 -2.023438 4.179688 -1.875 4.859375 -1.875 C 5.515625 -1.875 6.007812 -2.023438 6.34375 -2.328125 C 6.6875 -2.628906 6.859375 -3.070312 6.859375 -3.65625 C 6.859375 -4.226562 6.6875 -4.664062 6.34375 -4.96875 C 6.007812 -5.269531 5.515625 -5.421875 4.859375 -5.421875 L 3.03125 -5.421875 L 3.03125 -7.296875 L 4.625 -7.296875 C 5.164062 -7.296875 5.597656 -7.429688 5.921875 -7.703125 C 6.242188 -7.972656 6.40625 -8.359375 6.40625 -8.859375 C 6.40625 -9.359375 6.253906 -9.734375 5.953125 -9.984375 C 5.648438 -10.234375 5.234375 -10.359375 4.703125 -10.359375 C 4.160156 -10.359375 3.679688 -10.226562 3.265625 -9.96875 C 2.847656 -9.71875 2.507812 -9.378906 2.25 -8.953125 L 2.0625 -8.921875 L 0.796875 -10.390625 C 1.222656 -10.960938 1.769531 -11.421875 2.4375 -11.765625 C 3.113281 -12.117188 3.910156 -12.296875 4.828125 -12.296875 C 6.109375 -12.296875 7.082031 -12.03125 7.75 -11.5 C 8.414062 -10.96875 8.75 -10.222656 8.75 -9.265625 C 8.75 -8.679688 8.613281 -8.179688 8.34375 -7.765625 C 8.070312 -7.359375 7.679688 -7.003906 7.171875 -6.703125 L 7.171875 -6.53125 C 8.566406 -6.039062 9.265625 -5.046875 9.265625 -3.546875 C 9.265625 -2.796875 9.101562 -2.140625 8.78125 -1.578125 C 8.46875 -1.023438 7.988281 -0.59375 7.34375 -0.28125 C 6.695312 0.0195312 5.894531 0.171875 4.9375 0.171875 Z M 4.9375 0.171875 "/></g></g></g><g clip-path="url(#a1f4847893)"><g clip-path="url(#44c3101b71)"><path fill="#fffefe" d="M 101.539062 208.71875 L 141.339844 208.71875 L 141.339844 248.523438 L 101.539062 248.523438 Z M 101.539062 208.71875 " fill-opacity="1" fill-rule="nonzero"/></g></g><g fill="#2e2e2e" fill-opacity="1"><g transform="translate(116.952578, 234.957675)"><g><path d="M 0.640625 0 L 0.640625 -1.984375 L 3.5625 -1.984375 L 3.5625 -9.53125 L 3.375 -9.578125 C 2.957031 -9.378906 2.546875 -9.222656 2.140625 -9.109375 C 1.742188 -8.992188 1.289062 -8.898438 0.78125 -8.828125 L 0.78125 -10.875 C 2.125 -11.15625 3.207031 -11.570312 4.03125 -12.125 L 5.9375 -12.125 L 5.9375 -1.984375 L 8.546875 -1.984375 L 8.546875 0 Z M 0.640625 0 "/></g></g></g><g clip-path="url(#c7fa14e1fd)"><g clip-path="url(#c4a6772f7c)"><path fill="#fffefe" d="M 101.539062 366.035156 L 141.339844 366.035156 L 141.339844 405.839844 L 101.539062 405.839844 Z M 101.539062 366.035156 " fill-opacity="1" fill-rule="nonzero"/></g></g><g fill="#2e2e2e" fill-opacity="1"><g transform="translate(116.144384, 392.272343)"><g><path d="M 8.234375 0 L 5.9375 0 L 5.9375 -2.640625 L 0.421875 -2.640625 L 0.421875 -4.5625 L 5.171875 -12.125 L 8.234375 -12.125 L 8.234375 -4.5625 L 10.09375 -4.5625 L 10.09375 -2.640625 L 8.234375 -2.640625 Z M 2.875 -4.75 L 2.9375 -4.5625 L 5.9375 -4.5625 L 5.9375 -9.265625 L 5.75 -9.296875 Z M 2.875 -4.75 "/></g></g></g><g clip-path="url(#c16cd40604)"><g clip-path="url(#651e48b8f2)"><path fill="#fffefe" d="M 101.539062 261.132812 L 141.339844 261.132812 L 141.339844 300.9375 L 101.539062 300.9375 Z M 101.539062 261.132812 " fill-opacity="1" fill-rule="nonzero"/></g></g><g fill="#2e2e2e" fill-opacity="1"><g transform="translate(116.694893, 287.369299)"><g><path d="M 0.59375 -0.96875 C 0.59375 -1.632812 0.664062 -2.195312 0.8125 -2.65625 C 0.957031 -3.113281 1.195312 -3.53125 1.53125 -3.90625 C 1.863281 -4.289062 2.332031 -4.703125 2.9375 -5.140625 L 4.546875 -6.296875 C 4.992188 -6.617188 5.335938 -6.894531 5.578125 -7.125 C 5.828125 -7.351562 6.015625 -7.59375 6.140625 -7.84375 C 6.265625 -8.101562 6.328125 -8.394531 6.328125 -8.71875 C 6.328125 -9.21875 6.175781 -9.597656 5.875 -9.859375 C 5.582031 -10.128906 5.132812 -10.265625 4.53125 -10.265625 C 3.957031 -10.265625 3.445312 -10.128906 3 -9.859375 C 2.550781 -9.585938 2.179688 -9.210938 1.890625 -8.734375 L 1.734375 -8.6875 L 0.421875 -10.171875 C 0.847656 -10.804688 1.40625 -11.316406 2.09375 -11.703125 C 2.789062 -12.097656 3.632812 -12.296875 4.625 -12.296875 C 5.53125 -12.296875 6.289062 -12.144531 6.90625 -11.84375 C 7.519531 -11.550781 7.972656 -11.144531 8.265625 -10.625 C 8.554688 -10.113281 8.703125 -9.519531 8.703125 -8.84375 C 8.703125 -8.269531 8.582031 -7.742188 8.34375 -7.265625 C 8.101562 -6.796875 7.769531 -6.359375 7.34375 -5.953125 C 6.914062 -5.546875 6.375 -5.113281 5.71875 -4.65625 L 4.28125 -3.65625 C 3.84375 -3.34375 3.539062 -3.066406 3.375 -2.828125 C 3.207031 -2.585938 3.125 -2.3125 3.125 -2 L 8.59375 -2 L 8.59375 0 L 0.59375 0 Z M 0.59375 -0.96875 "/></g></g></g><g clip-path="url(#819f0bdc4e)"><g clip-path="url(#c3a700ede9)"><path fill="#fffefe" d="M 101.539062 561.476562 L 141.339844 561.476562 L 141.339844 601.28125 L 101.539062 601.28125 Z M 101.539062 561.476562 " fill-opacity="1" fill-rule="nonzero"/></g></g><g fill="#2e2e2e" fill-opacity="1"><g transform="translate(117.128273, 587.713079)"><g><path d="M 4.03125 0 L 1.578125 0 L 5.765625 -9.9375 L 5.71875 -10.109375 L 0.328125 -10.109375 L 0.328125 -12.125 L 8.1875 -12.125 L 8.1875 -10 Z M 4.03125 0 "/></g></g></g><g clip-path="url(#dddb9ebb5d)"><g clip-path="url(#94ea57183a)"><path fill="#fffefe" d="M 101.539062 418.445312 L 141.339844 418.445312 L 141.339844 458.25 L 101.539062 458.25 Z M 101.539062 418.445312 " fill-opacity="1" fill-rule="nonzero"/></g></g><g fill="#2e2e2e" fill-opacity="1"><g transform="translate(116.320078, 444.683974)"><g><path d="M 5.046875 0.171875 C 3.835938 0.171875 2.878906 -0.0820312 2.171875 -0.59375 C 1.460938 -1.101562 1 -1.8125 0.78125 -2.71875 L 2.59375 -3.53125 L 2.78125 -3.484375 C 2.957031 -2.953125 3.222656 -2.550781 3.578125 -2.28125 C 3.929688 -2.007812 4.414062 -1.875 5.03125 -1.875 C 5.65625 -1.875 6.140625 -2.050781 6.484375 -2.40625 C 6.828125 -2.769531 7 -3.304688 7 -4.015625 C 7 -4.722656 6.828125 -5.257812 6.484375 -5.625 C 6.148438 -5.988281 5.6875 -6.171875 5.09375 -6.171875 C 4.644531 -6.171875 4.269531 -6.070312 3.96875 -5.875 C 3.664062 -5.6875 3.410156 -5.40625 3.203125 -5.03125 L 1.234375 -5.171875 L 1.46875 -12.125 L 8.6875 -12.125 L 8.6875 -10.109375 L 3.484375 -10.109375 L 3.375 -7.015625 L 3.546875 -6.984375 C 3.828125 -7.347656 4.164062 -7.625 4.5625 -7.8125 C 4.957031 -8.007812 5.429688 -8.109375 5.984375 -8.109375 C 6.671875 -8.109375 7.269531 -7.953125 7.78125 -7.640625 C 8.300781 -7.335938 8.703125 -6.882812 8.984375 -6.28125 C 9.265625 -5.675781 9.40625 -4.9375 9.40625 -4.0625 C 9.40625 -3.175781 9.234375 -2.414062 8.890625 -1.78125 C 8.554688 -1.144531 8.0625 -0.660156 7.40625 -0.328125 C 6.757812 0.00390625 5.972656 0.171875 5.046875 0.171875 Z M 5.046875 0.171875 "/></g></g></g></svg>