<svg xmlns="http://www.w3.org/2000/svg" xmlns:xlink="http://www.w3.org/1999/xlink" width="1920" zoomAndPan="magnify" viewBox="0 0 1440 809.999993" height="1080" preserveAspectRatio="xMidYMid meet" version="1.0"><defs><clipPath id="6a0a3a0a93"><path d="M 312 4 L 1116 4 L 1116 808 L 312 808 Z M 312 4 " clip-rule="nonzero"/></clipPath><clipPath id="8c80dc76be"><path d="M 707.289062 4.488281 C 485.984375 8.828125 310.242188 191.175781 312.410156 412.601562 C 316.75 634.023438 499 809.859375 720.308594 807.691406 C 941.613281 803.347656 1117.355469 621 1115.183594 399.574219 C 1110.84375 178.152344 928.59375 0.144531 707.289062 4.488281 Z M 596.636719 71.78125 C 572.769531 104.34375 551.074219 145.589844 535.886719 193.347656 L 431.742188 193.347656 C 472.964844 139.078125 529.375 95.660156 596.636719 71.78125 Z M 401.367188 241.105469 L 520.699219 241.105469 C 509.851562 284.523438 505.511719 332.28125 503.339844 382.210938 L 362.3125 382.210938 C 364.484375 332.28125 379.671875 284.523438 401.367188 241.105469 Z M 362.3125 429.96875 L 503.339844 429.96875 C 505.511719 479.894531 509.851562 527.65625 520.699219 571.070312 L 401.367188 571.070312 C 379.671875 527.65625 364.484375 479.894531 362.3125 429.96875 Z M 431.742188 616.65625 L 535.886719 616.65625 C 551.074219 664.417969 572.769531 707.832031 596.636719 738.222656 C 529.375 714.34375 472.964844 673.097656 431.742188 616.65625 Z M 692.101562 755.589844 C 640.03125 738.222656 603.144531 668.757812 585.789062 616.65625 L 692.101562 616.65625 Z M 692.101562 571.070312 L 570.601562 571.070312 C 559.753906 527.65625 553.242188 479.894531 551.074219 429.96875 L 692.101562 429.96875 Z M 692.101562 382.210938 L 551.074219 382.210938 C 553.242188 332.28125 559.753906 284.523438 570.601562 241.105469 L 692.101562 241.105469 Z M 692.101562 193.347656 L 585.789062 193.347656 C 605.316406 141.25 640.03125 71.78125 692.101562 54.414062 Z M 1067.453125 382.210938 L 926.425781 382.210938 C 924.253906 332.28125 919.914062 284.523438 909.066406 241.105469 L 1028.398438 241.105469 C 1050.09375 284.523438 1065.28125 332.28125 1067.453125 382.210938 Z M 998.023438 193.347656 L 893.878906 193.347656 C 878.691406 145.589844 856.996094 102.171875 833.128906 71.78125 C 900.386719 95.660156 956.800781 139.078125 998.023438 193.347656 Z M 737.664062 56.585938 C 789.734375 73.953125 826.621094 143.417969 843.976562 195.519531 L 737.664062 195.519531 Z M 737.664062 241.105469 L 859.164062 241.105469 C 870.011719 284.523438 876.523438 332.28125 878.691406 382.210938 L 737.664062 382.210938 Z M 737.664062 429.96875 L 878.691406 429.96875 C 876.523438 479.894531 870.011719 527.65625 859.164062 571.070312 L 737.664062 571.070312 Z M 737.664062 755.589844 L 737.664062 616.65625 L 843.976562 616.65625 C 826.621094 668.757812 791.90625 738.222656 737.664062 755.589844 Z M 833.128906 738.222656 C 856.996094 705.660156 878.691406 664.417969 893.878906 616.65625 L 998.023438 616.65625 C 956.800781 673.097656 900.386719 714.34375 833.128906 738.222656 Z M 1028.398438 571.070312 L 909.066406 571.070312 C 919.914062 527.65625 924.253906 479.894531 926.425781 429.96875 L 1067.453125 429.96875 C 1065.28125 479.894531 1050.09375 527.65625 1028.398438 571.070312 Z M 1028.398438 571.070312 " clip-rule="evenodd"/></clipPath></defs><g clip-path="url(#6a0a3a0a93)"><g clip-path="url(#8c80dc76be)"><path fill="#2e2e2e" d="M 310.273438 0.144531 L 310.273438 809.859375 L 1117.273438 809.859375 L 1117.273438 0.144531 Z M 310.273438 0.144531 " fill-opacity="1" fill-rule="nonzero"/></g></g></svg>