<svg xmlns="http://www.w3.org/2000/svg" xmlns:xlink="http://www.w3.org/1999/xlink" width="1920" zoomAndPan="magnify" viewBox="0 0 1440 809.999993" height="1080" preserveAspectRatio="xMidYMid meet" version="1.0"><defs><clipPath id="94e30c7724"><path d="M 385 16 L 1036 16 L 1036 792 L 385 792 Z M 385 16 " clip-rule="nonzero"/></clipPath><clipPath id="64f3ebb49a"><path d="M 360.863281 37.675781 L 966.496094 -50.371094 L 1087.347656 780.890625 L 481.710938 868.9375 Z M 360.863281 37.675781 " clip-rule="nonzero"/></clipPath><clipPath id="8485eeef34"><path d="M 360.863281 37.675781 L 966.496094 -50.371094 L 1087.347656 780.890625 L 481.710938 868.9375 Z M 360.863281 37.675781 " clip-rule="nonzero"/></clipPath><clipPath id="17a1479f83"><path d="M 559 11 L 655 11 L 655 242 L 559 242 Z M 559 11 " clip-rule="nonzero"/></clipPath><clipPath id="047d4c0895"><path d="M 360.863281 37.675781 L 966.496094 -50.371094 L 1087.347656 780.890625 L 481.710938 868.9375 Z M 360.863281 37.675781 " clip-rule="nonzero"/></clipPath><clipPath id="3c445f3e38"><path d="M 360.863281 37.675781 L 966.496094 -50.371094 L 1087.347656 780.890625 L 481.710938 868.9375 Z M 360.863281 37.675781 " clip-rule="nonzero"/></clipPath><clipPath id="8109a69b5d"><path d="M 841 539 L 1063 539 L 1063 699 L 841 699 Z M 841 539 " clip-rule="nonzero"/></clipPath><clipPath id="cef5a31d68"><path d="M 360.863281 37.675781 L 966.496094 -50.371094 L 1087.347656 780.890625 L 481.710938 868.9375 Z M 360.863281 37.675781 " clip-rule="nonzero"/></clipPath><clipPath id="635bc7ca17"><path d="M 360.863281 37.675781 L 966.496094 -50.371094 L 1087.347656 780.890625 L 481.710938 868.9375 Z M 360.863281 37.675781 " clip-rule="nonzero"/></clipPath></defs><g clip-path="url(#94e30c7724)"><g clip-path="url(#64f3ebb49a)"><g clip-path="url(#8485eeef34)"><path fill="#2e2e2e" d="M 538.820312 16.679688 C 538.820312 16.679688 362.816406 44.636719 388.324219 204.042969 C 413.835938 363.449219 466.441406 500.03125 530.5625 571.085938 C 594.679688 642.144531 759.734375 828.558594 910.160156 785.421875 C 910.160156 785.421875 983.378906 758.21875 1035.234375 712.847656 L 828.535156 593.953125 C 828.535156 593.953125 778.621094 636.675781 737.539062 595.363281 C 696.453125 554.046875 557.515625 354.398438 557.515625 354.398438 C 557.515625 354.398438 517.648438 289.261719 579.6875 249.511719 Z M 538.820312 16.679688 " fill-opacity="1" fill-rule="nonzero"/></g></g></g><g clip-path="url(#17a1479f83)"><g clip-path="url(#047d4c0895)"><g clip-path="url(#3c445f3e38)"><path fill="#2e2e2e" d="M 559.4375 13.683594 C 559.4375 13.683594 572.507812 7.074219 599.707031 17.292969 C 626.910156 27.511719 628.597656 39.078125 628.597656 39.078125 L 654.121094 198.507812 C 654.121094 198.507812 648.589844 208.773438 640.78125 219.347656 C 632.964844 229.9375 605.214844 248.167969 599.28125 239.570312 C 593.371094 230.984375 559.4375 13.683594 559.4375 13.683594 Z M 559.4375 13.683594 " fill-opacity="1" fill-rule="nonzero"/></g></g></g><g clip-path="url(#8109a69b5d)"><g clip-path="url(#cef5a31d68)"><g clip-path="url(#635bc7ca17)"><path fill="#2e2e2e" d="M 841.476562 574.640625 L 888.558594 540.308594 C 888.558594 540.308594 899.671875 536.34375 919.664062 545.242188 C 939.675781 554.179688 1046.972656 616.597656 1046.972656 616.597656 C 1046.972656 616.597656 1065.019531 628.15625 1062.796875 645.027344 C 1060.570312 661.898438 1054.171875 698.296875 1054.171875 698.296875 Z M 841.476562 574.640625 " fill-opacity="1" fill-rule="nonzero"/></g></g></g></svg>