<svg xmlns="http://www.w3.org/2000/svg" xmlns:xlink="http://www.w3.org/1999/xlink" width="100" zoomAndPan="magnify" viewBox="0 0 75 74.999997" height="100" preserveAspectRatio="xMidYMid meet" version="1.0"><defs><clipPath id="7acd327a8b"><path d="M 42.730469 44.417969 L 48.75 44.417969 L 48.75 48.75 L 42.730469 48.75 Z M 42.730469 44.417969 " clip-rule="nonzero"/></clipPath><clipPath id="fe6e665c22"><path d="M 0 2.859375 L 75 2.859375 L 75 71.859375 L 0 71.859375 Z M 0 2.859375 " clip-rule="nonzero"/></clipPath></defs><g clip-path="url(#7acd327a8b)"><path fill="#ffffff" d="M 42.730469 44.417969 L 48.75 44.417969 L 48.75 48.75 L 42.730469 48.75 Z M 42.730469 44.417969 " fill-opacity="1" fill-rule="nonzero"/></g><g clip-path="url(#fe6e665c22)"><path fill="#000000" d="M 40.335938 2.859375 C 21.207031 2.859375 5.699219 18.363281 5.699219 37.492188 C 5.695312 41.738281 6.449219 45.84375 7.957031 49.8125 L 0.25 64.265625 C 0.136719 64.476562 0.0898438 64.699219 0.105469 64.9375 C 0.121094 65.171875 0.199219 65.386719 0.335938 65.582031 C 0.476562 65.773438 0.65625 65.914062 0.875 66.003906 C 1.09375 66.097656 1.320312 66.121094 1.554688 66.082031 L 17.375 63.425781 C 18.941406 64.816406 20.625 66.058594 22.417969 67.144531 C 24.214844 68.230469 26.09375 69.144531 28.054688 69.886719 C 30.015625 70.632812 32.027344 71.191406 34.09375 71.566406 C 36.15625 71.945312 38.238281 72.128906 40.335938 72.128906 C 59.460938 72.128906 74.96875 56.621094 74.96875 37.492188 C 74.96875 18.382812 59.445312 2.859375 40.335938 2.859375 Z M 40.4375 63.09375 C 38.765625 63.105469 37.105469 62.949219 35.464844 62.632812 C 33.820312 62.316406 32.226562 61.839844 30.675781 61.210938 C 29.125 60.578125 27.652344 59.804688 26.257812 58.882812 C 24.859375 57.960938 23.566406 56.914062 22.375 55.738281 L 12.898438 57.449219 C 12.667969 57.488281 12.441406 57.464844 12.222656 57.375 C 12.007812 57.289062 11.828125 57.152344 11.6875 56.960938 C 11.550781 56.773438 11.46875 56.5625 11.449219 56.328125 C 11.429688 56.09375 11.472656 55.871094 11.578125 55.664062 L 16.363281 46.5 C 15.238281 43.503906 14.695312 40.402344 14.734375 37.199219 C 14.894531 23.140625 26.277344 11.890625 40.335938 11.890625 C 54.476562 11.890625 65.9375 23.355469 65.9375 37.492188 C 65.9375 51.621094 54.566406 63.039062 40.4375 63.09375 Z M 40.4375 63.09375 " fill-opacity="1" fill-rule="nonzero"/></g><path fill="#000000" d="M 36.714844 28.859375 L 35.597656 24.140625 C 35.535156 23.871094 35.441406 23.613281 35.324219 23.363281 C 35.203125 23.109375 35.0625 22.875 34.894531 22.65625 C 34.726562 22.4375 34.535156 22.238281 34.324219 22.058594 C 34.113281 21.875 33.886719 21.722656 33.644531 21.589844 C 33.398438 21.457031 33.144531 21.351562 32.878906 21.273438 C 32.613281 21.195312 32.34375 21.148438 32.066406 21.125 C 31.789062 21.105469 31.515625 21.113281 31.242188 21.152344 C 30.964844 21.1875 30.699219 21.253906 30.4375 21.347656 L 27.859375 22.273438 C 27.441406 22.425781 27.058594 22.644531 26.710938 22.925781 C 26.367188 23.207031 26.074219 23.539062 25.84375 23.917969 C 25.609375 24.296875 25.445312 24.707031 25.351562 25.144531 C 25.253906 25.578125 25.234375 26.019531 25.289062 26.460938 C 26.1875 33.761719 30.324219 51.417969 49.34375 55.300781 C 49.71875 55.375 50.101562 55.398438 50.484375 55.363281 C 50.867188 55.328125 51.238281 55.238281 51.59375 55.09375 C 51.953125 54.953125 52.28125 54.757812 52.582031 54.519531 C 52.882812 54.277344 53.144531 54 53.363281 53.683594 L 54.84375 51.546875 C 55.140625 51.117188 55.34375 50.648438 55.453125 50.136719 C 55.5625 49.628906 55.574219 49.117188 55.480469 48.605469 C 55.386719 48.089844 55.199219 47.617188 54.914062 47.175781 C 54.632812 46.738281 54.277344 46.371094 53.847656 46.074219 C 53.839844 46.070312 53.832031 46.0625 53.824219 46.058594 L 50.570312 43.84375 C 50.21875 43.605469 49.839844 43.425781 49.429688 43.308594 C 49.019531 43.195312 48.601562 43.144531 48.175781 43.164062 C 47.75 43.183594 47.339844 43.273438 46.941406 43.425781 C 46.546875 43.578125 46.183594 43.792969 45.855469 44.0625 C 45.527344 44.332031 45.167969 44.542969 44.773438 44.699219 C 44.378906 44.851562 43.96875 44.9375 43.546875 44.960938 C 43.125 44.980469 42.710938 44.933594 42.300781 44.824219 C 41.894531 44.710938 41.511719 44.535156 41.160156 44.300781 C 39.183594 42.964844 36.507812 40.757812 34.769531 37.691406 C 34.570312 37.347656 34.429688 36.984375 34.34375 36.597656 C 34.257812 36.210938 34.230469 35.824219 34.261719 35.429688 C 34.292969 35.035156 34.382812 34.652344 34.527344 34.285156 C 34.671875 33.917969 34.871094 33.578125 35.117188 33.269531 L 35.953125 32.230469 C 36.332031 31.757812 36.589844 31.226562 36.722656 30.632812 C 36.859375 30.042969 36.855469 29.449219 36.714844 28.859375 Z M 36.714844 28.859375 " fill-opacity="1" fill-rule="nonzero"/></svg>