<svg xmlns="http://www.w3.org/2000/svg" xmlns:xlink="http://www.w3.org/1999/xlink" width="1920" zoomAndPan="magnify" viewBox="0 0 1440 809.999993" height="1080" preserveAspectRatio="xMidYMid meet" version="1.0"><defs><clipPath id="f48275c101"><path d="M 210.121094 22.125 L 1230 22.125 L 1230 787.875 L 210.121094 787.875 Z M 210.121094 22.125 " clip-rule="nonzero"/></clipPath></defs><g clip-path="url(#f48275c101)"><path fill="#2e2e2e" d="M 1198.007812 22.585938 L 241.988281 22.585938 C 224.394531 22.585938 210.121094 36.863281 210.121094 54.457031 L 210.121094 755.535156 C 210.121094 773.125 224.394531 787.402344 241.988281 787.402344 L 1198.007812 787.402344 C 1215.597656 787.402344 1229.875 773.125 1229.875 755.535156 L 1229.875 54.457031 C 1229.875 36.863281 1215.597656 22.585938 1198.007812 22.585938 Z M 719.996094 487.40625 L 318.914062 86.324219 L 1121.078125 86.324219 Z M 547.46875 404.996094 L 273.855469 678.609375 L 273.855469 131.382812 Z M 592.527344 450.054688 L 697.464844 554.996094 C 703.679688 561.210938 711.839844 564.332031 719.996094 564.332031 C 728.15625 564.332031 736.3125 561.210938 742.527344 554.996094 L 847.464844 450.054688 L 1121.078125 723.667969 L 318.914062 723.667969 Z M 892.527344 404.996094 L 1166.140625 131.382812 L 1166.140625 678.609375 Z M 892.527344 404.996094 " fill-opacity="1" fill-rule="nonzero"/></g></svg>