<svg xmlns="http://www.w3.org/2000/svg" xmlns:xlink="http://www.w3.org/1999/xlink" width="1920" zoomAndPan="magnify" viewBox="0 0 1440 809.999993" height="1080" preserveAspectRatio="xMidYMid meet" version="1.0"><defs><clipPath id="ee204987cf"><path d="M 171 383.457031 L 1269 383.457031 L 1269 426.207031 L 171 426.207031 Z M 171 383.457031 " clip-rule="nonzero"/></clipPath></defs><g clip-path="url(#ee204987cf)"><path fill="#2e2e2e" d="M 706.648438 401.183594 C 713.152344 396.917969 718.089844 390.636719 720.78125 383.457031 C 723.476562 390.859375 728.410156 396.917969 734.917969 401.183594 C 785.398438 401.183594 835.882812 401.183594 884.34375 401.183594 C 922.261719 401.183594 959.058594 401.183594 994.058594 401.40625 C 1023.003906 401.628906 1050.597656 401.855469 1076.402344 402.078125 C 1112.523438 402.527344 1144.832031 402.976562 1172.429688 403.425781 C 1231.886719 404.324219 1268.457031 404.996094 1268.457031 404.996094 C 1268.457031 404.996094 1232.109375 405.667969 1172.429688 406.566406 C 1144.832031 407.015625 1112.523438 407.464844 1076.402344 407.914062 C 1050.597656 408.136719 1023.003906 408.363281 994.058594 408.585938 C 959.28125 408.808594 922.488281 408.808594 884.34375 408.808594 C 835.882812 408.808594 785.398438 408.808594 734.917969 408.808594 C 728.410156 413.074219 723.476562 419.355469 720.78125 426.535156 C 718.089844 419.132812 713.15625 413.074219 706.648438 408.808594 C 655.492188 408.808594 604.5625 408.808594 555.425781 408.808594 C 517.507812 408.808594 480.710938 408.585938 445.710938 408.585938 C 421.929688 408.363281 398.820312 408.363281 377.28125 408.136719 C 352.824219 407.914062 329.714844 407.6875 308.847656 407.238281 C 225.160156 405.894531 171.535156 404.996094 171.535156 404.996094 C 171.535156 404.996094 225.160156 404.097656 308.625 402.976562 C 329.714844 402.753906 352.597656 402.304688 377.054688 402.078125 C 398.820312 401.855469 421.703125 401.628906 445.488281 401.628906 C 480.261719 401.40625 517.058594 401.40625 555.203125 401.40625 C 604.5625 401.183594 655.492188 401.183594 706.648438 401.183594 Z M 706.648438 401.183594 " fill-opacity="1" fill-rule="evenodd"/></g></svg>