<svg xmlns="http://www.w3.org/2000/svg" xmlns:xlink="http://www.w3.org/1999/xlink" width="324" zoomAndPan="magnify" viewBox="0 0 242.87999 809.999993" height="1080" preserveAspectRatio="xMidYMid meet" version="1.0"><defs><g/><clipPath id="fa1c6ec069"><path d="M 0 0.199219 L 242.761719 0.199219 L 242.761719 809.800781 L 0 809.800781 Z M 0 0.199219 " clip-rule="nonzero"/></clipPath><clipPath id="892b5eb950"><path d="M 82.570312 208.71875 L 160.308594 208.71875 L 160.308594 286.457031 L 82.570312 286.457031 Z M 82.570312 208.71875 " clip-rule="nonzero"/></clipPath><clipPath id="e6530ec08b"><path d="M 121.441406 208.71875 C 99.972656 208.71875 82.570312 226.121094 82.570312 247.589844 C 82.570312 269.058594 99.972656 286.457031 121.441406 286.457031 C 142.90625 286.457031 160.308594 269.058594 160.308594 247.589844 C 160.308594 226.121094 142.90625 208.71875 121.441406 208.71875 Z M 121.441406 208.71875 " clip-rule="nonzero"/></clipPath><clipPath id="de50eca114"><path d="M 101.539062 404.160156 L 141.339844 404.160156 L 141.339844 443.964844 L 101.539062 443.964844 Z M 101.539062 404.160156 " clip-rule="nonzero"/></clipPath><clipPath id="e5dd96d952"><path d="M 121.441406 404.160156 C 110.449219 404.160156 101.539062 413.070312 101.539062 424.0625 C 101.539062 435.054688 110.449219 443.964844 121.441406 443.964844 C 132.429688 443.964844 141.339844 435.054688 141.339844 424.0625 C 141.339844 413.070312 132.429688 404.160156 121.441406 404.160156 Z M 121.441406 404.160156 " clip-rule="nonzero"/></clipPath><clipPath id="76074c5d1e"><path d="M 101.539062 299.203125 L 141.339844 299.203125 L 141.339844 339.007812 L 101.539062 339.007812 Z M 101.539062 299.203125 " clip-rule="nonzero"/></clipPath><clipPath id="220b703f85"><path d="M 121.441406 299.203125 C 110.449219 299.203125 101.539062 308.113281 101.539062 319.105469 C 101.539062 330.097656 110.449219 339.007812 121.441406 339.007812 C 132.429688 339.007812 141.339844 330.097656 141.339844 319.105469 C 141.339844 308.113281 132.429688 299.203125 121.441406 299.203125 Z M 121.441406 299.203125 " clip-rule="nonzero"/></clipPath><clipPath id="38f990c53d"><path d="M 101.539062 456.515625 L 141.339844 456.515625 L 141.339844 496.320312 L 101.539062 496.320312 Z M 101.539062 456.515625 " clip-rule="nonzero"/></clipPath><clipPath id="6fe2e2d3ce"><path d="M 121.441406 456.515625 C 110.449219 456.515625 101.539062 465.425781 101.539062 476.417969 C 101.539062 487.410156 110.449219 496.320312 121.441406 496.320312 C 132.429688 496.320312 141.339844 487.410156 141.339844 476.417969 C 141.339844 465.425781 132.429688 456.515625 121.441406 456.515625 Z M 121.441406 456.515625 " clip-rule="nonzero"/></clipPath><clipPath id="73b9e90ba0"><path d="M 101.539062 351.613281 L 141.339844 351.613281 L 141.339844 391.417969 L 101.539062 391.417969 Z M 101.539062 351.613281 " clip-rule="nonzero"/></clipPath><clipPath id="3207df237e"><path d="M 121.441406 351.613281 C 110.449219 351.613281 101.539062 360.523438 101.539062 371.515625 C 101.539062 382.507812 110.449219 391.417969 121.441406 391.417969 C 132.429688 391.417969 141.339844 382.507812 141.339844 371.515625 C 141.339844 360.523438 132.429688 351.613281 121.441406 351.613281 Z M 121.441406 351.613281 " clip-rule="nonzero"/></clipPath><clipPath id="285759a91c"><path d="M 101.539062 561.476562 L 141.339844 561.476562 L 141.339844 601.28125 L 101.539062 601.28125 Z M 101.539062 561.476562 " clip-rule="nonzero"/></clipPath><clipPath id="53ed4816a3"><path d="M 121.441406 561.476562 C 110.449219 561.476562 101.539062 570.386719 101.539062 581.378906 C 101.539062 592.367188 110.449219 601.28125 121.441406 601.28125 C 132.429688 601.28125 141.339844 592.367188 141.339844 581.378906 C 141.339844 570.386719 132.429688 561.476562 121.441406 561.476562 Z M 121.441406 561.476562 " clip-rule="nonzero"/></clipPath><clipPath id="dd92e5da3e"><path d="M 101.539062 508.929688 L 141.339844 508.929688 L 141.339844 548.730469 L 101.539062 548.730469 Z M 101.539062 508.929688 " clip-rule="nonzero"/></clipPath><clipPath id="7aab5adaf8"><path d="M 121.441406 508.929688 C 110.449219 508.929688 101.539062 517.839844 101.539062 528.832031 C 101.539062 539.820312 110.449219 548.730469 121.441406 548.730469 C 132.429688 548.730469 141.339844 539.820312 141.339844 528.832031 C 141.339844 517.839844 132.429688 508.929688 121.441406 508.929688 Z M 121.441406 508.929688 " clip-rule="nonzero"/></clipPath></defs><g clip-path="url(#fa1c6ec069)"><path fill="#2e2e2e" d="M 0 0.199219 L 242.878906 0.199219 L 242.878906 809.484375 L 0 809.484375 Z M 0 0.199219 " fill-opacity="1" fill-rule="nonzero"/></g><path fill="#ffffff" d="M 122.558594 286.464844 L 122.558594 288.710938 L 120.3125 288.710938 L 120.3125 286.464844 M 122.558594 290.960938 L 122.558594 293.210938 L 120.3125 293.210938 L 120.3125 290.960938 M 122.558594 295.460938 L 122.558594 297.707031 L 120.3125 297.707031 L 120.3125 295.460938 M 122.558594 299.957031 L 122.558594 302.207031 L 120.3125 302.207031 L 120.3125 299.957031 M 122.558594 304.453125 L 122.558594 306.703125 L 120.3125 306.703125 L 120.3125 304.453125 M 122.558594 308.953125 L 122.558594 311.203125 L 120.3125 311.203125 L 120.3125 308.953125 M 122.558594 313.449219 L 122.558594 315.699219 L 120.3125 315.699219 L 120.3125 313.449219 M 122.558594 317.949219 L 122.558594 320.195312 L 120.3125 320.195312 L 120.3125 317.949219 M 122.558594 322.445312 L 122.558594 324.695312 L 120.3125 324.695312 L 120.3125 322.445312 M 122.558594 326.945312 L 122.558594 329.191406 L 120.3125 329.191406 L 120.3125 326.945312 M 122.558594 331.441406 L 122.558594 333.691406 L 120.3125 333.691406 L 120.3125 331.441406 M 122.558594 335.9375 L 122.558594 338.1875 L 120.3125 338.1875 L 120.3125 335.9375 M 122.558594 340.4375 L 122.558594 342.6875 L 120.3125 342.6875 L 120.3125 340.4375 M 122.558594 344.933594 L 122.558594 347.183594 L 120.3125 347.183594 L 120.3125 344.933594 M 122.558594 349.433594 L 122.558594 351.679688 L 120.3125 351.679688 L 120.3125 349.433594 M 122.558594 353.929688 L 122.558594 356.179688 L 120.3125 356.179688 L 120.3125 353.929688 M 122.558594 358.429688 L 122.558594 360.675781 L 120.3125 360.675781 L 120.3125 358.429688 M 122.558594 362.925781 L 122.558594 365.175781 L 120.3125 365.175781 L 120.3125 362.925781 M 122.558594 367.421875 L 122.558594 369.671875 L 120.3125 369.671875 L 120.3125 367.421875 M 122.558594 371.921875 L 122.558594 374.171875 L 120.3125 374.171875 L 120.3125 371.921875 M 122.558594 376.417969 L 122.558594 378.667969 L 120.3125 378.667969 L 120.3125 376.417969 M 122.558594 380.917969 L 122.558594 383.164062 L 120.3125 383.164062 L 120.3125 380.917969 M 122.558594 385.414062 L 122.558594 387.664062 L 120.3125 387.664062 L 120.3125 385.414062 M 122.558594 389.914062 L 122.558594 392.160156 L 120.3125 392.160156 L 120.3125 389.914062 M 122.558594 394.410156 L 122.558594 396.660156 L 120.3125 396.660156 L 120.3125 394.410156 M 122.558594 398.90625 L 122.558594 401.15625 L 120.3125 401.15625 L 120.3125 398.90625 M 122.558594 403.40625 L 122.558594 405.65625 L 120.3125 405.65625 L 120.3125 403.40625 M 122.558594 407.902344 L 122.558594 410.152344 L 120.3125 410.152344 L 120.3125 407.902344 M 122.558594 412.402344 L 122.558594 414.648438 L 120.3125 414.648438 L 120.3125 412.402344 M 122.558594 416.898438 L 122.558594 419.148438 L 120.3125 419.148438 L 120.3125 416.898438 M 122.558594 421.398438 L 122.558594 423.644531 L 120.3125 423.644531 L 120.3125 421.398438 M 122.558594 425.894531 L 122.558594 428.144531 L 120.3125 428.144531 L 120.3125 425.894531 M 122.558594 430.390625 L 122.558594 432.640625 L 120.3125 432.640625 L 120.3125 430.390625 M 122.558594 434.890625 L 122.558594 437.140625 L 120.3125 437.140625 L 120.3125 434.890625 M 122.558594 439.386719 L 122.558594 441.636719 L 120.3125 441.636719 L 120.3125 439.386719 M 122.558594 443.886719 L 122.558594 446.132812 L 120.3125 446.132812 L 120.3125 443.886719 M 122.558594 448.382812 L 122.558594 450.632812 L 120.3125 450.632812 L 120.3125 448.382812 M 122.558594 452.882812 L 122.558594 455.128906 L 120.3125 455.128906 L 120.3125 452.882812 M 122.558594 457.378906 L 122.558594 459.628906 L 120.3125 459.628906 L 120.3125 457.378906 M 122.558594 461.875 L 122.558594 464.125 L 120.3125 464.125 L 120.3125 461.875 M 122.558594 466.375 L 122.558594 468.625 L 120.3125 468.625 L 120.3125 466.375 M 122.558594 470.871094 L 122.558594 473.121094 L 120.3125 473.121094 L 120.3125 470.871094 M 122.558594 475.371094 L 122.558594 477.617188 L 120.3125 477.617188 L 120.3125 475.371094 M 122.558594 479.867188 L 122.558594 482.117188 L 120.3125 482.117188 L 120.3125 479.867188 M 122.558594 484.367188 L 122.558594 486.613281 L 120.3125 486.613281 L 120.3125 484.367188 M 122.558594 488.863281 L 122.558594 491.113281 L 120.3125 491.113281 L 120.3125 488.863281 M 122.558594 493.363281 L 122.558594 495.609375 L 120.3125 495.609375 L 120.3125 493.363281 M 122.558594 497.859375 L 122.558594 500.109375 L 120.3125 500.109375 L 120.3125 497.859375 M 122.558594 502.355469 L 122.558594 504.605469 L 120.3125 504.605469 L 120.3125 502.355469 M 122.558594 506.855469 L 122.558594 509.105469 L 120.3125 509.105469 L 120.3125 506.855469 M 122.558594 511.351562 L 122.558594 513.601562 L 120.3125 513.601562 L 120.3125 511.351562 M 122.558594 515.851562 L 122.558594 518.097656 L 120.3125 518.097656 L 120.3125 515.851562 M 122.558594 520.347656 L 122.558594 522.597656 L 120.3125 522.597656 L 120.3125 520.347656 M 122.558594 524.847656 L 122.558594 527.09375 L 120.3125 527.09375 L 120.3125 524.847656 M 122.558594 529.34375 L 122.558594 531.59375 L 120.3125 531.59375 L 120.3125 529.34375 M 122.558594 533.839844 L 122.558594 536.089844 L 120.3125 536.089844 L 120.3125 533.839844 M 122.558594 538.339844 L 122.558594 540.589844 L 120.3125 540.589844 L 120.3125 538.339844 M 122.558594 542.835938 L 122.558594 545.085938 L 120.3125 545.085938 L 120.3125 542.835938 M 122.558594 547.335938 L 122.558594 549.582031 L 120.3125 549.582031 L 120.3125 547.335938 M 122.558594 551.832031 L 122.558594 554.082031 L 120.3125 554.082031 L 120.3125 551.832031 M 122.558594 556.332031 L 122.558594 558.578125 L 120.3125 558.578125 L 120.3125 556.332031 M 122.558594 560.828125 L 122.558594 563.078125 L 120.3125 563.078125 L 120.3125 560.828125 M 122.558594 565.324219 L 122.558594 567.574219 L 120.3125 567.574219 L 120.3125 565.324219 M 122.558594 569.824219 L 122.558594 572.074219 L 120.3125 572.074219 L 120.3125 569.824219 M 122.558594 574.320312 L 122.558594 576.570312 L 120.3125 576.570312 L 120.3125 574.320312 M 122.558594 578.820312 L 122.558594 581.066406 L 120.3125 581.066406 L 120.3125 578.820312 M 122.558594 583.316406 L 122.558594 585.566406 L 120.3125 585.566406 L 120.3125 583.316406 M 122.558594 587.816406 L 122.558594 590.0625 L 120.3125 590.0625 L 120.3125 587.816406 " fill-opacity="1" fill-rule="nonzero"/><g clip-path="url(#892b5eb950)"><g clip-path="url(#e6530ec08b)"><path fill="#1a8fd2" d="M 82.570312 208.71875 L 160.308594 208.71875 L 160.308594 286.457031 L 82.570312 286.457031 Z M 82.570312 208.71875 " fill-opacity="1" fill-rule="nonzero"/></g></g><g fill="#fffefe" fill-opacity="1"><g transform="translate(114.324659, 257.446562)"><g><path d="M 1.015625 0 L 1.015625 -3.15625 L 5.671875 -3.15625 L 5.671875 -15.140625 L 5.359375 -15.21875 C 4.703125 -14.90625 4.054688 -14.65625 3.421875 -14.46875 C 2.785156 -14.28125 2.054688 -14.132812 1.234375 -14.03125 L 1.234375 -17.28125 C 3.367188 -17.726562 5.097656 -18.390625 6.421875 -19.265625 L 9.4375 -19.265625 L 9.4375 -3.15625 L 13.578125 -3.15625 L 13.578125 0 Z M 1.015625 0 "/></g></g></g><g clip-path="url(#de50eca114)"><g clip-path="url(#e5dd96d952)"><path fill="#fffefe" d="M 101.539062 404.160156 L 141.339844 404.160156 L 141.339844 443.964844 L 101.539062 443.964844 Z M 101.539062 404.160156 " fill-opacity="1" fill-rule="nonzero"/></g></g><g fill="#2e2e2e" fill-opacity="1"><g transform="translate(116.144384, 430.398361)"><g><path d="M 8.234375 0 L 5.9375 0 L 5.9375 -2.640625 L 0.421875 -2.640625 L 0.421875 -4.5625 L 5.171875 -12.125 L 8.234375 -12.125 L 8.234375 -4.5625 L 10.09375 -4.5625 L 10.09375 -2.640625 L 8.234375 -2.640625 Z M 2.875 -4.75 L 2.9375 -4.5625 L 5.9375 -4.5625 L 5.9375 -9.265625 L 5.75 -9.296875 Z M 2.875 -4.75 "/></g></g></g><g clip-path="url(#76074c5d1e)"><g clip-path="url(#220b703f85)"><path fill="#fffefe" d="M 101.539062 299.203125 L 141.339844 299.203125 L 141.339844 339.007812 L 101.539062 339.007812 Z M 101.539062 299.203125 " fill-opacity="1" fill-rule="nonzero"/></g></g><g fill="#2e2e2e" fill-opacity="1"><g transform="translate(116.694893, 325.439705)"><g><path d="M 0.59375 -0.96875 C 0.59375 -1.632812 0.664062 -2.195312 0.8125 -2.65625 C 0.957031 -3.113281 1.195312 -3.53125 1.53125 -3.90625 C 1.863281 -4.289062 2.332031 -4.703125 2.9375 -5.140625 L 4.546875 -6.296875 C 4.992188 -6.617188 5.335938 -6.894531 5.578125 -7.125 C 5.828125 -7.351562 6.015625 -7.59375 6.140625 -7.84375 C 6.265625 -8.101562 6.328125 -8.394531 6.328125 -8.71875 C 6.328125 -9.21875 6.175781 -9.597656 5.875 -9.859375 C 5.582031 -10.128906 5.132812 -10.265625 4.53125 -10.265625 C 3.957031 -10.265625 3.445312 -10.128906 3 -9.859375 C 2.550781 -9.585938 2.179688 -9.210938 1.890625 -8.734375 L 1.734375 -8.6875 L 0.421875 -10.171875 C 0.847656 -10.804688 1.40625 -11.316406 2.09375 -11.703125 C 2.789062 -12.097656 3.632812 -12.296875 4.625 -12.296875 C 5.53125 -12.296875 6.289062 -12.144531 6.90625 -11.84375 C 7.519531 -11.550781 7.972656 -11.144531 8.265625 -10.625 C 8.554688 -10.113281 8.703125 -9.519531 8.703125 -8.84375 C 8.703125 -8.269531 8.582031 -7.742188 8.34375 -7.265625 C 8.101562 -6.796875 7.769531 -6.359375 7.34375 -5.953125 C 6.914062 -5.546875 6.375 -5.113281 5.71875 -4.65625 L 4.28125 -3.65625 C 3.84375 -3.34375 3.539062 -3.066406 3.375 -2.828125 C 3.207031 -2.585938 3.125 -2.3125 3.125 -2 L 8.59375 -2 L 8.59375 0 L 0.59375 0 Z M 0.59375 -0.96875 "/></g></g></g><g clip-path="url(#38f990c53d)"><g clip-path="url(#6fe2e2d3ce)"><path fill="#fffefe" d="M 101.539062 456.515625 L 141.339844 456.515625 L 141.339844 496.320312 L 101.539062 496.320312 Z M 101.539062 456.515625 " fill-opacity="1" fill-rule="nonzero"/></g></g><g fill="#2e2e2e" fill-opacity="1"><g transform="translate(116.320078, 482.754385)"><g><path d="M 5.046875 0.171875 C 3.835938 0.171875 2.878906 -0.0820312 2.171875 -0.59375 C 1.460938 -1.101562 1 -1.8125 0.78125 -2.71875 L 2.59375 -3.53125 L 2.78125 -3.484375 C 2.957031 -2.953125 3.222656 -2.550781 3.578125 -2.28125 C 3.929688 -2.007812 4.414062 -1.875 5.03125 -1.875 C 5.65625 -1.875 6.140625 -2.050781 6.484375 -2.40625 C 6.828125 -2.769531 7 -3.304688 7 -4.015625 C 7 -4.722656 6.828125 -5.257812 6.484375 -5.625 C 6.148438 -5.988281 5.6875 -6.171875 5.09375 -6.171875 C 4.644531 -6.171875 4.269531 -6.070312 3.96875 -5.875 C 3.664062 -5.6875 3.410156 -5.40625 3.203125 -5.03125 L 1.234375 -5.171875 L 1.46875 -12.125 L 8.6875 -12.125 L 8.6875 -10.109375 L 3.484375 -10.109375 L 3.375 -7.015625 L 3.546875 -6.984375 C 3.828125 -7.347656 4.164062 -7.625 4.5625 -7.8125 C 4.957031 -8.007812 5.429688 -8.109375 5.984375 -8.109375 C 6.671875 -8.109375 7.269531 -7.953125 7.78125 -7.640625 C 8.300781 -7.335938 8.703125 -6.882812 8.984375 -6.28125 C 9.265625 -5.675781 9.40625 -4.9375 9.40625 -4.0625 C 9.40625 -3.175781 9.234375 -2.414062 8.890625 -1.78125 C 8.554688 -1.144531 8.0625 -0.660156 7.40625 -0.328125 C 6.757812 0.00390625 5.972656 0.171875 5.046875 0.171875 Z M 5.046875 0.171875 "/></g></g></g><g clip-path="url(#73b9e90ba0)"><g clip-path="url(#3207df237e)"><path fill="#fffefe" d="M 101.539062 351.613281 L 141.339844 351.613281 L 141.339844 391.417969 L 101.539062 391.417969 Z M 101.539062 351.613281 " fill-opacity="1" fill-rule="nonzero"/></g></g><g fill="#2e2e2e" fill-opacity="1"><g transform="translate(116.413782, 377.851314)"><g><path d="M 4.9375 0.171875 C 3.644531 0.171875 2.613281 -0.0976562 1.84375 -0.640625 C 1.082031 -1.191406 0.597656 -1.972656 0.390625 -2.984375 L 2.21875 -3.828125 L 2.40625 -3.796875 C 2.613281 -3.128906 2.90625 -2.640625 3.28125 -2.328125 C 3.65625 -2.023438 4.179688 -1.875 4.859375 -1.875 C 5.515625 -1.875 6.007812 -2.023438 6.34375 -2.328125 C 6.6875 -2.628906 6.859375 -3.070312 6.859375 -3.65625 C 6.859375 -4.226562 6.6875 -4.664062 6.34375 -4.96875 C 6.007812 -5.269531 5.515625 -5.421875 4.859375 -5.421875 L 3.03125 -5.421875 L 3.03125 -7.296875 L 4.625 -7.296875 C 5.164062 -7.296875 5.597656 -7.429688 5.921875 -7.703125 C 6.242188 -7.972656 6.40625 -8.359375 6.40625 -8.859375 C 6.40625 -9.359375 6.253906 -9.734375 5.953125 -9.984375 C 5.648438 -10.234375 5.234375 -10.359375 4.703125 -10.359375 C 4.160156 -10.359375 3.679688 -10.226562 3.265625 -9.96875 C 2.847656 -9.71875 2.507812 -9.378906 2.25 -8.953125 L 2.0625 -8.921875 L 0.796875 -10.390625 C 1.222656 -10.960938 1.769531 -11.421875 2.4375 -11.765625 C 3.113281 -12.117188 3.910156 -12.296875 4.828125 -12.296875 C 6.109375 -12.296875 7.082031 -12.03125 7.75 -11.5 C 8.414062 -10.96875 8.75 -10.222656 8.75 -9.265625 C 8.75 -8.679688 8.613281 -8.179688 8.34375 -7.765625 C 8.070312 -7.359375 7.679688 -7.003906 7.171875 -6.703125 L 7.171875 -6.53125 C 8.566406 -6.039062 9.265625 -5.046875 9.265625 -3.546875 C 9.265625 -2.796875 9.101562 -2.140625 8.78125 -1.578125 C 8.46875 -1.023438 7.988281 -0.59375 7.34375 -0.28125 C 6.695312 0.0195312 5.894531 0.171875 4.9375 0.171875 Z M 4.9375 0.171875 "/></g></g></g><g clip-path="url(#285759a91c)"><g clip-path="url(#53ed4816a3)"><path fill="#fffefe" d="M 101.539062 561.476562 L 141.339844 561.476562 L 141.339844 601.28125 L 101.539062 601.28125 Z M 101.539062 561.476562 " fill-opacity="1" fill-rule="nonzero"/></g></g><g fill="#2e2e2e" fill-opacity="1"><g transform="translate(117.128273, 587.713079)"><g><path d="M 4.03125 0 L 1.578125 0 L 5.765625 -9.9375 L 5.71875 -10.109375 L 0.328125 -10.109375 L 0.328125 -12.125 L 8.1875 -12.125 L 8.1875 -10 Z M 4.03125 0 "/></g></g></g><g clip-path="url(#dd92e5da3e)"><g clip-path="url(#7aab5adaf8)"><path fill="#fffefe" d="M 101.539062 508.929688 L 141.339844 508.929688 L 141.339844 548.730469 L 101.539062 548.730469 Z M 101.539062 508.929688 " fill-opacity="1" fill-rule="nonzero"/></g></g><g fill="#2e2e2e" fill-opacity="1"><g transform="translate(115.921838, 535.166038)"><g><path d="M 5.796875 0.171875 C 4.878906 0.171875 4.0625 -0.0351562 3.34375 -0.453125 C 2.632812 -0.878906 2.066406 -1.546875 1.640625 -2.453125 C 1.222656 -3.367188 1.015625 -4.535156 1.015625 -5.953125 C 1.015625 -7.390625 1.234375 -8.582031 1.671875 -9.53125 C 2.117188 -10.476562 2.722656 -11.175781 3.484375 -11.625 C 4.253906 -12.070312 5.132812 -12.296875 6.125 -12.296875 C 6.945312 -12.296875 7.65625 -12.175781 8.25 -11.9375 C 8.84375 -11.695312 9.304688 -11.347656 9.640625 -10.890625 L 8.46875 -9.375 L 8.265625 -9.375 C 7.753906 -9.976562 7.039062 -10.28125 6.125 -10.28125 C 4.40625 -10.28125 3.523438 -9.019531 3.484375 -6.5 L 3.65625 -6.4375 C 3.9375 -6.957031 4.304688 -7.351562 4.765625 -7.625 C 5.234375 -7.894531 5.816406 -8.03125 6.515625 -8.03125 C 7.265625 -8.03125 7.910156 -7.867188 8.453125 -7.546875 C 9.003906 -7.234375 9.425781 -6.78125 9.71875 -6.1875 C 10.019531 -5.601562 10.171875 -4.90625 10.171875 -4.09375 C 10.171875 -3.207031 9.992188 -2.441406 9.640625 -1.796875 C 9.285156 -1.160156 8.78125 -0.671875 8.125 -0.328125 C 7.46875 0.00390625 6.691406 0.171875 5.796875 0.171875 Z M 5.75 -1.875 C 6.375 -1.875 6.863281 -2.054688 7.21875 -2.421875 C 7.570312 -2.796875 7.75 -3.3125 7.75 -3.96875 C 7.75 -4.632812 7.570312 -5.148438 7.21875 -5.515625 C 6.863281 -5.890625 6.375 -6.078125 5.75 -6.078125 C 5.34375 -6.078125 4.984375 -5.988281 4.671875 -5.8125 C 4.367188 -5.644531 4.132812 -5.398438 3.96875 -5.078125 C 3.800781 -4.765625 3.71875 -4.394531 3.71875 -3.96875 C 3.71875 -3.320312 3.894531 -2.8125 4.25 -2.4375 C 4.613281 -2.0625 5.113281 -1.875 5.75 -1.875 Z M 5.75 -1.875 "/></g></g></g></svg>