<svg xmlns="http://www.w3.org/2000/svg" xmlns:xlink="http://www.w3.org/1999/xlink" width="324" zoomAndPan="magnify" viewBox="0 0 242.87999 809.999993" height="1080" preserveAspectRatio="xMidYMid meet" version="1.0"><defs><g/><clipPath id="3f0fa7f7b8"><path d="M 0 0.199219 L 242.761719 0.199219 L 242.761719 809.800781 L 0 809.800781 Z M 0 0.199219 " clip-rule="nonzero"/></clipPath><clipPath id="cc91dc8995"><path d="M 83.695312 260.800781 L 161.433594 260.800781 L 161.433594 338.539062 L 83.695312 338.539062 Z M 83.695312 260.800781 " clip-rule="nonzero"/></clipPath><clipPath id="33f368a23c"><path d="M 122.5625 260.800781 C 101.097656 260.800781 83.695312 278.203125 83.695312 299.667969 C 83.695312 321.136719 101.097656 338.539062 122.5625 338.539062 C 144.03125 338.539062 161.433594 321.136719 161.433594 299.667969 C 161.433594 278.203125 144.03125 260.800781 122.5625 260.800781 Z M 122.5625 260.800781 " clip-rule="nonzero"/></clipPath><clipPath id="1991308c88"><path d="M 101.539062 404.628906 L 141.339844 404.628906 L 141.339844 444.433594 L 101.539062 444.433594 Z M 101.539062 404.628906 " clip-rule="nonzero"/></clipPath><clipPath id="d54484b789"><path d="M 121.441406 404.628906 C 110.449219 404.628906 101.539062 413.539062 101.539062 424.53125 C 101.539062 435.523438 110.449219 444.433594 121.441406 444.433594 C 132.429688 444.433594 141.339844 435.523438 141.339844 424.53125 C 141.339844 413.539062 132.429688 404.628906 121.441406 404.628906 Z M 121.441406 404.628906 " clip-rule="nonzero"/></clipPath><clipPath id="aaa784cc9a"><path d="M 101.539062 208.253906 L 141.339844 208.253906 L 141.339844 248.058594 L 101.539062 248.058594 Z M 101.539062 208.253906 " clip-rule="nonzero"/></clipPath><clipPath id="8bfcaa9f27"><path d="M 121.441406 208.253906 C 110.449219 208.253906 101.539062 217.164062 101.539062 228.15625 C 101.539062 239.148438 110.449219 248.058594 121.441406 248.058594 C 132.429688 248.058594 141.339844 239.148438 141.339844 228.15625 C 141.339844 217.164062 132.429688 208.253906 121.441406 208.253906 Z M 121.441406 208.253906 " clip-rule="nonzero"/></clipPath><clipPath id="524c666ab0"><path d="M 101.539062 456.984375 L 141.339844 456.984375 L 141.339844 496.789062 L 101.539062 496.789062 Z M 101.539062 456.984375 " clip-rule="nonzero"/></clipPath><clipPath id="bc25c8fec1"><path d="M 121.441406 456.984375 C 110.449219 456.984375 101.539062 465.894531 101.539062 476.886719 C 101.539062 487.878906 110.449219 496.789062 121.441406 496.789062 C 132.429688 496.789062 141.339844 487.878906 141.339844 476.886719 C 141.339844 465.894531 132.429688 456.984375 121.441406 456.984375 Z M 121.441406 456.984375 " clip-rule="nonzero"/></clipPath><clipPath id="3988fa08f3"><path d="M 101.539062 352.082031 L 141.339844 352.082031 L 141.339844 391.882812 L 101.539062 391.882812 Z M 101.539062 352.082031 " clip-rule="nonzero"/></clipPath><clipPath id="173d62b180"><path d="M 121.441406 352.082031 C 110.449219 352.082031 101.539062 360.992188 101.539062 371.984375 C 101.539062 382.972656 110.449219 391.882812 121.441406 391.882812 C 132.429688 391.882812 141.339844 382.972656 141.339844 371.984375 C 141.339844 360.992188 132.429688 352.082031 121.441406 352.082031 Z M 121.441406 352.082031 " clip-rule="nonzero"/></clipPath><clipPath id="ed1b2a6138"><path d="M 101.539062 561.941406 L 141.339844 561.941406 L 141.339844 601.746094 L 101.539062 601.746094 Z M 101.539062 561.941406 " clip-rule="nonzero"/></clipPath><clipPath id="0e3e798bf2"><path d="M 121.441406 561.941406 C 110.449219 561.941406 101.539062 570.851562 101.539062 581.84375 C 101.539062 592.835938 110.449219 601.746094 121.441406 601.746094 C 132.429688 601.746094 141.339844 592.835938 141.339844 581.84375 C 141.339844 570.851562 132.429688 561.941406 121.441406 561.941406 Z M 121.441406 561.941406 " clip-rule="nonzero"/></clipPath><clipPath id="3116ee9e12"><path d="M 101.539062 509.394531 L 141.339844 509.394531 L 141.339844 549.199219 L 101.539062 549.199219 Z M 101.539062 509.394531 " clip-rule="nonzero"/></clipPath><clipPath id="bbcb0ae572"><path d="M 121.441406 509.394531 C 110.449219 509.394531 101.539062 518.304688 101.539062 529.296875 C 101.539062 540.289062 110.449219 549.199219 121.441406 549.199219 C 132.429688 549.199219 141.339844 540.289062 141.339844 529.296875 C 141.339844 518.304688 132.429688 509.394531 121.441406 509.394531 Z M 121.441406 509.394531 " clip-rule="nonzero"/></clipPath></defs><g clip-path="url(#3f0fa7f7b8)"><path fill="#2e2e2e" d="M 0 0.199219 L 242.878906 0.199219 L 242.878906 809.484375 L 0 809.484375 Z M 0 0.199219 " fill-opacity="1" fill-rule="nonzero"/></g><path fill="#ffffff" d="M 122.5625 237.304688 L 122.5625 239.554688 L 120.3125 239.554688 L 120.3125 237.304688 M 122.5625 241.804688 L 122.5625 244.050781 L 120.3125 244.050781 L 120.3125 241.804688 M 122.5625 246.300781 L 122.5625 248.550781 L 120.3125 248.550781 L 120.3125 246.300781 M 122.5625 250.796875 L 122.5625 253.046875 L 120.3125 253.046875 L 120.3125 250.796875 M 122.5625 255.296875 L 122.5625 257.546875 L 120.3125 257.546875 L 120.3125 255.296875 M 122.5625 259.792969 L 122.5625 262.042969 L 120.3125 262.042969 L 120.3125 259.792969 M 122.5625 264.292969 L 122.5625 266.539062 L 120.3125 266.539062 L 120.3125 264.292969 M 122.5625 268.789062 L 122.5625 271.039062 L 120.3125 271.039062 L 120.3125 268.789062 M 122.5625 273.289062 L 122.5625 275.535156 L 120.3125 275.535156 L 120.3125 273.289062 M 122.5625 277.785156 L 122.5625 280.035156 L 120.3125 280.035156 L 120.3125 277.785156 M 122.5625 282.28125 L 122.5625 284.53125 L 120.3125 284.53125 L 120.3125 282.28125 M 122.5625 286.78125 L 122.5625 289.03125 L 120.3125 289.03125 L 120.3125 286.78125 M 122.5625 291.277344 L 122.5625 293.527344 L 120.3125 293.527344 L 120.3125 291.277344 M 122.5625 295.777344 L 122.5625 298.023438 L 120.3125 298.023438 L 120.3125 295.777344 M 122.5625 300.273438 L 122.5625 302.523438 L 120.3125 302.523438 L 120.3125 300.273438 M 122.5625 304.773438 L 122.5625 307.019531 L 120.3125 307.019531 L 120.3125 304.773438 M 122.5625 309.269531 L 122.5625 311.519531 L 120.3125 311.519531 L 120.3125 309.269531 M 122.5625 313.769531 L 122.5625 316.015625 L 120.3125 316.015625 L 120.3125 313.769531 M 122.5625 318.265625 L 122.5625 320.515625 L 120.3125 320.515625 L 120.3125 318.265625 M 122.5625 322.761719 L 122.5625 325.011719 L 120.3125 325.011719 L 120.3125 322.761719 M 122.5625 327.261719 L 122.5625 329.511719 L 120.3125 329.511719 L 120.3125 327.261719 M 122.5625 331.757812 L 122.5625 334.007812 L 120.3125 334.007812 L 120.3125 331.757812 M 122.5625 336.257812 L 122.5625 338.503906 L 120.3125 338.503906 L 120.3125 336.257812 M 122.5625 340.753906 L 122.5625 343.003906 L 120.3125 343.003906 L 120.3125 340.753906 M 122.5625 345.253906 L 122.5625 347.5 L 120.3125 347.5 L 120.3125 345.253906 M 122.5625 349.75 L 122.5625 352 L 120.3125 352 L 120.3125 349.75 M 122.5625 354.246094 L 122.5625 356.496094 L 120.3125 356.496094 L 120.3125 354.246094 M 122.5625 358.746094 L 122.5625 360.996094 L 120.3125 360.996094 L 120.3125 358.746094 M 122.5625 363.242188 L 122.5625 365.492188 L 120.3125 365.492188 L 120.3125 363.242188 M 122.5625 367.742188 L 122.5625 369.988281 L 120.3125 369.988281 L 120.3125 367.742188 M 122.5625 372.238281 L 122.5625 374.488281 L 120.3125 374.488281 L 120.3125 372.238281 M 122.5625 376.738281 L 122.5625 378.984375 L 120.3125 378.984375 L 120.3125 376.738281 M 122.5625 381.234375 L 122.5625 383.484375 L 120.3125 383.484375 L 120.3125 381.234375 M 122.5625 385.730469 L 122.5625 387.980469 L 120.3125 387.980469 L 120.3125 385.730469 M 122.5625 390.230469 L 122.5625 392.480469 L 120.3125 392.480469 L 120.3125 390.230469 M 122.5625 394.726562 L 122.5625 396.976562 L 120.3125 396.976562 L 120.3125 394.726562 M 122.5625 399.226562 L 122.5625 401.472656 L 120.3125 401.472656 L 120.3125 399.226562 M 122.5625 403.722656 L 122.5625 405.972656 L 120.3125 405.972656 L 120.3125 403.722656 M 122.5625 408.222656 L 122.5625 410.46875 L 120.3125 410.46875 L 120.3125 408.222656 M 122.5625 412.71875 L 122.5625 414.96875 L 120.3125 414.96875 L 120.3125 412.71875 M 122.5625 417.214844 L 122.5625 419.464844 L 120.3125 419.464844 L 120.3125 417.214844 M 122.5625 421.714844 L 122.5625 423.964844 L 120.3125 423.964844 L 120.3125 421.714844 M 122.5625 426.210938 L 122.5625 428.460938 L 120.3125 428.460938 L 120.3125 426.210938 M 122.5625 430.710938 L 122.5625 432.957031 L 120.3125 432.957031 L 120.3125 430.710938 M 122.5625 435.207031 L 122.5625 437.457031 L 120.3125 437.457031 L 120.3125 435.207031 M 122.5625 439.707031 L 122.5625 441.953125 L 120.3125 441.953125 L 120.3125 439.707031 M 122.5625 444.203125 L 122.5625 446.453125 L 120.3125 446.453125 L 120.3125 444.203125 M 122.5625 448.699219 L 122.5625 450.949219 L 120.3125 450.949219 L 120.3125 448.699219 M 122.5625 453.199219 L 122.5625 455.449219 L 120.3125 455.449219 L 120.3125 453.199219 M 122.5625 457.695312 L 122.5625 459.945312 L 120.3125 459.945312 L 120.3125 457.695312 M 122.5625 462.195312 L 122.5625 464.441406 L 120.3125 464.441406 L 120.3125 462.195312 M 122.5625 466.691406 L 122.5625 468.941406 L 120.3125 468.941406 L 120.3125 466.691406 M 122.5625 471.191406 L 122.5625 473.4375 L 120.3125 473.4375 L 120.3125 471.191406 M 122.5625 475.6875 L 122.5625 477.9375 L 120.3125 477.9375 L 120.3125 475.6875 M 122.5625 480.183594 L 122.5625 482.433594 L 120.3125 482.433594 L 120.3125 480.183594 M 122.5625 484.683594 L 122.5625 486.933594 L 120.3125 486.933594 L 120.3125 484.683594 M 122.5625 489.179688 L 122.5625 491.429688 L 120.3125 491.429688 L 120.3125 489.179688 M 122.5625 493.679688 L 122.5625 495.925781 L 120.3125 495.925781 L 120.3125 493.679688 M 122.5625 498.175781 L 122.5625 500.425781 L 120.3125 500.425781 L 120.3125 498.175781 M 122.5625 502.675781 L 122.5625 504.921875 L 120.3125 504.921875 L 120.3125 502.675781 M 122.5625 507.171875 L 122.5625 509.421875 L 120.3125 509.421875 L 120.3125 507.171875 M 122.5625 511.667969 L 122.5625 513.917969 L 120.3125 513.917969 L 120.3125 511.667969 M 122.5625 516.167969 L 122.5625 518.417969 L 120.3125 518.417969 L 120.3125 516.167969 M 122.5625 520.664062 L 122.5625 522.914062 L 120.3125 522.914062 L 120.3125 520.664062 M 122.5625 525.164062 L 122.5625 527.410156 L 120.3125 527.410156 L 120.3125 525.164062 M 122.5625 529.660156 L 122.5625 531.910156 L 120.3125 531.910156 L 120.3125 529.660156 M 122.5625 534.160156 L 122.5625 536.40625 L 120.3125 536.40625 L 120.3125 534.160156 M 122.5625 538.65625 L 122.5625 540.90625 L 120.3125 540.90625 L 120.3125 538.65625 M 122.5625 543.152344 L 122.5625 545.402344 L 120.3125 545.402344 L 120.3125 543.152344 M 122.5625 547.652344 L 122.5625 549.902344 L 120.3125 549.902344 L 120.3125 547.652344 M 122.5625 552.148438 L 122.5625 554.398438 L 120.3125 554.398438 L 120.3125 552.148438 M 122.5625 556.648438 L 122.5625 558.894531 L 120.3125 558.894531 L 120.3125 556.648438 M 122.5625 561.144531 L 122.5625 563.394531 L 120.3125 563.394531 L 120.3125 561.144531 M 122.5625 565.644531 L 122.5625 567.890625 L 120.3125 567.890625 L 120.3125 565.644531 M 122.5625 570.140625 L 122.5625 572.390625 L 120.3125 572.390625 L 120.3125 570.140625 M 122.5625 574.640625 L 122.5625 576.886719 L 120.3125 576.886719 L 120.3125 574.640625 M 122.5625 579.136719 L 122.5625 581.386719 L 120.3125 581.386719 L 120.3125 579.136719 M 122.5625 583.632812 L 122.5625 585.882812 L 120.3125 585.882812 L 120.3125 583.632812 M 122.5625 588.132812 L 122.5625 590.382812 L 120.3125 590.382812 L 120.3125 588.132812 " fill-opacity="1" fill-rule="nonzero"/><g clip-path="url(#cc91dc8995)"><g clip-path="url(#33f368a23c)"><path fill="#1a8fd2" d="M 83.695312 260.800781 L 161.433594 260.800781 L 161.433594 338.539062 L 83.695312 338.539062 Z M 83.695312 260.800781 " fill-opacity="1" fill-rule="nonzero"/></g></g><g fill="#fffefe" fill-opacity="1"><g transform="translate(115.03915, 309.526504)"><g><path d="M 0.9375 -1.53125 C 0.9375 -2.59375 1.050781 -3.488281 1.28125 -4.21875 C 1.519531 -4.945312 1.898438 -5.609375 2.421875 -6.203125 C 2.953125 -6.804688 3.703125 -7.457031 4.671875 -8.15625 L 7.234375 -10.015625 C 7.929688 -10.515625 8.472656 -10.945312 8.859375 -11.3125 C 9.253906 -11.6875 9.550781 -12.070312 9.75 -12.46875 C 9.945312 -12.875 10.046875 -13.335938 10.046875 -13.859375 C 10.046875 -14.640625 9.804688 -15.242188 9.328125 -15.671875 C 8.859375 -16.097656 8.148438 -16.3125 7.203125 -16.3125 C 6.296875 -16.3125 5.484375 -16.09375 4.765625 -15.65625 C 4.054688 -15.21875 3.46875 -14.625 3 -13.875 L 2.75 -13.8125 L 0.65625 -16.15625 C 1.34375 -17.175781 2.238281 -17.992188 3.34375 -18.609375 C 4.445312 -19.234375 5.785156 -19.546875 7.359375 -19.546875 C 8.796875 -19.546875 10 -19.304688 10.96875 -18.828125 C 11.9375 -18.347656 12.65625 -17.695312 13.125 -16.875 C 13.59375 -16.0625 13.828125 -15.125 13.828125 -14.0625 C 13.828125 -13.144531 13.632812 -12.304688 13.25 -11.546875 C 12.875 -10.796875 12.347656 -10.097656 11.671875 -9.453125 C 10.992188 -8.816406 10.128906 -8.128906 9.078125 -7.390625 L 6.796875 -5.796875 C 6.109375 -5.304688 5.628906 -4.867188 5.359375 -4.484375 C 5.085938 -4.097656 4.953125 -3.664062 4.953125 -3.1875 L 13.65625 -3.1875 L 13.65625 0 L 0.9375 0 Z M 0.9375 -1.53125 "/></g></g></g><g clip-path="url(#1991308c88)"><g clip-path="url(#d54484b789)"><path fill="#fffefe" d="M 101.539062 404.628906 L 141.339844 404.628906 L 141.339844 444.433594 L 101.539062 444.433594 Z M 101.539062 404.628906 " fill-opacity="1" fill-rule="nonzero"/></g></g><g fill="#2e2e2e" fill-opacity="1"><g transform="translate(116.144384, 430.865458)"><g><path d="M 8.234375 0 L 5.9375 0 L 5.9375 -2.640625 L 0.421875 -2.640625 L 0.421875 -4.5625 L 5.171875 -12.125 L 8.234375 -12.125 L 8.234375 -4.5625 L 10.09375 -4.5625 L 10.09375 -2.640625 L 8.234375 -2.640625 Z M 2.875 -4.75 L 2.9375 -4.5625 L 5.9375 -4.5625 L 5.9375 -9.265625 L 5.75 -9.296875 Z M 2.875 -4.75 "/></g></g></g><g clip-path="url(#aaa784cc9a)"><g clip-path="url(#8bfcaa9f27)"><path fill="#fffefe" d="M 101.539062 208.253906 L 141.339844 208.253906 L 141.339844 248.058594 L 101.539062 248.058594 Z M 101.539062 208.253906 " fill-opacity="1" fill-rule="nonzero"/></g></g><g fill="#2e2e2e" fill-opacity="1"><g transform="translate(116.952578, 234.49059)"><g><path d="M 0.640625 0 L 0.640625 -1.984375 L 3.5625 -1.984375 L 3.5625 -9.53125 L 3.375 -9.578125 C 2.957031 -9.378906 2.546875 -9.222656 2.140625 -9.109375 C 1.742188 -8.992188 1.289062 -8.898438 0.78125 -8.828125 L 0.78125 -10.875 C 2.125 -11.15625 3.207031 -11.570312 4.03125 -12.125 L 5.9375 -12.125 L 5.9375 -1.984375 L 8.546875 -1.984375 L 8.546875 0 Z M 0.640625 0 "/></g></g></g><g clip-path="url(#524c666ab0)"><g clip-path="url(#bc25c8fec1)"><path fill="#fffefe" d="M 101.539062 456.984375 L 141.339844 456.984375 L 141.339844 496.789062 L 101.539062 496.789062 Z M 101.539062 456.984375 " fill-opacity="1" fill-rule="nonzero"/></g></g><g fill="#2e2e2e" fill-opacity="1"><g transform="translate(116.320078, 483.221506)"><g><path d="M 5.046875 0.171875 C 3.835938 0.171875 2.878906 -0.0820312 2.171875 -0.59375 C 1.460938 -1.101562 1 -1.8125 0.78125 -2.71875 L 2.59375 -3.53125 L 2.78125 -3.484375 C 2.957031 -2.953125 3.222656 -2.550781 3.578125 -2.28125 C 3.929688 -2.007812 4.414062 -1.875 5.03125 -1.875 C 5.65625 -1.875 6.140625 -2.050781 6.484375 -2.40625 C 6.828125 -2.769531 7 -3.304688 7 -4.015625 C 7 -4.722656 6.828125 -5.257812 6.484375 -5.625 C 6.148438 -5.988281 5.6875 -6.171875 5.09375 -6.171875 C 4.644531 -6.171875 4.269531 -6.070312 3.96875 -5.875 C 3.664062 -5.6875 3.410156 -5.40625 3.203125 -5.03125 L 1.234375 -5.171875 L 1.46875 -12.125 L 8.6875 -12.125 L 8.6875 -10.109375 L 3.484375 -10.109375 L 3.375 -7.015625 L 3.546875 -6.984375 C 3.828125 -7.347656 4.164062 -7.625 4.5625 -7.8125 C 4.957031 -8.007812 5.429688 -8.109375 5.984375 -8.109375 C 6.671875 -8.109375 7.269531 -7.953125 7.78125 -7.640625 C 8.300781 -7.335938 8.703125 -6.882812 8.984375 -6.28125 C 9.265625 -5.675781 9.40625 -4.9375 9.40625 -4.0625 C 9.40625 -3.175781 9.234375 -2.414062 8.890625 -1.78125 C 8.554688 -1.144531 8.0625 -0.660156 7.40625 -0.328125 C 6.757812 0.00390625 5.972656 0.171875 5.046875 0.171875 Z M 5.046875 0.171875 "/></g></g></g><g clip-path="url(#3988fa08f3)"><g clip-path="url(#173d62b180)"><path fill="#fffefe" d="M 101.539062 352.082031 L 141.339844 352.082031 L 141.339844 391.882812 L 101.539062 391.882812 Z M 101.539062 352.082031 " fill-opacity="1" fill-rule="nonzero"/></g></g><g fill="#2e2e2e" fill-opacity="1"><g transform="translate(116.413782, 378.3184)"><g><path d="M 4.9375 0.171875 C 3.644531 0.171875 2.613281 -0.0976562 1.84375 -0.640625 C 1.082031 -1.191406 0.597656 -1.972656 0.390625 -2.984375 L 2.21875 -3.828125 L 2.40625 -3.796875 C 2.613281 -3.128906 2.90625 -2.640625 3.28125 -2.328125 C 3.65625 -2.023438 4.179688 -1.875 4.859375 -1.875 C 5.515625 -1.875 6.007812 -2.023438 6.34375 -2.328125 C 6.6875 -2.628906 6.859375 -3.070312 6.859375 -3.65625 C 6.859375 -4.226562 6.6875 -4.664062 6.34375 -4.96875 C 6.007812 -5.269531 5.515625 -5.421875 4.859375 -5.421875 L 3.03125 -5.421875 L 3.03125 -7.296875 L 4.625 -7.296875 C 5.164062 -7.296875 5.597656 -7.429688 5.921875 -7.703125 C 6.242188 -7.972656 6.40625 -8.359375 6.40625 -8.859375 C 6.40625 -9.359375 6.253906 -9.734375 5.953125 -9.984375 C 5.648438 -10.234375 5.234375 -10.359375 4.703125 -10.359375 C 4.160156 -10.359375 3.679688 -10.226562 3.265625 -9.96875 C 2.847656 -9.71875 2.507812 -9.378906 2.25 -8.953125 L 2.0625 -8.921875 L 0.796875 -10.390625 C 1.222656 -10.960938 1.769531 -11.421875 2.4375 -11.765625 C 3.113281 -12.117188 3.910156 -12.296875 4.828125 -12.296875 C 6.109375 -12.296875 7.082031 -12.03125 7.75 -11.5 C 8.414062 -10.96875 8.75 -10.222656 8.75 -9.265625 C 8.75 -8.679688 8.613281 -8.179688 8.34375 -7.765625 C 8.070312 -7.359375 7.679688 -7.003906 7.171875 -6.703125 L 7.171875 -6.53125 C 8.566406 -6.039062 9.265625 -5.046875 9.265625 -3.546875 C 9.265625 -2.796875 9.101562 -2.140625 8.78125 -1.578125 C 8.46875 -1.023438 7.988281 -0.59375 7.34375 -0.28125 C 6.695312 0.0195312 5.894531 0.171875 4.9375 0.171875 Z M 4.9375 0.171875 "/></g></g></g><g clip-path="url(#ed1b2a6138)"><g clip-path="url(#0e3e798bf2)"><path fill="#fffefe" d="M 101.539062 561.941406 L 141.339844 561.941406 L 141.339844 601.746094 L 101.539062 601.746094 Z M 101.539062 561.941406 " fill-opacity="1" fill-rule="nonzero"/></g></g><g fill="#2e2e2e" fill-opacity="1"><g transform="translate(117.128273, 588.180176)"><g><path d="M 4.03125 0 L 1.578125 0 L 5.765625 -9.9375 L 5.71875 -10.109375 L 0.328125 -10.109375 L 0.328125 -12.125 L 8.1875 -12.125 L 8.1875 -10 Z M 4.03125 0 "/></g></g></g><g clip-path="url(#3116ee9e12)"><g clip-path="url(#bbcb0ae572)"><path fill="#fffefe" d="M 101.539062 509.394531 L 141.339844 509.394531 L 141.339844 549.199219 L 101.539062 549.199219 Z M 101.539062 509.394531 " fill-opacity="1" fill-rule="nonzero"/></g></g><g fill="#2e2e2e" fill-opacity="1"><g transform="translate(115.921838, 535.633087)"><g><path d="M 5.796875 0.171875 C 4.878906 0.171875 4.0625 -0.0351562 3.34375 -0.453125 C 2.632812 -0.878906 2.066406 -1.546875 1.640625 -2.453125 C 1.222656 -3.367188 1.015625 -4.535156 1.015625 -5.953125 C 1.015625 -7.390625 1.234375 -8.582031 1.671875 -9.53125 C 2.117188 -10.476562 2.722656 -11.175781 3.484375 -11.625 C 4.253906 -12.070312 5.132812 -12.296875 6.125 -12.296875 C 6.945312 -12.296875 7.65625 -12.175781 8.25 -11.9375 C 8.84375 -11.695312 9.304688 -11.347656 9.640625 -10.890625 L 8.46875 -9.375 L 8.265625 -9.375 C 7.753906 -9.976562 7.039062 -10.28125 6.125 -10.28125 C 4.40625 -10.28125 3.523438 -9.019531 3.484375 -6.5 L 3.65625 -6.4375 C 3.9375 -6.957031 4.304688 -7.351562 4.765625 -7.625 C 5.234375 -7.894531 5.816406 -8.03125 6.515625 -8.03125 C 7.265625 -8.03125 7.910156 -7.867188 8.453125 -7.546875 C 9.003906 -7.234375 9.425781 -6.78125 9.71875 -6.1875 C 10.019531 -5.601562 10.171875 -4.90625 10.171875 -4.09375 C 10.171875 -3.207031 9.992188 -2.441406 9.640625 -1.796875 C 9.285156 -1.160156 8.78125 -0.671875 8.125 -0.328125 C 7.46875 0.00390625 6.691406 0.171875 5.796875 0.171875 Z M 5.75 -1.875 C 6.375 -1.875 6.863281 -2.054688 7.21875 -2.421875 C 7.570312 -2.796875 7.75 -3.3125 7.75 -3.96875 C 7.75 -4.632812 7.570312 -5.148438 7.21875 -5.515625 C 6.863281 -5.890625 6.375 -6.078125 5.75 -6.078125 C 5.34375 -6.078125 4.984375 -5.988281 4.671875 -5.8125 C 4.367188 -5.644531 4.132812 -5.398438 3.96875 -5.078125 C 3.800781 -4.765625 3.71875 -4.394531 3.71875 -3.96875 C 3.71875 -3.320312 3.894531 -2.8125 4.25 -2.4375 C 4.613281 -2.0625 5.113281 -1.875 5.75 -1.875 Z M 5.75 -1.875 "/></g></g></g></svg>