<svg xmlns="http://www.w3.org/2000/svg" xmlns:xlink="http://www.w3.org/1999/xlink" width="324" zoomAndPan="magnify" viewBox="0 0 242.87999 809.999993" height="1080" preserveAspectRatio="xMidYMid meet" version="1.0"><defs><g/><clipPath id="b5d27ab532"><path d="M 0 0.199219 L 242.761719 0.199219 L 242.761719 809.800781 L 0 809.800781 Z M 0 0.199219 " clip-rule="nonzero"/></clipPath><clipPath id="89cc72c697"><path d="M 83.695312 313.746094 L 161.433594 313.746094 L 161.433594 391.484375 L 83.695312 391.484375 Z M 83.695312 313.746094 " clip-rule="nonzero"/></clipPath><clipPath id="d67e243063"><path d="M 122.5625 313.746094 C 101.097656 313.746094 83.695312 331.148438 83.695312 352.617188 C 83.695312 374.082031 101.097656 391.484375 122.5625 391.484375 C 144.03125 391.484375 161.433594 374.082031 161.433594 352.617188 C 161.433594 331.148438 144.03125 313.746094 122.5625 313.746094 Z M 122.5625 313.746094 " clip-rule="nonzero"/></clipPath><clipPath id="dbde514c3c"><path d="M 101.539062 404.230469 L 141.339844 404.230469 L 141.339844 444.03125 L 101.539062 444.03125 Z M 101.539062 404.230469 " clip-rule="nonzero"/></clipPath><clipPath id="5672c666b7"><path d="M 121.441406 404.230469 C 110.449219 404.230469 101.539062 413.140625 101.539062 424.128906 C 101.539062 435.121094 110.449219 444.03125 121.441406 444.03125 C 132.429688 444.03125 141.339844 435.121094 141.339844 424.128906 C 141.339844 413.140625 132.429688 404.230469 121.441406 404.230469 Z M 121.441406 404.230469 " clip-rule="nonzero"/></clipPath><clipPath id="7b1b2bd584"><path d="M 101.539062 208.652344 L 141.339844 208.652344 L 141.339844 248.457031 L 101.539062 248.457031 Z M 101.539062 208.652344 " clip-rule="nonzero"/></clipPath><clipPath id="9cb03de8bb"><path d="M 121.441406 208.652344 C 110.449219 208.652344 101.539062 217.5625 101.539062 228.554688 C 101.539062 239.546875 110.449219 248.457031 121.441406 248.457031 C 132.429688 248.457031 141.339844 239.546875 141.339844 228.554688 C 141.339844 217.5625 132.429688 208.652344 121.441406 208.652344 Z M 121.441406 208.652344 " clip-rule="nonzero"/></clipPath><clipPath id="486b323ee6"><path d="M 101.539062 456.585938 L 141.339844 456.585938 L 141.339844 496.386719 L 101.539062 496.386719 Z M 101.539062 456.585938 " clip-rule="nonzero"/></clipPath><clipPath id="b64e9f0748"><path d="M 121.441406 456.585938 C 110.449219 456.585938 101.539062 465.496094 101.539062 476.488281 C 101.539062 487.476562 110.449219 496.386719 121.441406 496.386719 C 132.429688 496.386719 141.339844 487.476562 141.339844 476.488281 C 141.339844 465.496094 132.429688 456.585938 121.441406 456.585938 Z M 121.441406 456.585938 " clip-rule="nonzero"/></clipPath><clipPath id="40ead96b0e"><path d="M 101.539062 261.199219 L 141.339844 261.199219 L 141.339844 301.003906 L 101.539062 301.003906 Z M 101.539062 261.199219 " clip-rule="nonzero"/></clipPath><clipPath id="8acb07309a"><path d="M 121.441406 261.199219 C 110.449219 261.199219 101.539062 270.109375 101.539062 281.101562 C 101.539062 292.09375 110.449219 301.003906 121.441406 301.003906 C 132.429688 301.003906 141.339844 292.09375 141.339844 281.101562 C 141.339844 270.109375 132.429688 261.199219 121.441406 261.199219 Z M 121.441406 261.199219 " clip-rule="nonzero"/></clipPath><clipPath id="8cf0faeff8"><path d="M 101.539062 561.542969 L 141.339844 561.542969 L 141.339844 601.347656 L 101.539062 601.347656 Z M 101.539062 561.542969 " clip-rule="nonzero"/></clipPath><clipPath id="55aa206265"><path d="M 121.441406 561.542969 C 110.449219 561.542969 101.539062 570.453125 101.539062 581.445312 C 101.539062 592.4375 110.449219 601.347656 121.441406 601.347656 C 132.429688 601.347656 141.339844 592.4375 141.339844 581.445312 C 141.339844 570.453125 132.429688 561.542969 121.441406 561.542969 Z M 121.441406 561.542969 " clip-rule="nonzero"/></clipPath><clipPath id="96c10edd28"><path d="M 101.539062 508.996094 L 141.339844 508.996094 L 141.339844 548.800781 L 101.539062 548.800781 Z M 101.539062 508.996094 " clip-rule="nonzero"/></clipPath><clipPath id="6cdda30857"><path d="M 121.441406 508.996094 C 110.449219 508.996094 101.539062 517.90625 101.539062 528.898438 C 101.539062 539.890625 110.449219 548.800781 121.441406 548.800781 C 132.429688 548.800781 141.339844 539.890625 141.339844 528.898438 C 141.339844 517.90625 132.429688 508.996094 121.441406 508.996094 Z M 121.441406 508.996094 " clip-rule="nonzero"/></clipPath></defs><g clip-path="url(#b5d27ab532)"><path fill="#2e2e2e" d="M 0 0.199219 L 242.878906 0.199219 L 242.878906 809.484375 L 0 809.484375 Z M 0 0.199219 " fill-opacity="1" fill-rule="nonzero"/></g><path fill="#ffffff" d="M 122.5625 236.90625 L 122.5625 239.15625 L 120.3125 239.15625 L 120.3125 236.90625 M 122.5625 241.402344 L 122.5625 243.652344 L 120.3125 243.652344 L 120.3125 241.402344 M 122.5625 245.902344 L 122.5625 248.152344 L 120.3125 248.152344 L 120.3125 245.902344 M 122.5625 250.398438 L 122.5625 252.648438 L 120.3125 252.648438 L 120.3125 250.398438 M 122.5625 254.898438 L 122.5625 257.144531 L 120.3125 257.144531 L 120.3125 254.898438 M 122.5625 259.394531 L 122.5625 261.644531 L 120.3125 261.644531 L 120.3125 259.394531 M 122.5625 263.894531 L 122.5625 266.140625 L 120.3125 266.140625 L 120.3125 263.894531 M 122.5625 268.390625 L 122.5625 270.640625 L 120.3125 270.640625 L 120.3125 268.390625 M 122.5625 272.886719 L 122.5625 275.136719 L 120.3125 275.136719 L 120.3125 272.886719 M 122.5625 277.386719 L 122.5625 279.636719 L 120.3125 279.636719 L 120.3125 277.386719 M 122.5625 281.882812 L 122.5625 284.132812 L 120.3125 284.132812 L 120.3125 281.882812 M 122.5625 286.382812 L 122.5625 288.628906 L 120.3125 288.628906 L 120.3125 286.382812 M 122.5625 290.878906 L 122.5625 293.128906 L 120.3125 293.128906 L 120.3125 290.878906 M 122.5625 295.378906 L 122.5625 297.625 L 120.3125 297.625 L 120.3125 295.378906 M 122.5625 299.875 L 122.5625 302.125 L 120.3125 302.125 L 120.3125 299.875 M 122.5625 304.371094 L 122.5625 306.621094 L 120.3125 306.621094 L 120.3125 304.371094 M 122.5625 308.871094 L 122.5625 311.121094 L 120.3125 311.121094 L 120.3125 308.871094 M 122.5625 313.367188 L 122.5625 315.617188 L 120.3125 315.617188 L 120.3125 313.367188 M 122.5625 317.867188 L 122.5625 320.113281 L 120.3125 320.113281 L 120.3125 317.867188 M 122.5625 322.363281 L 122.5625 324.613281 L 120.3125 324.613281 L 120.3125 322.363281 M 122.5625 326.863281 L 122.5625 329.109375 L 120.3125 329.109375 L 120.3125 326.863281 M 122.5625 331.359375 L 122.5625 333.609375 L 120.3125 333.609375 L 120.3125 331.359375 M 122.5625 335.855469 L 122.5625 338.105469 L 120.3125 338.105469 L 120.3125 335.855469 M 122.5625 340.355469 L 122.5625 342.605469 L 120.3125 342.605469 L 120.3125 340.355469 M 122.5625 344.851562 L 122.5625 347.101562 L 120.3125 347.101562 L 120.3125 344.851562 M 122.5625 349.351562 L 122.5625 351.597656 L 120.3125 351.597656 L 120.3125 349.351562 M 122.5625 353.847656 L 122.5625 356.097656 L 120.3125 356.097656 L 120.3125 353.847656 M 122.5625 358.347656 L 122.5625 360.59375 L 120.3125 360.59375 L 120.3125 358.347656 M 122.5625 362.84375 L 122.5625 365.09375 L 120.3125 365.09375 L 120.3125 362.84375 M 122.5625 367.339844 L 122.5625 369.589844 L 120.3125 369.589844 L 120.3125 367.339844 M 122.5625 371.839844 L 122.5625 374.089844 L 120.3125 374.089844 L 120.3125 371.839844 M 122.5625 376.335938 L 122.5625 378.585938 L 120.3125 378.585938 L 120.3125 376.335938 M 122.5625 380.835938 L 122.5625 383.082031 L 120.3125 383.082031 L 120.3125 380.835938 M 122.5625 385.332031 L 122.5625 387.582031 L 120.3125 387.582031 L 120.3125 385.332031 M 122.5625 389.832031 L 122.5625 392.078125 L 120.3125 392.078125 L 120.3125 389.832031 M 122.5625 394.328125 L 122.5625 396.578125 L 120.3125 396.578125 L 120.3125 394.328125 M 122.5625 398.824219 L 122.5625 401.074219 L 120.3125 401.074219 L 120.3125 398.824219 M 122.5625 403.324219 L 122.5625 405.574219 L 120.3125 405.574219 L 120.3125 403.324219 M 122.5625 407.820312 L 122.5625 410.070312 L 120.3125 410.070312 L 120.3125 407.820312 M 122.5625 412.320312 L 122.5625 414.566406 L 120.3125 414.566406 L 120.3125 412.320312 M 122.5625 416.816406 L 122.5625 419.066406 L 120.3125 419.066406 L 120.3125 416.816406 M 122.5625 421.316406 L 122.5625 423.5625 L 120.3125 423.5625 L 120.3125 421.316406 M 122.5625 425.8125 L 122.5625 428.0625 L 120.3125 428.0625 L 120.3125 425.8125 M 122.5625 430.308594 L 122.5625 432.558594 L 120.3125 432.558594 L 120.3125 430.308594 M 122.5625 434.808594 L 122.5625 437.058594 L 120.3125 437.058594 L 120.3125 434.808594 M 122.5625 439.304688 L 122.5625 441.554688 L 120.3125 441.554688 L 120.3125 439.304688 M 122.5625 443.804688 L 122.5625 446.050781 L 120.3125 446.050781 L 120.3125 443.804688 M 122.5625 448.300781 L 122.5625 450.550781 L 120.3125 450.550781 L 120.3125 448.300781 M 122.5625 452.800781 L 122.5625 455.046875 L 120.3125 455.046875 L 120.3125 452.800781 M 122.5625 457.296875 L 122.5625 459.546875 L 120.3125 459.546875 L 120.3125 457.296875 M 122.5625 461.796875 L 122.5625 464.042969 L 120.3125 464.042969 L 120.3125 461.796875 M 122.5625 466.292969 L 122.5625 468.542969 L 120.3125 468.542969 L 120.3125 466.292969 M 122.5625 470.789062 L 122.5625 473.039062 L 120.3125 473.039062 L 120.3125 470.789062 M 122.5625 475.289062 L 122.5625 477.539062 L 120.3125 477.539062 L 120.3125 475.289062 M 122.5625 479.785156 L 122.5625 482.035156 L 120.3125 482.035156 L 120.3125 479.785156 M 122.5625 484.285156 L 122.5625 486.53125 L 120.3125 486.53125 L 120.3125 484.285156 M 122.5625 488.78125 L 122.5625 491.03125 L 120.3125 491.03125 L 120.3125 488.78125 M 122.5625 493.28125 L 122.5625 495.527344 L 120.3125 495.527344 L 120.3125 493.28125 M 122.5625 497.777344 L 122.5625 500.027344 L 120.3125 500.027344 L 120.3125 497.777344 M 122.5625 502.273438 L 122.5625 504.523438 L 120.3125 504.523438 L 120.3125 502.273438 M 122.5625 506.773438 L 122.5625 509.023438 L 120.3125 509.023438 L 120.3125 506.773438 M 122.5625 511.269531 L 122.5625 513.519531 L 120.3125 513.519531 L 120.3125 511.269531 M 122.5625 515.769531 L 122.5625 518.015625 L 120.3125 518.015625 L 120.3125 515.769531 M 122.5625 520.265625 L 122.5625 522.515625 L 120.3125 522.515625 L 120.3125 520.265625 M 122.5625 524.765625 L 122.5625 527.011719 L 120.3125 527.011719 L 120.3125 524.765625 M 122.5625 529.261719 L 122.5625 531.511719 L 120.3125 531.511719 L 120.3125 529.261719 M 122.5625 533.757812 L 122.5625 536.007812 L 120.3125 536.007812 L 120.3125 533.757812 M 122.5625 538.257812 L 122.5625 540.507812 L 120.3125 540.507812 L 120.3125 538.257812 M 122.5625 542.753906 L 122.5625 545.003906 L 120.3125 545.003906 L 120.3125 542.753906 M 122.5625 547.253906 L 122.5625 549.5 L 120.3125 549.5 L 120.3125 547.253906 M 122.5625 551.75 L 122.5625 554 L 120.3125 554 L 120.3125 551.75 M 122.5625 556.25 L 122.5625 558.496094 L 120.3125 558.496094 L 120.3125 556.25 M 122.5625 560.746094 L 122.5625 562.996094 L 120.3125 562.996094 L 120.3125 560.746094 M 122.5625 565.242188 L 122.5625 567.492188 L 120.3125 567.492188 L 120.3125 565.242188 M 122.5625 569.742188 L 122.5625 571.992188 L 120.3125 571.992188 L 120.3125 569.742188 M 122.5625 574.238281 L 122.5625 576.488281 L 120.3125 576.488281 L 120.3125 574.238281 M 122.5625 578.738281 L 122.5625 580.984375 L 120.3125 580.984375 L 120.3125 578.738281 M 122.5625 583.234375 L 122.5625 585.484375 L 120.3125 585.484375 L 120.3125 583.234375 M 122.5625 587.734375 L 122.5625 589.980469 L 120.3125 589.980469 L 120.3125 587.734375 " fill-opacity="1" fill-rule="nonzero"/><g clip-path="url(#89cc72c697)"><g clip-path="url(#d67e243063)"><path fill="#1a8fd2" d="M 83.695312 313.746094 L 161.433594 313.746094 L 161.433594 391.484375 L 83.695312 391.484375 Z M 83.695312 313.746094 " fill-opacity="1" fill-rule="nonzero"/></g></g><g fill="#fffefe" fill-opacity="1"><g transform="translate(114.582344, 362.4729)"><g><path d="M 7.859375 0.28125 C 5.785156 0.28125 4.144531 -0.15625 2.9375 -1.03125 C 1.726562 -1.90625 0.957031 -3.144531 0.625 -4.75 L 3.515625 -6.09375 L 3.828125 -6.03125 C 4.148438 -4.96875 4.609375 -4.191406 5.203125 -3.703125 C 5.804688 -3.222656 6.644531 -2.984375 7.71875 -2.984375 C 8.757812 -2.984375 9.550781 -3.222656 10.09375 -3.703125 C 10.632812 -4.179688 10.90625 -4.882812 10.90625 -5.8125 C 10.90625 -6.71875 10.632812 -7.410156 10.09375 -7.890625 C 9.550781 -8.367188 8.757812 -8.609375 7.71875 -8.609375 L 4.828125 -8.609375 L 4.828125 -11.578125 L 7.359375 -11.578125 C 8.210938 -11.578125 8.894531 -11.789062 9.40625 -12.21875 C 9.914062 -12.65625 10.171875 -13.273438 10.171875 -14.078125 C 10.171875 -14.859375 9.929688 -15.445312 9.453125 -15.84375 C 8.972656 -16.25 8.3125 -16.453125 7.46875 -16.453125 C 6.601562 -16.453125 5.835938 -16.25 5.171875 -15.84375 C 4.515625 -15.445312 3.984375 -14.90625 3.578125 -14.21875 L 3.28125 -14.171875 L 1.28125 -16.5 C 1.957031 -17.40625 2.828125 -18.140625 3.890625 -18.703125 C 4.953125 -19.265625 6.21875 -19.546875 7.6875 -19.546875 C 9.707031 -19.546875 11.25 -19.125 12.3125 -18.28125 C 13.375 -17.4375 13.90625 -16.25 13.90625 -14.71875 C 13.90625 -13.789062 13.6875 -13 13.25 -12.34375 C 12.820312 -11.695312 12.203125 -11.132812 11.390625 -10.65625 L 11.390625 -10.375 C 13.617188 -9.59375 14.734375 -8.015625 14.734375 -5.640625 C 14.734375 -4.441406 14.476562 -3.398438 13.96875 -2.515625 C 13.457031 -1.628906 12.6875 -0.941406 11.65625 -0.453125 C 10.632812 0.0351562 9.367188 0.28125 7.859375 0.28125 Z M 7.859375 0.28125 "/></g></g></g><g clip-path="url(#dbde514c3c)"><g clip-path="url(#5672c666b7)"><path fill="#fffefe" d="M 101.539062 404.230469 L 141.339844 404.230469 L 141.339844 444.03125 L 101.539062 444.03125 Z M 101.539062 404.230469 " fill-opacity="1" fill-rule="nonzero"/></g></g><g fill="#2e2e2e" fill-opacity="1"><g transform="translate(116.144384, 430.466079)"><g><path d="M 8.234375 0 L 5.9375 0 L 5.9375 -2.640625 L 0.421875 -2.640625 L 0.421875 -4.5625 L 5.171875 -12.125 L 8.234375 -12.125 L 8.234375 -4.5625 L 10.09375 -4.5625 L 10.09375 -2.640625 L 8.234375 -2.640625 Z M 2.875 -4.75 L 2.9375 -4.5625 L 5.9375 -4.5625 L 5.9375 -9.265625 L 5.75 -9.296875 Z M 2.875 -4.75 "/></g></g></g><g clip-path="url(#7b1b2bd584)"><g clip-path="url(#9cb03de8bb)"><path fill="#fffefe" d="M 101.539062 208.652344 L 141.339844 208.652344 L 141.339844 248.457031 L 101.539062 248.457031 Z M 101.539062 208.652344 " fill-opacity="1" fill-rule="nonzero"/></g></g><g fill="#2e2e2e" fill-opacity="1"><g transform="translate(116.952578, 234.889959)"><g><path d="M 0.640625 0 L 0.640625 -1.984375 L 3.5625 -1.984375 L 3.5625 -9.53125 L 3.375 -9.578125 C 2.957031 -9.378906 2.546875 -9.222656 2.140625 -9.109375 C 1.742188 -8.992188 1.289062 -8.898438 0.78125 -8.828125 L 0.78125 -10.875 C 2.125 -11.15625 3.207031 -11.570312 4.03125 -12.125 L 5.9375 -12.125 L 5.9375 -1.984375 L 8.546875 -1.984375 L 8.546875 0 Z M 0.640625 0 "/></g></g></g><g clip-path="url(#486b323ee6)"><g clip-path="url(#b64e9f0748)"><path fill="#fffefe" d="M 101.539062 456.585938 L 141.339844 456.585938 L 141.339844 496.386719 L 101.539062 496.386719 Z M 101.539062 456.585938 " fill-opacity="1" fill-rule="nonzero"/></g></g><g fill="#2e2e2e" fill-opacity="1"><g transform="translate(116.320078, 482.822128)"><g><path d="M 5.046875 0.171875 C 3.835938 0.171875 2.878906 -0.0820312 2.171875 -0.59375 C 1.460938 -1.101562 1 -1.8125 0.78125 -2.71875 L 2.59375 -3.53125 L 2.78125 -3.484375 C 2.957031 -2.953125 3.222656 -2.550781 3.578125 -2.28125 C 3.929688 -2.007812 4.414062 -1.875 5.03125 -1.875 C 5.65625 -1.875 6.140625 -2.050781 6.484375 -2.40625 C 6.828125 -2.769531 7 -3.304688 7 -4.015625 C 7 -4.722656 6.828125 -5.257812 6.484375 -5.625 C 6.148438 -5.988281 5.6875 -6.171875 5.09375 -6.171875 C 4.644531 -6.171875 4.269531 -6.070312 3.96875 -5.875 C 3.664062 -5.6875 3.410156 -5.40625 3.203125 -5.03125 L 1.234375 -5.171875 L 1.46875 -12.125 L 8.6875 -12.125 L 8.6875 -10.109375 L 3.484375 -10.109375 L 3.375 -7.015625 L 3.546875 -6.984375 C 3.828125 -7.347656 4.164062 -7.625 4.5625 -7.8125 C 4.957031 -8.007812 5.429688 -8.109375 5.984375 -8.109375 C 6.671875 -8.109375 7.269531 -7.953125 7.78125 -7.640625 C 8.300781 -7.335938 8.703125 -6.882812 8.984375 -6.28125 C 9.265625 -5.675781 9.40625 -4.9375 9.40625 -4.0625 C 9.40625 -3.175781 9.234375 -2.414062 8.890625 -1.78125 C 8.554688 -1.144531 8.0625 -0.660156 7.40625 -0.328125 C 6.757812 0.00390625 5.972656 0.171875 5.046875 0.171875 Z M 5.046875 0.171875 "/></g></g></g><g clip-path="url(#40ead96b0e)"><g clip-path="url(#8acb07309a)"><path fill="#fffefe" d="M 101.539062 261.199219 L 141.339844 261.199219 L 141.339844 301.003906 L 101.539062 301.003906 Z M 101.539062 261.199219 " fill-opacity="1" fill-rule="nonzero"/></g></g><g fill="#2e2e2e" fill-opacity="1"><g transform="translate(116.694893, 287.437)"><g><path d="M 0.59375 -0.96875 C 0.59375 -1.632812 0.664062 -2.195312 0.8125 -2.65625 C 0.957031 -3.113281 1.195312 -3.53125 1.53125 -3.90625 C 1.863281 -4.289062 2.332031 -4.703125 2.9375 -5.140625 L 4.546875 -6.296875 C 4.992188 -6.617188 5.335938 -6.894531 5.578125 -7.125 C 5.828125 -7.351562 6.015625 -7.59375 6.140625 -7.84375 C 6.265625 -8.101562 6.328125 -8.394531 6.328125 -8.71875 C 6.328125 -9.21875 6.175781 -9.597656 5.875 -9.859375 C 5.582031 -10.128906 5.132812 -10.265625 4.53125 -10.265625 C 3.957031 -10.265625 3.445312 -10.128906 3 -9.859375 C 2.550781 -9.585938 2.179688 -9.210938 1.890625 -8.734375 L 1.734375 -8.6875 L 0.421875 -10.171875 C 0.847656 -10.804688 1.40625 -11.316406 2.09375 -11.703125 C 2.789062 -12.097656 3.632812 -12.296875 4.625 -12.296875 C 5.53125 -12.296875 6.289062 -12.144531 6.90625 -11.84375 C 7.519531 -11.550781 7.972656 -11.144531 8.265625 -10.625 C 8.554688 -10.113281 8.703125 -9.519531 8.703125 -8.84375 C 8.703125 -8.269531 8.582031 -7.742188 8.34375 -7.265625 C 8.101562 -6.796875 7.769531 -6.359375 7.34375 -5.953125 C 6.914062 -5.546875 6.375 -5.113281 5.71875 -4.65625 L 4.28125 -3.65625 C 3.84375 -3.34375 3.539062 -3.066406 3.375 -2.828125 C 3.207031 -2.585938 3.125 -2.3125 3.125 -2 L 8.59375 -2 L 8.59375 0 L 0.59375 0 Z M 0.59375 -0.96875 "/></g></g></g><g clip-path="url(#8cf0faeff8)"><g clip-path="url(#55aa206265)"><path fill="#fffefe" d="M 101.539062 561.542969 L 141.339844 561.542969 L 141.339844 601.347656 L 101.539062 601.347656 Z M 101.539062 561.542969 " fill-opacity="1" fill-rule="nonzero"/></g></g><g fill="#2e2e2e" fill-opacity="1"><g transform="translate(117.128273, 587.780774)"><g><path d="M 4.03125 0 L 1.578125 0 L 5.765625 -9.9375 L 5.71875 -10.109375 L 0.328125 -10.109375 L 0.328125 -12.125 L 8.1875 -12.125 L 8.1875 -10 Z M 4.03125 0 "/></g></g></g><g clip-path="url(#96c10edd28)"><g clip-path="url(#6cdda30857)"><path fill="#fffefe" d="M 101.539062 508.996094 L 141.339844 508.996094 L 141.339844 548.800781 L 101.539062 548.800781 Z M 101.539062 508.996094 " fill-opacity="1" fill-rule="nonzero"/></g></g><g fill="#2e2e2e" fill-opacity="1"><g transform="translate(115.921838, 535.233732)"><g><path d="M 5.796875 0.171875 C 4.878906 0.171875 4.0625 -0.0351562 3.34375 -0.453125 C 2.632812 -0.878906 2.066406 -1.546875 1.640625 -2.453125 C 1.222656 -3.367188 1.015625 -4.535156 1.015625 -5.953125 C 1.015625 -7.390625 1.234375 -8.582031 1.671875 -9.53125 C 2.117188 -10.476562 2.722656 -11.175781 3.484375 -11.625 C 4.253906 -12.070312 5.132812 -12.296875 6.125 -12.296875 C 6.945312 -12.296875 7.65625 -12.175781 8.25 -11.9375 C 8.84375 -11.695312 9.304688 -11.347656 9.640625 -10.890625 L 8.46875 -9.375 L 8.265625 -9.375 C 7.753906 -9.976562 7.039062 -10.28125 6.125 -10.28125 C 4.40625 -10.28125 3.523438 -9.019531 3.484375 -6.5 L 3.65625 -6.4375 C 3.9375 -6.957031 4.304688 -7.351562 4.765625 -7.625 C 5.234375 -7.894531 5.816406 -8.03125 6.515625 -8.03125 C 7.265625 -8.03125 7.910156 -7.867188 8.453125 -7.546875 C 9.003906 -7.234375 9.425781 -6.78125 9.71875 -6.1875 C 10.019531 -5.601562 10.171875 -4.90625 10.171875 -4.09375 C 10.171875 -3.207031 9.992188 -2.441406 9.640625 -1.796875 C 9.285156 -1.160156 8.78125 -0.671875 8.125 -0.328125 C 7.46875 0.00390625 6.691406 0.171875 5.796875 0.171875 Z M 5.75 -1.875 C 6.375 -1.875 6.863281 -2.054688 7.21875 -2.421875 C 7.570312 -2.796875 7.75 -3.3125 7.75 -3.96875 C 7.75 -4.632812 7.570312 -5.148438 7.21875 -5.515625 C 6.863281 -5.890625 6.375 -6.078125 5.75 -6.078125 C 5.34375 -6.078125 4.984375 -5.988281 4.671875 -5.8125 C 4.367188 -5.644531 4.132812 -5.398438 3.96875 -5.078125 C 3.800781 -4.765625 3.71875 -4.394531 3.71875 -3.96875 C 3.71875 -3.320312 3.894531 -2.8125 4.25 -2.4375 C 4.613281 -2.0625 5.113281 -1.875 5.75 -1.875 Z M 5.75 -1.875 "/></g></g></g></svg>