<svg xmlns="http://www.w3.org/2000/svg" xmlns:xlink="http://www.w3.org/1999/xlink" width="500" zoomAndPan="magnify" viewBox="0 0 375 374.999991" height="500" preserveAspectRatio="xMidYMid meet" version="1.0"><defs><g/><clipPath id="1bf64d1864"><path d="M 297 105 L 311 105 L 311 121 L 297 121 Z M 297 105 " clip-rule="nonzero"/></clipPath><clipPath id="5441eae281"><path d="M 300.902344 105.371094 L 310.757812 107.757812 L 307.628906 120.679688 L 297.773438 118.292969 Z M 300.902344 105.371094 " clip-rule="nonzero"/></clipPath><clipPath id="4b29cb594f"><path d="M 251 102 L 267 102 L 267 121 L 251 121 Z M 251 102 " clip-rule="nonzero"/></clipPath><clipPath id="2993f293d0"><path d="M 251.898438 105.71875 L 262.511719 102.878906 L 266.597656 118.148438 L 255.984375 120.988281 Z M 251.898438 105.71875 " clip-rule="nonzero"/></clipPath><clipPath id="ced5efbc0d"><path d="M 257 105 L 307 105 L 307 119 L 257 119 Z M 257 105 " clip-rule="nonzero"/></clipPath><clipPath id="000aaa3f0d"><path d="M 257.066406 107.0625 L 306.136719 105.203125 L 306.585938 117.074219 L 257.515625 118.933594 Z M 257.066406 107.0625 " clip-rule="nonzero"/></clipPath><clipPath id="35be1aa852"><path d="M 256.289062 152.28125 L 307.359375 152.28125 L 307.359375 180.519531 L 256.289062 180.519531 Z M 256.289062 152.28125 " clip-rule="nonzero"/></clipPath><clipPath id="4e42206667"><path d="M 307.28125 166.402344 L 293.527344 180.519531 L 270.046875 180.519531 L 256.289062 166.402344 L 270.046875 152.28125 L 293.527344 152.28125 Z M 307.28125 166.402344 " clip-rule="nonzero"/></clipPath><clipPath id="c05252f2c3"><path d="M 255.734375 167.648438 L 307.269531 167.648438 L 307.269531 196.902344 L 255.734375 196.902344 Z M 255.734375 167.648438 " clip-rule="nonzero"/></clipPath><clipPath id="bce8614058"><path d="M 281.511719 196.902344 L 255.753906 167.648438 L 307.269531 167.648438 Z M 281.511719 196.902344 " clip-rule="nonzero"/></clipPath><clipPath id="2093102987"><path d="M 255.769531 153.878906 L 268.589844 153.878906 L 268.589844 181.375 L 255.769531 181.375 Z M 255.769531 153.878906 " clip-rule="nonzero"/></clipPath><clipPath id="2508369305"><path d="M 255.769531 167.652344 L 268.589844 153.929688 L 268.589844 181.375 Z M 255.769531 167.652344 " clip-rule="nonzero"/></clipPath><clipPath id="de9d62f369"><path d="M 294.449219 152.28125 L 307.273438 152.28125 L 307.273438 181.429688 L 294.449219 181.429688 Z M 294.449219 152.28125 " clip-rule="nonzero"/></clipPath><clipPath id="22cd60a482"><path d="M 307.273438 166.832031 L 294.449219 181.382812 L 294.449219 152.28125 Z M 307.273438 166.832031 " clip-rule="nonzero"/></clipPath><clipPath id="6626cb0998"><path d="M 20 236 L 342 236 L 342 303 L 20 303 Z M 20 236 " clip-rule="nonzero"/></clipPath><clipPath id="18b53dc961"><path d="M 23.289062 212.574219 L 347.277344 229.949219 L 343.089844 308.085938 L 19.101562 290.714844 Z M 23.289062 212.574219 " clip-rule="nonzero"/></clipPath><clipPath id="5b64c5b3b3"><path d="M 23.289062 212.574219 L 347.277344 229.949219 L 343.089844 308.085938 L 19.101562 290.714844 Z M 23.289062 212.574219 " clip-rule="nonzero"/></clipPath><clipPath id="fc8455d27b"><path d="M 190 229 L 348 229 L 348 281 L 190 281 Z M 190 229 " clip-rule="nonzero"/></clipPath><clipPath id="0269b32845"><path d="M 23.289062 212.574219 L 347.277344 229.949219 L 343.089844 308.085938 L 19.101562 290.714844 Z M 23.289062 212.574219 " clip-rule="nonzero"/></clipPath><clipPath id="251a7dedc6"><path d="M 23.289062 212.574219 L 347.277344 229.949219 L 343.089844 308.085938 L 19.101562 290.714844 Z M 23.289062 212.574219 " clip-rule="nonzero"/></clipPath><clipPath id="6919d0fcc4"><path d="M 29 256 L 139 256 L 139 293 L 29 293 Z M 29 256 " clip-rule="nonzero"/></clipPath><clipPath id="8e7021a373"><path d="M 23.289062 212.574219 L 347.277344 229.949219 L 343.089844 308.085938 L 19.101562 290.714844 Z M 23.289062 212.574219 " clip-rule="nonzero"/></clipPath><clipPath id="091a376d02"><path d="M 23.289062 212.574219 L 347.277344 229.949219 L 343.089844 308.085938 L 19.101562 290.714844 Z M 23.289062 212.574219 " clip-rule="nonzero"/></clipPath><clipPath id="2f4b0ebe7f"><path d="M 255.015625 151 L 308 151 L 308 196.777344 L 255.015625 196.777344 Z M 255.015625 151 " clip-rule="nonzero"/></clipPath><clipPath id="6abb9909a0"><path d="M 236.402344 67.253906 L 327 67.253906 L 327 115 L 236.402344 115 Z M 236.402344 67.253906 " clip-rule="nonzero"/></clipPath><clipPath id="838914d3f2"><path d="M 254 114 L 309 114 L 309 122.601562 L 254 122.601562 Z M 254 114 " clip-rule="nonzero"/></clipPath><clipPath id="6726b21d38"><path d="M 253 235 L 271 235 L 271 253 L 253 253 Z M 253 235 " clip-rule="nonzero"/></clipPath><clipPath id="727813decc"><path d="M 250.855469 249.433594 L 256.125 233.085938 L 272.472656 238.355469 L 267.203125 254.703125 Z M 250.855469 249.433594 " clip-rule="nonzero"/></clipPath><clipPath id="e0758efe00"><path d="M 250.855469 249.433594 L 256.125 233.085938 L 272.472656 238.355469 L 267.203125 254.703125 Z M 250.855469 249.433594 " clip-rule="nonzero"/></clipPath><clipPath id="1110a080e4"><path d="M 255 239 L 268 239 L 268 252 L 255 252 Z M 255 239 " clip-rule="nonzero"/></clipPath><clipPath id="cdaa2ece2e"><path d="M 250.855469 249.433594 L 256.125 233.085938 L 272.472656 238.355469 L 267.203125 254.703125 Z M 250.855469 249.433594 " clip-rule="nonzero"/></clipPath><clipPath id="c808f23bfd"><path d="M 250.855469 249.433594 L 256.125 233.085938 L 272.472656 238.355469 L 267.203125 254.703125 Z M 250.855469 249.433594 " clip-rule="nonzero"/></clipPath></defs><rect x="-37.5" width="450" fill="#ffffff" y="-37.499999" height="449.999989" fill-opacity="1"/><rect x="-37.5" width="450" fill="#000000" y="-37.499999" height="449.999989" fill-opacity="1"/><g clip-path="url(#1bf64d1864)"><g clip-path="url(#5441eae281)"><path fill="#ffffff" d="M 300.902344 105.371094 L 310.757812 107.757812 L 307.625 120.695312 L 297.769531 118.308594 Z M 300.902344 105.371094 " fill-opacity="1" fill-rule="nonzero"/></g></g><g clip-path="url(#4b29cb594f)"><g clip-path="url(#2993f293d0)"><path fill="#ffffff" d="M 251.898438 105.71875 L 262.511719 102.878906 L 266.59375 118.132812 L 255.980469 120.972656 Z M 251.898438 105.71875 " fill-opacity="1" fill-rule="nonzero"/></g></g><g clip-path="url(#ced5efbc0d)"><g clip-path="url(#000aaa3f0d)"><path fill="#ffffff" d="M 257.066406 107.0625 L 306.128906 105.203125 L 306.578125 117.074219 L 257.515625 118.933594 Z M 257.066406 107.0625 " fill-opacity="1" fill-rule="nonzero"/></g></g><g clip-path="url(#35be1aa852)"><g clip-path="url(#4e42206667)"><path fill="#ffffff" d="M 256.289062 152.28125 L 307.25 152.28125 L 307.25 180.519531 L 256.289062 180.519531 Z M 256.289062 152.28125 " fill-opacity="1" fill-rule="nonzero"/></g></g><g clip-path="url(#c05252f2c3)"><g clip-path="url(#bce8614058)"><path fill="#ffffff" d="M 307.269531 196.902344 L 255.734375 196.902344 L 255.734375 167.648438 L 307.269531 167.648438 Z M 307.269531 196.902344 " fill-opacity="1" fill-rule="nonzero"/></g></g><g clip-path="url(#2093102987)"><g clip-path="url(#2508369305)"><path fill="#ffffff" d="M 255.769531 181.375 L 255.769531 153.929688 L 268.589844 153.929688 L 268.589844 181.375 Z M 255.769531 181.375 " fill-opacity="1" fill-rule="nonzero"/></g></g><g clip-path="url(#de9d62f369)"><g clip-path="url(#22cd60a482)"><path fill="#ffffff" d="M 307.273438 152.28125 L 307.273438 181.378906 L 294.449219 181.378906 L 294.449219 152.28125 Z M 307.273438 152.28125 " fill-opacity="1" fill-rule="nonzero"/></g></g><g fill="#ffffff" fill-opacity="1"><g transform="translate(33.683719, 225.230759)"><g><path d="M 34.203125 0 L 12.984375 0 L 12.984375 -106.765625 L 47.1875 -106.765625 C 53.96875 -106.765625 60.050781 -105.847656 65.4375 -104.015625 C 70.832031 -102.191406 75.421875 -99.632812 79.203125 -96.34375 C 82.984375 -93.050781 85.875 -89.203125 87.875 -84.796875 C 89.882812 -80.398438 90.890625 -75.628906 90.890625 -70.484375 C 90.890625 -65.140625 89.800781 -60.226562 87.625 -55.75 C 85.445312 -51.28125 82.488281 -47.398438 78.75 -44.109375 C 75.019531 -40.816406 70.753906 -38.253906 65.953125 -36.421875 C 61.160156 -34.597656 56.117188 -33.6875 50.828125 -33.6875 L 42.4375 -33.6875 L 36.4375 -51.125 L 46.453125 -51.125 C 50.953125 -51.125 54.832031 -51.890625 58.09375 -53.421875 C 61.363281 -54.953125 63.882812 -57.140625 65.65625 -59.984375 C 67.4375 -62.828125 68.328125 -66.179688 68.328125 -70.046875 C 68.328125 -73.703125 67.4375 -76.851562 65.65625 -79.5 C 63.882812 -82.144531 61.351562 -84.195312 58.0625 -85.65625 C 54.769531 -87.113281 50.875 -87.84375 46.375 -87.84375 L 34.203125 -87.84375 Z M 34.203125 0 "/></g></g></g><g fill="#ffffff" fill-opacity="1"><g transform="translate(126.566824, 225.230759)"><g><path d="M 65.515625 -39.921875 L 93.859375 0 L 69.96875 0 L 35.6875 -50.828125 L 45.625 -50.828125 C 50.082031 -50.828125 54.003906 -51.566406 57.390625 -53.046875 C 60.773438 -54.535156 63.421875 -56.6875 65.328125 -59.5 C 67.234375 -62.320312 68.1875 -65.710938 68.1875 -69.671875 C 68.1875 -73.328125 67.296875 -76.515625 65.515625 -79.234375 C 63.734375 -81.960938 61.207031 -84.078125 57.9375 -85.578125 C 54.675781 -87.085938 50.820312 -87.84375 46.375 -87.84375 L 34.203125 -87.84375 L 34.203125 0 L 12.984375 0 L 12.984375 -106.765625 L 46.453125 -106.765625 C 53.328125 -106.765625 59.492188 -105.8125 64.953125 -103.90625 C 70.421875 -102.007812 75.070312 -99.378906 78.90625 -96.015625 C 82.738281 -92.648438 85.664062 -88.726562 87.6875 -84.25 C 89.71875 -79.769531 90.734375 -74.9375 90.734375 -69.75 C 90.734375 -64.894531 89.679688 -60.398438 87.578125 -56.265625 C 85.484375 -52.140625 82.539062 -48.640625 78.75 -45.765625 C 74.96875 -42.898438 70.554688 -40.953125 65.515625 -39.921875 Z M 65.515625 -39.921875 "/></g></g></g><g fill="#ffffff" fill-opacity="1"><g transform="translate(222.936756, 225.230759)"><g><path d="M 58.984375 1.78125 C 51.023438 1.78125 43.800781 0.445312 37.3125 -2.21875 C 30.832031 -4.894531 25.28125 -8.679688 20.65625 -13.578125 C 16.03125 -18.472656 12.46875 -24.285156 9.96875 -31.015625 C 7.476562 -37.742188 6.234375 -45.140625 6.234375 -53.203125 C 6.234375 -61.304688 7.476562 -68.722656 9.96875 -75.453125 C 12.46875 -82.179688 16.03125 -88.003906 20.65625 -92.921875 C 25.28125 -97.847656 30.832031 -101.660156 37.3125 -104.359375 C 43.800781 -107.054688 51.023438 -108.40625 58.984375 -108.40625 C 66.953125 -108.40625 74.195312 -107.054688 80.71875 -104.359375 C 87.25 -101.660156 92.851562 -97.863281 97.53125 -92.96875 C 102.207031 -88.070312 105.804688 -82.257812 108.328125 -75.53125 C 110.847656 -68.800781 112.109375 -61.40625 112.109375 -53.34375 C 112.109375 -45.226562 110.859375 -37.796875 108.359375 -31.046875 C 105.859375 -24.296875 102.285156 -18.472656 97.640625 -13.578125 C 92.992188 -8.679688 87.40625 -4.894531 80.875 -2.21875 C 74.34375 0.445312 67.046875 1.78125 58.984375 1.78125 Z M 58.984375 -17.515625 C 65.171875 -17.515625 70.5625 -18.984375 75.15625 -21.921875 C 79.757812 -24.867188 83.320312 -29.007812 85.84375 -34.34375 C 88.363281 -39.6875 89.625 -45.945312 89.625 -53.125 C 89.625 -60.394531 88.363281 -66.722656 85.84375 -72.109375 C 83.320312 -77.503906 79.757812 -81.6875 75.15625 -84.65625 C 70.5625 -87.625 65.171875 -89.109375 58.984375 -89.109375 C 52.898438 -89.109375 47.582031 -87.625 43.03125 -84.65625 C 38.476562 -81.6875 34.953125 -77.503906 32.453125 -72.109375 C 29.960938 -66.722656 28.71875 -60.394531 28.71875 -53.125 C 28.71875 -45.945312 29.960938 -39.6875 32.453125 -34.34375 C 34.953125 -29.007812 38.476562 -24.867188 43.03125 -21.921875 C 47.582031 -18.984375 52.898438 -17.515625 58.984375 -17.515625 Z M 58.984375 -17.515625 "/></g></g></g><g clip-path="url(#6626cb0998)"><g clip-path="url(#18b53dc961)"><g clip-path="url(#5b64c5b3b3)"><path fill="#276ecc" d="M 20.855469 259.058594 C 20.855469 259.058594 20.976562 258.742188 21.214844 258.132812 C 21.335938 257.828125 21.480469 257.449219 21.664062 257 C 21.867188 256.554688 22.113281 256.042969 22.390625 255.457031 C 22.523438 255.160156 22.695312 254.867188 22.867188 254.550781 C 23.042969 254.234375 23.226562 253.902344 23.417969 253.554688 C 23.46875 253.46875 23.515625 253.378906 23.566406 253.289062 C 23.625 253.207031 23.679688 253.121094 23.734375 253.035156 C 23.847656 252.855469 23.964844 252.679688 24.082031 252.496094 C 24.203125 252.3125 24.324219 252.125 24.449219 251.933594 C 24.570312 251.742188 24.699219 251.546875 24.84375 251.359375 C 25.933594 249.808594 27.375 248.132812 29.222656 246.457031 C 31.0625 244.785156 33.347656 243.152344 36.042969 241.75 C 38.738281 240.347656 41.839844 239.160156 45.238281 238.332031 C 45.664062 238.230469 46.09375 238.128906 46.527344 238.023438 C 46.960938 237.925781 47.398438 237.84375 47.84375 237.757812 C 48.726562 237.570312 49.628906 237.441406 50.546875 237.300781 C 51.003906 237.222656 51.464844 237.175781 51.929688 237.117188 C 52.394531 237.0625 52.867188 237 53.339844 236.957031 C 53.8125 236.917969 54.285156 236.878906 54.765625 236.839844 C 55.003906 236.820312 55.246094 236.800781 55.488281 236.78125 C 55.726562 236.765625 55.96875 236.753906 56.210938 236.742188 C 60.09375 236.523438 64.171875 236.605469 68.371094 236.96875 C 76.785156 237.671875 85.699219 239.449219 94.859375 241.960938 C 104.027344 244.472656 113.453125 247.738281 122.984375 251.457031 C 125.363281 252.390625 127.757812 253.335938 130.148438 254.316406 C 132.527344 255.300781 134.921875 256.289062 137.335938 257.289062 C 139.730469 258.292969 142.125 259.304688 144.507812 260.285156 C 145.703125 260.777344 146.882812 261.265625 148.058594 261.734375 C 149.273438 262.214844 150.492188 262.695312 151.710938 263.171875 C 154.195312 264.160156 156.597656 265.082031 159.042969 266.03125 C 160.257812 266.507812 161.496094 266.957031 162.726562 267.417969 C 163.957031 267.882812 165.191406 268.347656 166.421875 268.8125 C 167.660156 269.261719 168.898438 269.710938 170.136719 270.160156 L 171.996094 270.835938 L 173.859375 271.492188 C 175.101562 271.929688 176.347656 272.363281 177.589844 272.800781 C 178.832031 273.238281 180.085938 273.636719 181.332031 274.054688 L 183.203125 274.683594 L 184.136719 275 L 185.074219 275.296875 C 186.324219 275.691406 187.578125 276.089844 188.828125 276.484375 C 189.453125 276.675781 190.074219 276.886719 190.703125 277.070312 L 192.582031 277.628906 C 193.835938 278.003906 195.085938 278.378906 196.335938 278.753906 C 197.59375 279.097656 198.84375 279.445312 200.097656 279.789062 C 200.722656 279.960938 201.347656 280.136719 201.972656 280.3125 C 202.597656 280.496094 203.226562 280.640625 203.851562 280.800781 C 205.105469 281.121094 206.355469 281.441406 207.605469 281.761719 L 208.542969 282 L 209.480469 282.214844 C 210.105469 282.359375 210.730469 282.503906 211.355469 282.648438 C 212.601562 282.933594 213.847656 283.238281 215.09375 283.507812 C 216.34375 283.761719 217.585938 284.015625 218.828125 284.269531 C 219.449219 284.402344 220.070312 284.53125 220.691406 284.664062 C 221.308594 284.78125 221.933594 284.886719 222.550781 284.996094 C 223.789062 285.21875 225.027344 285.441406 226.261719 285.664062 C 226.875 285.78125 227.492188 285.867188 228.109375 285.960938 C 228.726562 286.054688 229.339844 286.148438 229.957031 286.242188 C 230.566406 286.332031 231.183594 286.425781 231.796875 286.523438 L 232.714844 286.660156 L 233.171875 286.730469 L 233.628906 286.785156 C 234.851562 286.933594 236.074219 287.078125 237.285156 287.226562 C 237.894531 287.300781 238.5 287.378906 239.105469 287.453125 C 239.710938 287.523438 240.316406 287.5625 240.921875 287.621094 C 242.128906 287.730469 243.332031 287.835938 244.53125 287.945312 C 244.828125 287.972656 245.128906 288.003906 245.429688 288.03125 L 245.539062 288.042969 C 245.589844 288.042969 245.484375 288.042969 245.585938 288.046875 L 245.816406 288.0625 L 246.285156 288.089844 C 246.90625 288.132812 247.523438 288.171875 248.140625 288.210938 C 248.777344 288.257812 249.339844 288.277344 249.917969 288.304688 C 250.496094 288.332031 251.070312 288.359375 251.644531 288.386719 C 252.8125 288.429688 253.988281 288.464844 255.152344 288.492188 C 256.316406 288.5 257.472656 288.527344 258.625 288.519531 C 259.203125 288.515625 259.777344 288.511719 260.351562 288.507812 C 260.636719 288.507812 260.921875 288.503906 261.207031 288.503906 C 261.496094 288.496094 261.777344 288.488281 262.0625 288.480469 C 263.203125 288.449219 264.335938 288.4375 265.460938 288.371094 C 266.023438 288.347656 266.582031 288.320312 267.144531 288.296875 C 267.699219 288.28125 268.257812 288.230469 268.8125 288.199219 C 277.691406 287.652344 286.054688 286.410156 293.671875 284.683594 C 297.480469 283.820312 301.101562 282.851562 304.515625 281.785156 C 307.925781 280.71875 311.121094 279.566406 314.101562 278.394531 C 317.085938 277.21875 319.816406 275.96875 322.34375 274.78125 C 324.839844 273.546875 327.132812 272.375 329.15625 271.222656 C 329.664062 270.9375 330.160156 270.65625 330.640625 270.386719 C 331.113281 270.105469 331.570312 269.828125 332.015625 269.558594 C 332.464844 269.289062 332.898438 269.03125 333.316406 268.78125 C 333.738281 268.53125 334.128906 268.269531 334.515625 268.027344 C 334.898438 267.78125 335.269531 267.546875 335.625 267.320312 C 335.804688 267.207031 335.976562 267.097656 336.148438 266.988281 C 336.316406 266.875 336.480469 266.765625 336.640625 266.65625 C 337.285156 266.222656 337.871094 265.832031 338.394531 265.480469 C 338.925781 265.132812 339.371094 264.800781 339.765625 264.523438 C 340.160156 264.246094 340.496094 264.011719 340.761719 263.820312 C 341.300781 263.445312 341.578125 263.25 341.578125 263.25 C 341.578125 263.25 341.359375 263.507812 340.933594 264.007812 C 340.71875 264.257812 340.453125 264.566406 340.132812 264.933594 C 339.816406 265.300781 339.453125 265.734375 339.011719 266.191406 C 338.578125 266.660156 338.089844 267.179688 337.554688 267.753906 C 337.289062 268.046875 337 268.332031 336.691406 268.632812 C 336.386719 268.933594 336.070312 269.246094 335.742188 269.574219 C 335.410156 269.898438 335.074219 270.246094 334.710938 270.585938 C 334.34375 270.925781 333.964844 271.277344 333.574219 271.636719 C 333.179688 271.996094 332.777344 272.371094 332.355469 272.75 C 331.921875 273.117188 331.480469 273.5 331.027344 273.890625 C 329.21875 275.472656 327.117188 277.105469 324.773438 278.832031 C 324.179688 279.25 323.574219 279.679688 322.953125 280.113281 C 322.640625 280.328125 322.328125 280.546875 322.011719 280.769531 C 321.6875 280.980469 321.363281 281.195312 321.03125 281.410156 C 320.375 281.835938 319.707031 282.289062 319.015625 282.71875 C 318.320312 283.144531 317.613281 283.574219 316.890625 284.015625 C 313.988281 285.738281 310.824219 287.453125 307.394531 289.097656 C 303.960938 290.730469 300.269531 292.277344 296.335938 293.703125 C 288.476562 296.558594 279.652344 298.878906 270.148438 300.347656 C 268.957031 300.542969 267.757812 300.703125 266.550781 300.859375 C 265.34375 301.03125 264.125 301.152344 262.894531 301.289062 C 262.585938 301.324219 262.28125 301.355469 261.972656 301.390625 C 261.664062 301.417969 261.355469 301.445312 261.046875 301.472656 C 260.425781 301.527344 259.804688 301.585938 259.183594 301.640625 C 257.9375 301.742188 256.683594 301.8125 255.417969 301.894531 C 254.15625 301.960938 252.890625 302.019531 251.605469 302.070312 C 250.953125 302.082031 250.300781 302.097656 249.644531 302.109375 C 248.992188 302.121094 248.316406 302.140625 247.710938 302.136719 C 247.09375 302.136719 246.472656 302.140625 245.851562 302.140625 L 245.378906 302.140625 L 245.148438 302.144531 C 245.171875 302.144531 244.984375 302.140625 244.957031 302.136719 L 244.835938 302.136719 C 244.515625 302.125 244.191406 302.121094 243.863281 302.109375 C 242.566406 302.070312 241.261719 302.035156 239.953125 301.992188 C 229.472656 301.628906 218.726562 300.230469 208.011719 298.054688 C 202.648438 296.996094 197.3125 295.671875 191.988281 294.253906 C 186.691406 292.773438 181.40625 291.191406 176.195312 289.433594 C 170.972656 287.699219 165.828125 285.808594 160.734375 283.859375 C 158.195312 282.867188 155.675781 281.878906 153.160156 280.84375 C 150.65625 279.804688 148.113281 278.777344 145.710938 277.722656 C 144.480469 277.195312 143.257812 276.667969 142.03125 276.136719 C 140.78125 275.585938 139.539062 275.042969 138.328125 274.480469 C 135.898438 273.363281 133.527344 272.25 131.175781 271.148438 C 126.488281 268.929688 121.894531 266.765625 117.371094 264.679688 C 108.332031 260.515625 99.558594 256.710938 91.121094 253.542969 C 82.691406 250.378906 74.597656 247.835938 67.027344 246.234375 C 65.136719 245.816406 63.277344 245.5 61.460938 245.203125 C 60.550781 245.078125 59.648438 244.925781 58.761719 244.835938 C 58.316406 244.78125 57.875 244.730469 57.433594 244.679688 C 56.996094 244.636719 56.558594 244.597656 56.125 244.558594 C 52.648438 244.242188 49.355469 244.238281 46.289062 244.484375 C 46.097656 244.5 45.90625 244.515625 45.71875 244.527344 C 45.527344 244.550781 45.339844 244.574219 45.152344 244.597656 C 44.777344 244.640625 44.40625 244.683594 44.035156 244.730469 C 43.667969 244.773438 43.308594 244.84375 42.945312 244.898438 C 42.585938 244.957031 42.226562 245.003906 41.875 245.078125 C 41.527344 245.152344 41.179688 245.222656 40.835938 245.296875 C 40.660156 245.332031 40.492188 245.367188 40.320312 245.40625 C 40.152344 245.449219 39.984375 245.492188 39.816406 245.535156 C 39.484375 245.621094 39.152344 245.707031 38.824219 245.792969 L 38.578125 245.855469 L 38.339844 245.933594 C 38.179688 245.984375 38.019531 246.035156 37.863281 246.082031 C 35.324219 246.875 33.082031 247.910156 31.160156 249.054688 C 30.921875 249.199219 30.679688 249.335938 30.445312 249.480469 C 30.222656 249.632812 30 249.785156 29.78125 249.933594 C 29.558594 250.085938 29.339844 250.234375 29.125 250.378906 C 28.910156 250.519531 28.71875 250.691406 28.515625 250.839844 C 28.316406 250.996094 28.121094 251.148438 27.925781 251.296875 C 27.730469 251.449219 27.53125 251.585938 27.359375 251.75 C 27 252.0625 26.652344 252.363281 26.320312 252.65625 C 26.148438 252.800781 25.992188 252.953125 25.839844 253.105469 C 25.6875 253.257812 25.539062 253.40625 25.394531 253.550781 C 25.246094 253.699219 25.101562 253.839844 24.960938 253.980469 C 24.820312 254.121094 24.679688 254.257812 24.554688 254.402344 C 24.300781 254.6875 24.058594 254.957031 23.824219 255.214844 C 23.59375 255.476562 23.363281 255.71875 23.179688 255.964844 C 22.789062 256.453125 22.441406 256.886719 22.144531 257.261719 C 21.859375 257.648438 21.628906 257.984375 21.4375 258.253906 C 21.054688 258.785156 20.855469 259.058594 20.855469 259.058594 " fill-opacity="1" fill-rule="nonzero"/></g></g></g><g clip-path="url(#fc8455d27b)"><g clip-path="url(#0269b32845)"><g clip-path="url(#251a7dedc6)"><path fill="#56a4d1" d="M 190.085938 261.46875 C 190.085938 261.46875 190.753906 261.632812 192.007812 261.941406 C 193.257812 262.242188 195.085938 262.757812 197.410156 263.308594 C 197.988281 263.449219 198.601562 263.597656 199.234375 263.757812 C 199.875 263.914062 200.535156 264.101562 201.238281 264.253906 C 202.640625 264.5625 204.148438 264.933594 205.757812 265.308594 C 207.371094 265.660156 209.085938 266.03125 210.894531 266.425781 C 212.707031 266.785156 214.609375 267.160156 216.59375 267.554688 C 217.585938 267.730469 218.601562 267.90625 219.640625 268.089844 C 220.152344 268.179688 220.675781 268.273438 221.199219 268.367188 C 221.460938 268.414062 221.726562 268.460938 221.992188 268.507812 C 222.257812 268.546875 222.527344 268.585938 222.796875 268.625 C 224.945312 268.925781 227.148438 269.320312 229.433594 269.578125 C 230 269.648438 230.578125 269.722656 231.15625 269.796875 C 231.730469 269.867188 232.308594 269.953125 232.894531 270.015625 C 234.066406 270.125 235.25 270.242188 236.445312 270.371094 C 237.042969 270.425781 237.644531 270.503906 238.246094 270.542969 C 238.851562 270.585938 239.457031 270.632812 240.070312 270.671875 C 240.679688 270.71875 241.292969 270.761719 241.910156 270.808594 C 242.523438 270.847656 243.140625 270.914062 243.761719 270.929688 C 245.003906 270.984375 246.257812 271.039062 247.519531 271.09375 C 247.832031 271.109375 248.148438 271.121094 248.464844 271.136719 C 248.777344 271.140625 249.09375 271.144531 249.414062 271.148438 C 250.046875 271.15625 250.683594 271.160156 251.320312 271.167969 C 252.597656 271.1875 253.878906 271.226562 255.164062 271.171875 C 256.449219 271.148438 257.742188 271.121094 259.042969 271.097656 C 264.222656 270.871094 269.460938 270.410156 274.65625 269.679688 L 276.621094 269.371094 C 277.3125 269.269531 277.921875 269.152344 278.554688 269.039062 C 279.800781 268.820312 281.085938 268.550781 282.363281 268.296875 C 284.910156 267.738281 287.433594 267.132812 289.914062 266.441406 C 290.535156 266.269531 291.152344 266.082031 291.769531 265.90625 L 292.691406 265.636719 L 293.605469 265.34375 C 294.214844 265.152344 294.828125 264.972656 295.425781 264.769531 C 296.03125 264.566406 296.628906 264.359375 297.226562 264.160156 C 297.828125 263.960938 298.417969 263.734375 299.007812 263.523438 C 299.597656 263.3125 300.191406 263.101562 300.769531 262.871094 C 301.351562 262.648438 301.933594 262.421875 302.511719 262.199219 C 303.085938 261.964844 303.65625 261.730469 304.226562 261.496094 C 304.507812 261.378906 304.792969 261.261719 305.074219 261.144531 C 305.355469 261.019531 305.636719 260.898438 305.914062 260.777344 C 306.472656 260.53125 307.03125 260.296875 307.582031 260.046875 C 308.675781 259.53125 309.773438 259.042969 310.832031 258.511719 C 312.972656 257.480469 315.015625 256.375 317 255.277344 C 320.933594 253.035156 324.550781 250.707031 327.769531 248.359375 C 328.570312 247.769531 329.351562 247.183594 330.117188 246.609375 C 330.863281 246.015625 331.59375 245.433594 332.308594 244.867188 C 333.007812 244.285156 333.703125 243.726562 334.359375 243.160156 C 335.011719 242.589844 335.644531 242.035156 336.257812 241.496094 C 338.699219 239.320312 340.707031 237.273438 342.351562 235.558594 C 343.164062 234.691406 343.898438 233.917969 344.503906 233.21875 C 345.121094 232.527344 345.65625 231.941406 346.066406 231.449219 C 346.90625 230.472656 347.355469 229.949219 347.355469 229.949219 C 347.355469 229.949219 347.285156 230.105469 347.144531 230.410156 C 347.003906 230.710938 346.804688 231.164062 346.523438 231.746094 C 346.382812 232.039062 346.238281 232.371094 346.050781 232.722656 C 345.867188 233.074219 345.664062 233.460938 345.449219 233.875 C 345.222656 234.289062 345.003906 234.746094 344.730469 235.210938 C 344.460938 235.679688 344.171875 236.175781 343.867188 236.699219 C 342.625 238.78125 341.019531 241.273438 338.9375 243.96875 C 338.421875 244.648438 337.859375 245.324219 337.292969 246.03125 C 336.714844 246.730469 336.097656 247.425781 335.472656 248.15625 C 334.84375 248.878906 334.164062 249.585938 333.480469 250.328125 C 332.777344 251.050781 332.054688 251.785156 331.308594 252.53125 C 328.277344 255.464844 324.777344 258.445312 320.824219 261.269531 C 318.839844 262.664062 316.765625 264.058594 314.566406 265.359375 C 312.382812 266.683594 310.089844 267.933594 307.714844 269.117188 C 307.117188 269.410156 306.519531 269.703125 305.917969 270 C 305.308594 270.277344 304.699219 270.554688 304.082031 270.835938 C 303.472656 271.121094 302.847656 271.382812 302.222656 271.648438 C 301.597656 271.910156 300.976562 272.195312 300.335938 272.4375 C 297.800781 273.464844 295.1875 274.386719 292.527344 275.234375 C 289.859375 276.0625 287.140625 276.800781 284.386719 277.441406 C 283 277.738281 281.632812 278.054688 280.199219 278.304688 C 279.488281 278.4375 278.761719 278.578125 278.105469 278.679688 L 276.027344 279.011719 C 270.421875 279.796875 264.773438 280.199219 259.21875 280.253906 C 256.449219 280.199219 253.695312 280.203125 250.988281 279.988281 C 250.3125 279.941406 249.636719 279.898438 248.964844 279.851562 C 248.628906 279.832031 248.292969 279.804688 247.960938 279.785156 C 247.628906 279.75 247.296875 279.714844 246.960938 279.679688 C 245.632812 279.539062 244.316406 279.394531 243.007812 279.253906 C 242.351562 279.195312 241.707031 279.082031 241.0625 278.992188 C 240.421875 278.890625 239.78125 278.796875 239.140625 278.703125 C 238.503906 278.605469 237.871094 278.507812 237.238281 278.414062 C 236.609375 278.316406 235.988281 278.179688 235.367188 278.070312 C 234.128906 277.832031 232.90625 277.597656 231.699219 277.359375 C 230.492188 277.101562 229.3125 276.816406 228.148438 276.539062 C 227.566406 276.402344 226.988281 276.269531 226.410156 276.128906 L 225.984375 276.03125 L 225.558594 275.914062 C 225.273438 275.835938 224.992188 275.757812 224.710938 275.679688 C 223.59375 275.375 222.488281 275.074219 221.40625 274.765625 C 221.140625 274.6875 220.871094 274.613281 220.601562 274.535156 C 220.335938 274.453125 220.070312 274.367188 219.804688 274.285156 C 219.28125 274.121094 218.761719 273.953125 218.242188 273.792969 C 217.207031 273.460938 216.195312 273.152344 215.210938 272.820312 C 214.230469 272.46875 213.273438 272.121094 212.335938 271.789062 C 211.402344 271.445312 210.480469 271.136719 209.605469 270.78125 C 208.726562 270.425781 207.875 270.082031 207.042969 269.746094 C 206.210938 269.414062 205.40625 269.097656 204.632812 268.757812 C 203.09375 268.070312 201.652344 267.4375 200.335938 266.828125 C 199.015625 266.210938 197.816406 265.609375 196.738281 265.070312 C 196.199219 264.800781 195.691406 264.542969 195.210938 264.300781 C 194.730469 264.0625 194.296875 263.8125 193.882812 263.59375 C 193.0625 263.148438 192.367188 262.761719 191.808594 262.449219 C 190.683594 261.808594 190.085938 261.46875 190.085938 261.46875 " fill-opacity="1" fill-rule="nonzero"/></g></g></g><g clip-path="url(#6919d0fcc4)"><g clip-path="url(#8e7021a373)"><g clip-path="url(#091a376d02)"><path fill="#ffffff" d="M 29.144531 262.050781 C 29.144531 262.050781 29.253906 262.011719 29.464844 261.929688 C 29.675781 261.851562 29.988281 261.730469 30.398438 261.582031 C 30.808594 261.433594 31.3125 261.25 31.910156 261.042969 C 32.207031 260.9375 32.527344 260.828125 32.871094 260.710938 C 33.21875 260.605469 33.585938 260.492188 33.976562 260.375 C 34.757812 260.132812 35.628906 259.882812 36.582031 259.609375 C 37.535156 259.359375 38.570312 259.121094 39.679688 258.847656 C 39.957031 258.785156 40.238281 258.707031 40.527344 258.648438 C 40.816406 258.59375 41.109375 258.535156 41.40625 258.476562 C 42 258.363281 42.613281 258.242188 43.242188 258.117188 C 43.558594 258.058594 43.875 257.988281 44.199219 257.9375 C 44.527344 257.886719 44.855469 257.835938 45.1875 257.789062 C 45.851562 257.6875 46.535156 257.585938 47.230469 257.476562 C 47.929688 257.359375 48.644531 257.300781 49.375 257.214844 C 50.105469 257.140625 50.847656 257.0625 51.605469 256.984375 C 52.363281 256.925781 53.136719 256.878906 53.921875 256.828125 C 54.316406 256.800781 54.710938 256.777344 55.113281 256.753906 C 55.511719 256.726562 55.914062 256.726562 56.316406 256.710938 C 57.128906 256.691406 57.953125 256.675781 58.785156 256.65625 C 59.617188 256.636719 60.457031 256.667969 61.3125 256.679688 C 61.738281 256.6875 62.167969 256.691406 62.597656 256.703125 C 63.03125 256.703125 63.460938 256.742188 63.894531 256.761719 C 64.765625 256.808594 65.644531 256.859375 66.53125 256.910156 C 70.066406 257.199219 73.714844 257.652344 77.382812 258.335938 C 81.042969 259.042969 84.730469 259.9375 88.355469 261.023438 C 91.972656 262.136719 95.53125 263.425781 98.964844 264.847656 C 102.390625 266.292969 105.679688 267.882812 108.792969 269.535156 C 109.570312 269.957031 110.328125 270.386719 111.085938 270.808594 C 111.460938 271.019531 111.835938 271.230469 112.210938 271.441406 C 112.578125 271.660156 112.941406 271.878906 113.304688 272.097656 C 114.03125 272.53125 114.75 272.960938 115.453125 273.398438 C 116.148438 273.84375 116.835938 274.285156 117.511719 274.722656 C 117.851562 274.941406 118.183594 275.160156 118.515625 275.375 C 118.84375 275.601562 119.167969 275.824219 119.492188 276.042969 C 120.132812 276.488281 120.765625 276.925781 121.386719 277.355469 C 122.003906 277.792969 122.601562 278.238281 123.1875 278.671875 C 123.769531 279.109375 124.351562 279.523438 124.902344 279.957031 C 125.453125 280.390625 125.988281 280.816406 126.515625 281.230469 C 127.039062 281.648438 127.558594 282.039062 128.042969 282.457031 C 128.53125 282.871094 129.003906 283.269531 129.46875 283.660156 C 129.925781 284.050781 130.382812 284.417969 130.800781 284.804688 C 131.644531 285.5625 132.4375 286.265625 133.15625 286.933594 C 133.871094 287.609375 134.523438 288.230469 135.105469 288.800781 C 135.394531 289.085938 135.671875 289.355469 135.929688 289.609375 C 136.1875 289.863281 136.417969 290.113281 136.640625 290.339844 C 137.082031 290.792969 137.449219 291.183594 137.75 291.503906 C 138.050781 291.820312 138.273438 292.070312 138.425781 292.234375 C 138.578125 292.402344 138.65625 292.488281 138.65625 292.488281 C 138.65625 292.488281 138.554688 292.429688 138.355469 292.328125 C 138.15625 292.21875 137.855469 292.066406 137.472656 291.859375 C 136.703125 291.449219 135.597656 290.816406 134.175781 290.050781 C 133.460938 289.667969 132.6875 289.222656 131.839844 288.757812 C 130.976562 288.304688 130.066406 287.789062 129.085938 287.253906 C 128.101562 286.726562 127.058594 286.164062 125.957031 285.570312 C 124.855469 284.980469 123.691406 284.375 122.484375 283.738281 C 121.273438 283.117188 120.011719 282.46875 118.703125 281.800781 C 118.046875 281.472656 117.378906 281.144531 116.699219 280.804688 C 116.363281 280.636719 116.023438 280.464844 115.679688 280.292969 C 115.332031 280.128906 114.984375 279.964844 114.636719 279.796875 C 113.9375 279.460938 113.226562 279.117188 112.511719 278.769531 C 111.789062 278.4375 111.058594 278.097656 110.320312 277.757812 C 109.953125 277.585938 109.582031 277.417969 109.210938 277.242188 C 108.835938 277.074219 108.457031 276.910156 108.078125 276.738281 C 107.324219 276.402344 106.558594 276.0625 105.789062 275.722656 C 102.695312 274.390625 99.480469 273.085938 96.191406 271.84375 C 92.890625 270.625 89.515625 269.476562 86.109375 268.429688 C 82.699219 267.402344 79.261719 266.492188 75.847656 265.691406 C 72.433594 264.914062 69.042969 264.273438 65.746094 263.722656 C 64.089844 263.492188 62.464844 263.214844 60.859375 263.039062 C 60.460938 262.988281 60.0625 262.941406 59.664062 262.890625 C 59.269531 262.84375 58.875 262.785156 58.484375 262.75 C 57.695312 262.671875 56.917969 262.59375 56.152344 262.519531 C 55.386719 262.429688 54.628906 262.382812 53.878906 262.328125 C 53.132812 262.265625 52.394531 262.207031 51.667969 262.152344 C 50.941406 262.113281 50.226562 262.078125 49.523438 262.039062 C 48.820312 262.003906 48.132812 261.953125 47.453125 261.9375 C 44.742188 261.835938 42.246094 261.804688 40.019531 261.804688 C 38.910156 261.8125 37.867188 261.832031 36.898438 261.828125 C 35.9375 261.855469 35.050781 261.882812 34.246094 261.898438 C 33.84375 261.90625 33.460938 261.914062 33.101562 261.921875 C 32.742188 261.9375 32.402344 261.949219 32.085938 261.964844 C 31.457031 261.992188 30.917969 262.007812 30.484375 262.023438 C 30.046875 262.039062 29.710938 262.039062 29.488281 262.042969 C 29.261719 262.050781 29.144531 262.050781 29.144531 262.050781 " fill-opacity="1" fill-rule="nonzero"/></g></g></g><path fill="#276ecc" d="M 278.648438 155.421875 L 271.554688 155.421875 L 261.785156 165.121094 L 271.117188 165.121094 L 278.648438 155.421875 " fill-opacity="1" fill-rule="nonzero"/><path fill="#276ecc" d="M 288.445312 165.121094 L 281.621094 156.339844 L 274.800781 165.121094 Z M 288.445312 165.121094 " fill-opacity="1" fill-rule="nonzero"/><path fill="#276ecc" d="M 301.648438 165.121094 L 292.625 155.421875 L 284.59375 155.421875 L 292.128906 165.121094 L 301.648438 165.121094 " fill-opacity="1" fill-rule="nonzero"/><path fill="#276ecc" d="M 261.410156 168.027344 L 277.582031 186.953125 L 270.804688 168.027344 Z M 261.410156 168.027344 " fill-opacity="1" fill-rule="nonzero"/><path fill="#276ecc" d="M 285.660156 186.953125 L 301.835938 168.027344 L 292.441406 168.027344 Z M 285.660156 186.953125 " fill-opacity="1" fill-rule="nonzero"/><g clip-path="url(#2f4b0ebe7f)"><path fill="#276ecc" d="M 306.144531 167.457031 C 306.128906 167.476562 306.113281 167.496094 306.097656 167.519531 L 282.726562 194.863281 C 282.179688 195.535156 281.0625 195.535156 280.515625 194.863281 L 257.148438 167.519531 C 256.65625 166.964844 256.695312 166.054688 257.230469 165.542969 L 269.929688 152.9375 C 270.203125 152.664062 270.570312 152.515625 270.957031 152.515625 L 293.257812 152.515625 C 293.660156 152.515625 294.046875 152.683594 294.324219 152.976562 L 306.054688 165.582031 C 306.53125 166.082031 306.574219 166.914062 306.144531 167.457031 Z M 307.144531 164.566406 L 295.410156 151.960938 C 294.855469 151.367188 294.070312 151.023438 293.257812 151.023438 L 270.957031 151.023438 C 270.171875 151.023438 269.4375 151.328125 268.882812 151.878906 L 256.195312 164.46875 C 255.085938 165.535156 255.011719 167.347656 256.015625 168.488281 L 279.363281 195.804688 C 279.90625 196.472656 280.730469 196.855469 281.621094 196.855469 C 282.511719 196.855469 283.335938 196.472656 283.859375 195.832031 L 307.230469 168.488281 C 307.242188 168.472656 307.300781 168.394531 307.3125 168.378906 C 308.195312 167.265625 308.117188 165.585938 307.144531 164.566406 " fill-opacity="1" fill-rule="nonzero"/></g><path fill="#276ecc" d="M 273.894531 168.027344 L 281.621094 189.605469 L 289.351562 168.027344 Z M 273.894531 168.027344 " fill-opacity="1" fill-rule="nonzero"/><g clip-path="url(#6abb9909a0)"><path fill="#276ecc" d="M 308.902344 114.332031 C 290.71875 109.359375 272.480469 109.570312 254.113281 114.441406 C 251.148438 104.050781 246.5625 94.328125 241.160156 84.996094 C 238.910156 85.445312 237.625 84.988281 236.980469 83.566406 C 236.402344 82.296875 236.820312 80.773438 237.953125 79.988281 C 239.078125 79.210938 240.554688 79.308594 241.550781 80.222656 C 242.714844 81.292969 242.753906 82.714844 241.601562 84.652344 C 246.820312 90.097656 252.152344 95.429688 259.734375 97.605469 C 265.273438 99.195312 269.890625 97.703125 273.527344 93.242188 C 276.609375 89.457031 278.269531 84.988281 279.601562 80.378906 C 280.089844 78.699219 280.464844 76.984375 280.882812 75.324219 C 278.117188 73.78125 277.269531 72.335938 277.847656 70.265625 C 278.34375 68.480469 279.972656 67.292969 281.785156 67.386719 C 283.550781 67.476562 285.097656 68.8125 285.40625 70.515625 C 285.785156 72.582031 284.84375 74.074219 282.292969 75.246094 C 282.71875 76.9375 283.117188 78.679688 283.601562 80.394531 C 284.800781 84.648438 286.347656 88.757812 288.980469 92.367188 C 291.703125 96.105469 295.242188 98.464844 300.015625 98.238281 C 302.875 98.101562 305.609375 97.195312 308.125 95.796875 C 313.308594 92.914062 317.648438 89.003906 321.632812 84.546875 C 321.445312 84.230469 321.246094 83.929688 321.085938 83.609375 C 320.464844 82.382812 320.753906 80.941406 321.785156 80.070312 C 322.769531 79.238281 324.226562 79.171875 325.285156 79.914062 C 326.394531 80.6875 326.820312 82.105469 326.320312 83.371094 C 325.832031 84.605469 324.476562 85.484375 323.183594 85.09375 C 322.160156 84.785156 321.863281 85.25 321.46875 85.953125 C 318.367188 91.515625 315.339844 97.109375 313.101562 103.089844 C 311.707031 106.804688 310.320312 110.527344 308.902344 114.332031 Z M 308.902344 114.332031 " fill-opacity="1" fill-rule="nonzero"/></g><g clip-path="url(#838914d3f2)"><path fill="#276ecc" d="M 255.8125 122.714844 C 255.527344 121.066406 255.265625 119.550781 254.960938 117.769531 C 272.71875 113.039062 290.402344 112.734375 308.257812 117.664062 C 308.082031 118.644531 307.933594 119.449219 307.792969 120.261719 C 307.65625 121.039062 307.53125 121.816406 307.394531 122.644531 C 290.191406 118.261719 273.042969 118.449219 255.8125 122.714844 Z M 255.8125 122.714844 " fill-opacity="1" fill-rule="nonzero"/></g><path fill="#276ecc" d="M 262.890625 85.148438 C 264.882812 88.449219 266.863281 91.726562 268.875 95.050781 C 267.421875 96.503906 263.21875 97.195312 261.195312 96.234375 C 261.550781 92.554688 261.898438 88.910156 262.246094 85.355469 C 259.816406 84.230469 259.15625 83.421875 259.351562 82 C 259.511719 80.84375 260.414062 79.917969 261.558594 79.726562 C 262.707031 79.535156 263.851562 80.125 264.375 81.167969 C 264.992188 82.410156 264.625 83.566406 262.890625 85.148438 Z M 262.890625 85.148438 " fill-opacity="1" fill-rule="nonzero"/><path fill="#276ecc" d="M 300.285156 85.164062 C 298.496094 83.449219 298.167969 82.355469 298.855469 81.082031 C 299.40625 80.066406 300.605469 79.503906 301.730469 79.738281 C 302.914062 79.984375 303.777344 81.011719 303.828125 82.234375 C 303.882812 83.6875 303.15625 84.511719 300.949219 85.234375 C 301.292969 88.839844 301.644531 92.523438 302 96.238281 C 299.835938 97.097656 296.359375 96.585938 294.277344 95.101562 C 296.300781 91.757812 298.3125 88.425781 300.285156 85.164062 Z M 300.285156 85.164062 " fill-opacity="1" fill-rule="nonzero"/><g fill="#56a4d1" fill-opacity="1"><g transform="translate(171.769769, 250.696052)"><g><path d="M 6.375 0.28125 C 5.082031 0.28125 3.84375 0.109375 2.65625 -0.234375 C 1.476562 -0.578125 0.53125 -1.015625 -0.1875 -1.546875 L 1.359375 -4.453125 C 2.097656 -3.910156 2.9375 -3.488281 3.875 -3.1875 C 4.8125 -2.894531 5.769531 -2.75 6.75 -2.75 C 7.789062 -2.75 8.613281 -2.921875 9.21875 -3.265625 C 9.820312 -3.609375 10.125 -4.078125 10.125 -4.671875 C 10.125 -5.148438 9.882812 -5.515625 9.40625 -5.765625 C 8.925781 -6.023438 8.15625 -6.304688 7.09375 -6.609375 C 6.039062 -6.921875 5.175781 -7.21875 4.5 -7.5 C 3.832031 -7.789062 3.253906 -8.222656 2.765625 -8.796875 C 2.273438 -9.378906 2.03125 -10.144531 2.03125 -11.09375 C 2.03125 -12.195312 2.335938 -13.164062 2.953125 -14 C 3.566406 -14.84375 4.4375 -15.488281 5.5625 -15.9375 C 6.695312 -16.394531 8.007812 -16.625 9.5 -16.625 C 10.601562 -16.625 11.644531 -16.5 12.625 -16.25 C 13.601562 -16.007812 14.445312 -15.664062 15.15625 -15.21875 L 13.71875 -12.328125 C 13.113281 -12.742188 12.429688 -13.054688 11.671875 -13.265625 C 10.910156 -13.484375 10.117188 -13.59375 9.296875 -13.59375 C 8.222656 -13.59375 7.375 -13.40625 6.75 -13.03125 C 6.125 -12.65625 5.8125 -12.171875 5.8125 -11.578125 C 5.8125 -11.222656 5.941406 -10.921875 6.203125 -10.671875 C 6.472656 -10.429688 6.804688 -10.238281 7.203125 -10.09375 C 7.609375 -9.945312 8.179688 -9.773438 8.921875 -9.578125 C 9.960938 -9.296875 10.816406 -9.007812 11.484375 -8.71875 C 12.148438 -8.425781 12.71875 -8.003906 13.1875 -7.453125 C 13.664062 -6.898438 13.90625 -6.175781 13.90625 -5.28125 C 13.90625 -4.15625 13.59375 -3.175781 12.96875 -2.34375 C 12.351562 -1.507812 11.476562 -0.863281 10.34375 -0.40625 C 9.207031 0.0507812 7.882812 0.28125 6.375 0.28125 Z M 6.375 0.28125 "/></g></g></g><g fill="#56a4d1" fill-opacity="1"><g transform="translate(191.1429, 250.696052)"><g><path d="M 3.9375 -16.34375 L 7.75 -16.34375 L 4.484375 0 L 0.671875 0 Z M 3.9375 -16.34375 "/></g></g></g><g fill="#56a4d1" fill-opacity="1"><g transform="translate(203.281422, 250.696052)"><g><path d="M 22.34375 -16.34375 L 19.09375 0 L 15.546875 0 L 17.46875 -9.71875 L 11.234375 -1.734375 L 9.546875 -1.734375 L 6.1875 -9.796875 L 4.21875 0 L 0.671875 0 L 3.9375 -16.34375 L 7.03125 -16.34375 L 11.109375 -6.15625 L 19.09375 -16.34375 Z M 22.34375 -16.34375 "/></g></g></g><g fill="#56a4d1" fill-opacity="1"><g transform="translate(230.052507, 250.696052)"><g><path d="M 10.546875 -16.34375 C 12.585938 -16.34375 14.164062 -15.894531 15.28125 -15 C 16.394531 -14.101562 16.953125 -12.851562 16.953125 -11.25 C 16.953125 -9.882812 16.628906 -8.691406 15.984375 -7.671875 C 15.335938 -6.648438 14.414062 -5.863281 13.21875 -5.3125 C 12.03125 -4.769531 10.628906 -4.5 9.015625 -4.5 L 5.375 -4.5 L 4.484375 0 L 0.671875 0 L 3.9375 -16.34375 Z M 9.171875 -7.59375 C 10.429688 -7.59375 11.40625 -7.878906 12.09375 -8.453125 C 12.78125 -9.023438 13.125 -9.847656 13.125 -10.921875 C 13.125 -11.703125 12.863281 -12.285156 12.34375 -12.671875 C 11.820312 -13.066406 11.066406 -13.265625 10.078125 -13.265625 L 7.125 -13.265625 L 5.96875 -7.59375 Z M 9.171875 -7.59375 "/></g></g></g><g clip-path="url(#6726b21d38)"><g clip-path="url(#727813decc)"><g clip-path="url(#e0758efe00)"><path fill="#56a4d1" d="M 254.644531 243.261719 C 255.839844 239.554688 259.8125 237.519531 263.515625 238.714844 C 267.222656 239.910156 269.257812 243.878906 268.0625 247.585938 C 266.925781 251.125 263.25 253.140625 259.695312 252.277344 C 264.152344 253.429688 268.789062 250.917969 270.222656 246.480469 C 271.707031 241.875 269.175781 236.9375 264.570312 235.453125 C 259.960938 233.96875 255.027344 236.496094 253.539062 241.105469 C 252.109375 245.542969 254.410156 250.289062 258.699219 251.957031 C 255.308594 250.578125 253.503906 246.800781 254.644531 243.261719 Z M 254.644531 243.261719 " fill-opacity="1" fill-rule="evenodd"/></g></g></g><g clip-path="url(#1110a080e4)"><g clip-path="url(#cdaa2ece2e)"><g clip-path="url(#c808f23bfd)"><path fill="#56a4d1" d="M 260.613281 239.917969 C 258.582031 240.269531 256.808594 241.707031 256.132812 243.804688 C 255.164062 246.816406 256.816406 250.042969 259.824219 251.011719 C 262.835938 251.980469 266.058594 250.328125 267.03125 247.320312 C 267.707031 245.222656 267.109375 243.015625 265.664062 241.546875 C 266.429688 242.640625 266.695312 244.066406 266.253906 245.433594 C 265.507812 247.753906 263.023438 249.027344 260.707031 248.277344 C 258.386719 247.53125 257.113281 245.046875 257.863281 242.730469 C 258.304688 241.363281 259.351562 240.359375 260.613281 239.917969 Z M 260.613281 239.917969 " fill-opacity="1" fill-rule="evenodd"/></g></g></g><g fill="#ffffff" fill-opacity="1"><g transform="translate(131.812496, 345.374977)"><g><path d="M 1.984375 0 L 1.984375 -15.703125 L 5.3125 -15.703125 L 5.3125 -2.75 L 11.671875 -2.75 L 11.671875 0 Z M 1.984375 0 "/></g></g></g><g fill="#ffffff" fill-opacity="1"><g transform="translate(144.239005, 345.374977)"><g><path d="M 4.328125 -6.03125 C 4.328125 -4.84375 4.519531 -3.941406 4.90625 -3.328125 C 5.300781 -2.722656 5.941406 -2.421875 6.828125 -2.421875 C 7.691406 -2.421875 8.316406 -2.722656 8.703125 -3.328125 C 9.085938 -3.929688 9.28125 -4.832031 9.28125 -6.03125 C 9.28125 -7.21875 9.085938 -8.109375 8.703125 -8.703125 C 8.316406 -9.296875 7.679688 -9.59375 6.796875 -9.59375 C 5.921875 -9.59375 5.289062 -9.296875 4.90625 -8.703125 C 4.519531 -8.117188 4.328125 -7.226562 4.328125 -6.03125 Z M 12.640625 -6.03125 C 12.640625 -4.070312 12.125 -2.539062 11.09375 -1.4375 C 10.0625 -0.332031 8.625 0.21875 6.78125 0.21875 C 5.625 0.21875 4.601562 -0.03125 3.71875 -0.53125 C 2.84375 -1.039062 2.164062 -1.769531 1.6875 -2.71875 C 1.21875 -3.664062 0.984375 -4.769531 0.984375 -6.03125 C 0.984375 -7.988281 1.492188 -9.507812 2.515625 -10.59375 C 3.546875 -11.6875 4.988281 -12.234375 6.84375 -12.234375 C 8 -12.234375 9.015625 -11.984375 9.890625 -11.484375 C 10.773438 -10.984375 11.453125 -10.265625 11.921875 -9.328125 C 12.398438 -8.390625 12.640625 -7.289062 12.640625 -6.03125 Z M 12.640625 -6.03125 "/></g></g></g><g fill="#ffffff" fill-opacity="1"><g transform="translate(157.857679, 345.374977)"><g><path d="M 9.34375 0 L 8.71875 -1.640625 L 8.625 -1.640625 C 8.070312 -0.941406 7.503906 -0.457031 6.921875 -0.1875 C 6.335938 0.0820312 5.578125 0.21875 4.640625 0.21875 C 3.484375 0.21875 2.570312 -0.109375 1.90625 -0.765625 C 1.25 -1.429688 0.921875 -2.375 0.921875 -3.59375 C 0.921875 -4.863281 1.363281 -5.800781 2.25 -6.40625 C 3.144531 -7.007812 4.492188 -7.34375 6.296875 -7.40625 L 8.375 -7.484375 L 8.375 -8 C 8.375 -9.21875 7.753906 -9.828125 6.515625 -9.828125 C 5.554688 -9.828125 4.425781 -9.535156 3.125 -8.953125 L 2.046875 -11.171875 C 3.421875 -11.890625 4.953125 -12.25 6.640625 -12.25 C 8.253906 -12.25 9.488281 -11.898438 10.34375 -11.203125 C 11.207031 -10.503906 11.640625 -9.4375 11.640625 -8 L 11.640625 0 Z M 8.375 -5.5625 L 7.109375 -5.515625 C 6.160156 -5.492188 5.453125 -5.320312 4.984375 -5 C 4.515625 -4.6875 4.28125 -4.207031 4.28125 -3.5625 C 4.28125 -2.644531 4.8125 -2.1875 5.875 -2.1875 C 6.632812 -2.1875 7.238281 -2.398438 7.6875 -2.828125 C 8.144531 -3.265625 8.375 -3.847656 8.375 -4.578125 Z M 8.375 -5.5625 "/></g></g></g><g fill="#ffffff" fill-opacity="1"><g transform="translate(171.143411, 345.374977)"><g><path d="M 5.515625 0.21875 C 4.109375 0.21875 3 -0.328125 2.1875 -1.421875 C 1.382812 -2.523438 0.984375 -4.046875 0.984375 -5.984375 C 0.984375 -7.953125 1.394531 -9.484375 2.21875 -10.578125 C 3.039062 -11.679688 4.171875 -12.234375 5.609375 -12.234375 C 7.117188 -12.234375 8.269531 -11.644531 9.0625 -10.46875 L 9.171875 -10.46875 C 9.003906 -11.363281 8.921875 -12.164062 8.921875 -12.875 L 8.921875 -16.71875 L 12.21875 -16.71875 L 12.21875 0 L 9.703125 0 L 9.0625 -1.5625 L 8.921875 -1.5625 C 8.179688 -0.375 7.046875 0.21875 5.515625 0.21875 Z M 6.671875 -2.390625 C 7.503906 -2.390625 8.113281 -2.632812 8.5 -3.125 C 8.894531 -3.613281 9.113281 -4.441406 9.15625 -5.609375 L 9.15625 -5.96875 C 9.15625 -7.25 8.953125 -8.171875 8.546875 -8.734375 C 8.148438 -9.296875 7.507812 -9.578125 6.625 -9.578125 C 5.882812 -9.578125 5.3125 -9.265625 4.90625 -8.640625 C 4.507812 -8.023438 4.3125 -7.125 4.3125 -5.9375 C 4.3125 -4.757812 4.515625 -3.875 4.921875 -3.28125 C 5.328125 -2.6875 5.910156 -2.390625 6.671875 -2.390625 Z M 6.671875 -2.390625 "/></g></g></g><g fill="#ffffff" fill-opacity="1"><g transform="translate(185.062813, 345.374977)"><g><path d="M 1.578125 -15.109375 C 1.578125 -16.179688 2.171875 -16.71875 3.359375 -16.71875 C 4.546875 -16.71875 5.140625 -16.179688 5.140625 -15.109375 C 5.140625 -14.609375 4.988281 -14.210938 4.6875 -13.921875 C 4.394531 -13.640625 3.953125 -13.5 3.359375 -13.5 C 2.171875 -13.5 1.578125 -14.035156 1.578125 -15.109375 Z M 5 0 L 1.71875 0 L 1.71875 -12.015625 L 5 -12.015625 Z M 5 0 "/></g></g></g><g fill="#ffffff" fill-opacity="1"><g transform="translate(191.775494, 345.374977)"><g><path d="M 12.8125 0 L 9.53125 0 L 9.53125 -7.015625 C 9.53125 -7.878906 9.375 -8.523438 9.0625 -8.953125 C 8.757812 -9.390625 8.269531 -9.609375 7.59375 -9.609375 C 6.675781 -9.609375 6.015625 -9.300781 5.609375 -8.6875 C 5.203125 -8.082031 5 -7.070312 5 -5.65625 L 5 0 L 1.71875 0 L 1.71875 -12.015625 L 4.21875 -12.015625 L 4.65625 -10.46875 L 4.84375 -10.46875 C 5.207031 -11.050781 5.707031 -11.488281 6.34375 -11.78125 C 6.988281 -12.082031 7.722656 -12.234375 8.546875 -12.234375 C 9.941406 -12.234375 11 -11.851562 11.71875 -11.09375 C 12.445312 -10.34375 12.8125 -9.253906 12.8125 -7.828125 Z M 12.8125 0 "/></g></g></g><g fill="#ffffff" fill-opacity="1"><g transform="translate(206.23191, 345.374977)"><g><path d="M 12.171875 -12.015625 L 12.171875 -10.34375 L 10.296875 -9.859375 C 10.640625 -9.328125 10.8125 -8.726562 10.8125 -8.0625 C 10.8125 -6.769531 10.359375 -5.765625 9.453125 -5.046875 C 8.554688 -4.328125 7.3125 -3.96875 5.71875 -3.96875 L 5.125 -4 L 4.640625 -4.046875 C 4.304688 -3.785156 4.140625 -3.5 4.140625 -3.1875 C 4.140625 -2.71875 4.738281 -2.484375 5.9375 -2.484375 L 7.984375 -2.484375 C 9.296875 -2.484375 10.296875 -2.195312 10.984375 -1.625 C 11.679688 -1.0625 12.03125 -0.234375 12.03125 0.859375 C 12.03125 2.265625 11.441406 3.351562 10.265625 4.125 C 9.097656 4.894531 7.421875 5.28125 5.234375 5.28125 C 3.554688 5.28125 2.273438 4.988281 1.390625 4.40625 C 0.503906 3.820312 0.0625 3.003906 0.0625 1.953125 C 0.0625 1.234375 0.285156 0.628906 0.734375 0.140625 C 1.191406 -0.347656 1.859375 -0.695312 2.734375 -0.90625 C 2.390625 -1.050781 2.09375 -1.285156 1.84375 -1.609375 C 1.59375 -1.929688 1.46875 -2.273438 1.46875 -2.640625 C 1.46875 -3.097656 1.597656 -3.476562 1.859375 -3.78125 C 2.128906 -4.09375 2.515625 -4.394531 3.015625 -4.6875 C 2.390625 -4.957031 1.890625 -5.390625 1.515625 -5.984375 C 1.148438 -6.585938 0.96875 -7.300781 0.96875 -8.125 C 0.96875 -9.4375 1.394531 -10.445312 2.25 -11.15625 C 3.101562 -11.875 4.316406 -12.234375 5.890625 -12.234375 C 6.234375 -12.234375 6.632812 -12.203125 7.09375 -12.140625 C 7.550781 -12.078125 7.847656 -12.035156 7.984375 -12.015625 Z M 2.90625 1.703125 C 2.90625 2.148438 3.117188 2.5 3.546875 2.75 C 3.984375 3.007812 4.59375 3.140625 5.375 3.140625 C 6.550781 3.140625 7.46875 2.976562 8.125 2.65625 C 8.789062 2.34375 9.125 1.90625 9.125 1.34375 C 9.125 0.894531 8.925781 0.582031 8.53125 0.40625 C 8.144531 0.238281 7.539062 0.15625 6.71875 0.15625 L 5.015625 0.15625 C 4.410156 0.15625 3.90625 0.296875 3.5 0.578125 C 3.101562 0.859375 2.90625 1.234375 2.90625 1.703125 Z M 4.09375 -8.078125 C 4.09375 -7.421875 4.238281 -6.90625 4.53125 -6.53125 C 4.832031 -6.15625 5.285156 -5.96875 5.890625 -5.96875 C 6.515625 -5.96875 6.96875 -6.15625 7.25 -6.53125 C 7.539062 -6.90625 7.6875 -7.421875 7.6875 -8.078125 C 7.6875 -9.523438 7.085938 -10.25 5.890625 -10.25 C 4.691406 -10.25 4.09375 -9.523438 4.09375 -8.078125 Z M 4.09375 -8.078125 "/></g></g></g><g fill="#ffffff" fill-opacity="1"><g transform="translate(218.658419, 345.374977)"><g/></g></g><g fill="#ffffff" fill-opacity="1"><g transform="translate(224.372248, 345.374977)"><g><path d="M 1.25 -1.53125 C 1.25 -2.132812 1.410156 -2.585938 1.734375 -2.890625 C 2.054688 -3.203125 2.523438 -3.359375 3.140625 -3.359375 C 3.742188 -3.359375 4.207031 -3.203125 4.53125 -2.890625 C 4.851562 -2.578125 5.015625 -2.125 5.015625 -1.53125 C 5.015625 -0.96875 4.847656 -0.519531 4.515625 -0.1875 C 4.191406 0.132812 3.734375 0.296875 3.140625 0.296875 C 2.546875 0.296875 2.082031 0.132812 1.75 -0.1875 C 1.414062 -0.507812 1.25 -0.957031 1.25 -1.53125 Z M 1.25 -1.53125 "/></g></g></g><g fill="#ffffff" fill-opacity="1"><g transform="translate(230.644571, 345.374977)"><g><path d="M 1.25 -1.53125 C 1.25 -2.132812 1.410156 -2.585938 1.734375 -2.890625 C 2.054688 -3.203125 2.523438 -3.359375 3.140625 -3.359375 C 3.742188 -3.359375 4.207031 -3.203125 4.53125 -2.890625 C 4.851562 -2.578125 5.015625 -2.125 5.015625 -1.53125 C 5.015625 -0.96875 4.847656 -0.519531 4.515625 -0.1875 C 4.191406 0.132812 3.734375 0.296875 3.140625 0.296875 C 2.546875 0.296875 2.082031 0.132812 1.75 -0.1875 C 1.414062 -0.507812 1.25 -0.957031 1.25 -1.53125 Z M 1.25 -1.53125 "/></g></g></g><g fill="#ffffff" fill-opacity="1"><g transform="translate(236.916894, 345.374977)"><g><path d="M 1.25 -1.53125 C 1.25 -2.132812 1.410156 -2.585938 1.734375 -2.890625 C 2.054688 -3.203125 2.523438 -3.359375 3.140625 -3.359375 C 3.742188 -3.359375 4.207031 -3.203125 4.53125 -2.890625 C 4.851562 -2.578125 5.015625 -2.125 5.015625 -1.53125 C 5.015625 -0.96875 4.847656 -0.519531 4.515625 -0.1875 C 4.191406 0.132812 3.734375 0.296875 3.140625 0.296875 C 2.546875 0.296875 2.082031 0.132812 1.75 -0.1875 C 1.414062 -0.507812 1.25 -0.957031 1.25 -1.53125 Z M 1.25 -1.53125 "/></g></g></g></svg>