<svg xmlns="http://www.w3.org/2000/svg" xmlns:xlink="http://www.w3.org/1999/xlink" width="191" zoomAndPan="magnify" viewBox="0 0 143.25 80.249996" height="107" preserveAspectRatio="xMidYMid meet" version="1.0"><defs><g/><clipPath id="a77f9c64c1"><path d="M 0.292969 0 L 142.214844 0 L 142.214844 79.230469 L 0.292969 79.230469 Z M 0.292969 0 " clip-rule="nonzero"/></clipPath><clipPath id="fe445c6a90"><path d="M 6.234375 0 L 136.269531 0 C 137.847656 0 139.359375 0.625 140.472656 1.742188 C 141.589844 2.855469 142.214844 4.367188 142.214844 5.945312 L 142.214844 73.285156 C 142.214844 74.859375 141.589844 76.371094 140.472656 77.488281 C 139.359375 78.601562 137.847656 79.230469 136.269531 79.230469 L 6.234375 79.230469 C 4.660156 79.230469 3.148438 78.601562 2.03125 77.488281 C 0.917969 76.371094 0.292969 74.859375 0.292969 73.285156 L 0.292969 5.945312 C 0.292969 4.367188 0.917969 2.855469 2.03125 1.742188 C 3.148438 0.625 4.660156 0 6.234375 0 Z M 6.234375 0 " clip-rule="nonzero"/></clipPath><clipPath id="76f657cb41"><path d="M 39.0625 22.132812 L 54.285156 22.132812 L 54.285156 53.257812 L 39.0625 53.257812 Z M 39.0625 22.132812 " clip-rule="nonzero"/></clipPath><clipPath id="759d2a3c5c"><path d="M 52.875 22.210938 C 51.335938 22.210938 49.816406 22.441406 48.375 22.917969 C 45.328125 23.925781 42.945312 25.816406 41.238281 28.617188 C 39.953125 30.730469 39.253906 32.976562 39.152344 35.382812 C 39.054688 37.578125 39.664062 39.671875 40.65625 41.640625 C 41.636719 43.585938 43.109375 45.089844 44.773438 46.480469 C 46.117188 47.597656 46.988281 49.058594 47.105469 50.898438 C 47.132812 51.3125 47.054688 51.472656 46.691406 51.472656 C 46.6875 51.472656 46.679688 51.472656 46.675781 51.472656 C 46.664062 51.472656 46.65625 51.472656 46.648438 51.472656 C 46.109375 51.472656 45.792969 51.695312 45.816406 52.265625 C 45.839844 52.882812 46.207031 53.183594 46.804688 53.183594 L 52.925781 53.179688 C 52.925781 53.179688 52.929688 53.179688 52.929688 53.179688 C 53.25 53.179688 53.40625 53.082031 53.378906 52.742188 L 53.378906 52.054688 C 53.449219 51.566406 53.257812 51.445312 52.84375 51.445312 C 52.808594 51.445312 52.773438 51.445312 52.734375 51.449219 L 49.445312 51.484375 C 49.417969 51.488281 49.390625 51.488281 49.363281 51.488281 C 48.882812 51.488281 48.726562 51.304688 48.777344 50.792969 C 48.859375 49.941406 48.632812 49.148438 48.171875 48.382812 C 48.253906 48.332031 48.324219 48.316406 48.390625 48.316406 C 48.484375 48.316406 48.570312 48.351562 48.65625 48.375 C 49.742188 48.648438 50.828125 48.917969 51.960938 48.917969 C 51.976562 48.917969 51.996094 48.917969 52.011719 48.917969 C 52.378906 48.914062 52.632812 48.933594 52.492188 48.386719 C 52.371094 47.933594 52.355469 47.394531 52.480469 46.945312 C 52.644531 46.363281 52.394531 46.253906 52.066406 46.253906 C 51.988281 46.253906 51.902344 46.257812 51.824219 46.265625 C 51.6875 46.277344 51.550781 46.285156 51.414062 46.285156 C 50.605469 46.285156 49.816406 46.066406 49.140625 45.769531 C 47.921875 45.230469 46.621094 44.78125 45.632812 43.738281 C 44.828125 42.890625 43.984375 42.105469 43.410156 41.078125 C 41.683594 37.996094 41.300781 34.796875 42.703125 31.511719 C 44.136719 28.164062 46.574219 25.9375 50.214844 25.1875 C 50.640625 25.101562 50.941406 25.042969 51.148438 25.042969 C 51.625 25.042969 51.625 25.355469 51.625 26.367188 L 51.621094 33.785156 C 51.621094 34.070312 51.5 34.445312 51.984375 34.46875 C 52.371094 34.488281 52.753906 34.519531 53.140625 34.519531 C 53.289062 34.519531 53.4375 34.515625 53.585938 34.503906 C 53.9375 34.476562 54.265625 34.402344 54.261719 33.84375 L 54.253906 22.75 C 54.253906 22.394531 54.1875 22.261719 53.808594 22.238281 C 53.496094 22.21875 53.1875 22.210938 52.875 22.210938 Z M 52.875 22.210938 " clip-rule="nonzero"/></clipPath><clipPath id="68ca1e1fb4"><path d="M 43.285156 26.355469 L 62.828125 26.355469 L 62.828125 45.207031 L 43.285156 45.207031 Z M 43.285156 26.355469 " clip-rule="nonzero"/></clipPath><clipPath id="27306a3bfb"><path d="M 56.261719 26.429688 C 56.261719 27.019531 56.320312 27.578125 56.246094 28.121094 C 56.15625 28.785156 56.492188 29.128906 56.980469 29.441406 C 58.707031 30.558594 59.699219 32.136719 60.144531 34.160156 C 60.921875 37.683594 58.757812 41.386719 55.265625 42.433594 C 54.441406 42.679688 53.640625 42.804688 52.859375 42.804688 C 51.019531 42.804688 49.332031 42.109375 47.933594 40.695312 C 45.996094 38.742188 45.238281 36.28125 46.109375 33.480469 C 46.597656 31.917969 47.242188 30.503906 48.765625 29.691406 C 49.238281 29.4375 49.371094 29.039062 49.339844 28.542969 L 49.289062 27.320312 C 49.296875 26.964844 49.167969 26.824219 48.949219 26.824219 C 48.867188 26.824219 48.769531 26.847656 48.660156 26.882812 L 48.058594 27.167969 C 43.5625 30.039062 42.207031 35.144531 44.324219 39.707031 C 45.882812 43.074219 49.40625 45.167969 53.066406 45.167969 C 53.699219 45.167969 54.339844 45.105469 54.972656 44.976562 C 57.214844 44.515625 58.96875 43.292969 60.457031 41.589844 C 62.398438 39.367188 63.078125 36.761719 62.601562 33.933594 C 61.988281 30.277344 59.847656 27.761719 56.261719 26.429688 Z M 56.261719 26.429688 " clip-rule="nonzero"/></clipPath><clipPath id="d2171e6fbd"><path d="M 46.230469 54.535156 L 53.398438 54.535156 L 53.398438 56.402344 L 46.230469 56.402344 Z M 46.230469 54.535156 " clip-rule="nonzero"/></clipPath><clipPath id="3f9f61d4d0"><path d="M 50.058594 54.636719 L 52.808594 54.628906 C 53.238281 54.613281 53.382812 54.734375 53.378906 55.179688 C 53.371094 56.328125 53.375 56.355469 52.238281 56.363281 L 47.886719 56.371094 C 47.53125 56.367188 47.175781 56.324219 46.828125 56.261719 C 46.359375 56.175781 46.226562 55.800781 46.234375 55.402344 C 46.242188 54.988281 46.453125 54.675781 46.929688 54.671875 L 50.058594 54.671875 C 50.058594 54.660156 50.058594 54.648438 50.058594 54.640625 " clip-rule="nonzero"/></clipPath><clipPath id="5eda782cfd"><path d="M 48.292969 57.382812 L 53.398438 57.382812 L 53.398438 59.25 L 48.292969 59.25 Z M 48.292969 57.382812 " clip-rule="nonzero"/></clipPath><clipPath id="aa11a03fce"><path d="M 52.847656 57.453125 C 52.828125 57.453125 52.808594 57.453125 52.789062 57.453125 L 49.28125 57.480469 C 49.277344 57.480469 49.273438 57.480469 49.265625 57.480469 C 48.679688 57.480469 48.328125 57.769531 48.351562 58.328125 C 48.371094 58.796875 48.566406 59.210938 49.15625 59.210938 C 49.183594 59.210938 49.214844 59.207031 49.246094 59.207031 C 49.472656 59.191406 49.699219 59.1875 49.925781 59.1875 C 50.28125 59.1875 50.640625 59.199219 50.996094 59.199219 C 50.996094 59.203125 50.996094 59.207031 50.996094 59.210938 L 52.902344 59.222656 C 52.921875 59.222656 52.945312 59.222656 52.964844 59.222656 C 53.292969 59.222656 53.402344 59.082031 53.371094 58.742188 L 53.375 58.058594 C 53.433594 57.613281 53.277344 57.453125 52.847656 57.453125 Z M 52.847656 57.453125 " clip-rule="nonzero"/></clipPath><clipPath id="8fbf2ea9cd"><path d="M 42.183594 24.601562 L 63.515625 24.601562 L 63.515625 45.933594 L 42.183594 45.933594 Z M 42.183594 24.601562 " clip-rule="nonzero"/></clipPath><clipPath id="dc480dc132"><path d="M 52.847656 24.601562 C 46.957031 24.601562 42.183594 29.375 42.183594 35.265625 C 42.183594 41.15625 46.957031 45.933594 52.847656 45.933594 C 58.738281 45.933594 63.515625 41.15625 63.515625 35.265625 C 63.515625 29.375 58.738281 24.601562 52.847656 24.601562 Z M 52.847656 24.601562 " clip-rule="nonzero"/></clipPath><clipPath id="1cacb869ca"><path d="M 95.210938 45.183594 L 103.90625 45.183594 L 103.90625 61.9375 L 95.210938 61.9375 Z M 95.210938 45.183594 " clip-rule="nonzero"/></clipPath><clipPath id="88c86b2733"><path d="M 95.210938 47.007812 L 103.195312 47.007812 L 103.195312 54.640625 L 95.210938 54.640625 Z M 95.210938 47.007812 " clip-rule="nonzero"/></clipPath><clipPath id="0551c34bd4"><path d="M 59 18 L 64 18 L 64 26 L 59 26 Z M 59 18 " clip-rule="nonzero"/></clipPath><clipPath id="24c3084d7e"><path d="M 62.992188 17.5625 L 76.945312 32.996094 L 68.679688 40.472656 L 54.722656 25.039062 Z M 62.992188 17.5625 " clip-rule="nonzero"/></clipPath><clipPath id="0fd0008257"><path d="M 62.992188 17.5625 L 76.945312 32.996094 L 68.679688 40.472656 L 54.722656 25.039062 Z M 62.992188 17.5625 " clip-rule="nonzero"/></clipPath><clipPath id="538b1cd224"><path d="M 62 22 L 70 22 L 70 29 L 62 29 Z M 62 22 " clip-rule="nonzero"/></clipPath><clipPath id="83b8a5c6cc"><path d="M 62.992188 17.5625 L 76.945312 32.996094 L 68.679688 40.472656 L 54.722656 25.039062 Z M 62.992188 17.5625 " clip-rule="nonzero"/></clipPath><clipPath id="0b994a74e0"><path d="M 62.992188 17.5625 L 76.945312 32.996094 L 68.679688 40.472656 L 54.722656 25.039062 Z M 62.992188 17.5625 " clip-rule="nonzero"/></clipPath><clipPath id="2d85ee30e7"><path d="M 64 28 L 72 28 L 72 33 L 64 33 Z M 64 28 " clip-rule="nonzero"/></clipPath><clipPath id="2094038a3a"><path d="M 62.992188 17.5625 L 76.945312 32.996094 L 68.679688 40.472656 L 54.722656 25.039062 Z M 62.992188 17.5625 " clip-rule="nonzero"/></clipPath><clipPath id="f5964d28a4"><path d="M 62.992188 17.5625 L 76.945312 32.996094 L 68.679688 40.472656 L 54.722656 25.039062 Z M 62.992188 17.5625 " clip-rule="nonzero"/></clipPath><clipPath id="4024a40e02"><path d="M 64 35 L 73 35 L 73 38 L 64 38 Z M 64 35 " clip-rule="nonzero"/></clipPath><clipPath id="153b7d131e"><path d="M 62.992188 17.5625 L 76.945312 32.996094 L 68.679688 40.472656 L 54.722656 25.039062 Z M 62.992188 17.5625 " clip-rule="nonzero"/></clipPath><clipPath id="9df808b3ae"><path d="M 62.992188 17.5625 L 76.945312 32.996094 L 68.679688 40.472656 L 54.722656 25.039062 Z M 62.992188 17.5625 " clip-rule="nonzero"/></clipPath><clipPath id="774b556688"><path d="M 43 29 L 53 29 L 53 36 L 43 36 Z M 43 29 " clip-rule="nonzero"/></clipPath><clipPath id="84a560a303"><path d="M 46.101562 24.601562 L 64.757812 29.625 L 59.734375 48.277344 L 41.078125 43.257812 Z M 46.101562 24.601562 " clip-rule="nonzero"/></clipPath><clipPath id="524b65b7c3"><path d="M 46.101562 24.601562 L 64.757812 29.625 L 59.734375 48.277344 L 41.078125 43.257812 Z M 46.101562 24.601562 " clip-rule="nonzero"/></clipPath><clipPath id="18c3d5c1dd"><path d="M 49 32 L 52 32 L 52 35 L 49 35 Z M 49 32 " clip-rule="nonzero"/></clipPath><clipPath id="29aeab260a"><path d="M 46.101562 24.601562 L 64.757812 29.625 L 59.734375 48.277344 L 41.078125 43.257812 Z M 46.101562 24.601562 " clip-rule="nonzero"/></clipPath><clipPath id="471cfc410e"><path d="M 46.101562 24.601562 L 64.757812 29.625 L 59.734375 48.277344 L 41.078125 43.257812 Z M 46.101562 24.601562 " clip-rule="nonzero"/></clipPath><clipPath id="9c6c340a5e"><path d="M 51 26 L 58 26 L 58 36 L 51 36 Z M 51 26 " clip-rule="nonzero"/></clipPath><clipPath id="f3ae2912b5"><path d="M 46.101562 24.601562 L 64.757812 29.625 L 59.734375 48.277344 L 41.078125 43.257812 Z M 46.101562 24.601562 " clip-rule="nonzero"/></clipPath><clipPath id="b205dabc7a"><path d="M 46.101562 24.601562 L 64.757812 29.625 L 59.734375 48.277344 L 41.078125 43.257812 Z M 46.101562 24.601562 " clip-rule="nonzero"/></clipPath><clipPath id="28072cf121"><path d="M 54 31 L 57 31 L 57 34 L 54 34 Z M 54 31 " clip-rule="nonzero"/></clipPath><clipPath id="39b8a71557"><path d="M 46.101562 24.601562 L 64.757812 29.625 L 59.734375 48.277344 L 41.078125 43.257812 Z M 46.101562 24.601562 " clip-rule="nonzero"/></clipPath><clipPath id="4d0d05b0ff"><path d="M 46.101562 24.601562 L 64.757812 29.625 L 59.734375 48.277344 L 41.078125 43.257812 Z M 46.101562 24.601562 " clip-rule="nonzero"/></clipPath><clipPath id="ac7728899b"><path d="M 54 30 L 63 30 L 63 38 L 54 38 Z M 54 30 " clip-rule="nonzero"/></clipPath><clipPath id="2282eee9bb"><path d="M 46.101562 24.601562 L 64.757812 29.625 L 59.734375 48.277344 L 41.078125 43.257812 Z M 46.101562 24.601562 " clip-rule="nonzero"/></clipPath><clipPath id="d4d0520203"><path d="M 46.101562 24.601562 L 64.757812 29.625 L 59.734375 48.277344 L 41.078125 43.257812 Z M 46.101562 24.601562 " clip-rule="nonzero"/></clipPath><clipPath id="aa1f421f52"><path d="M 56 35 L 59 35 L 59 38 L 56 38 Z M 56 35 " clip-rule="nonzero"/></clipPath><clipPath id="0220771875"><path d="M 46.101562 24.601562 L 64.757812 29.625 L 59.734375 48.277344 L 41.078125 43.257812 Z M 46.101562 24.601562 " clip-rule="nonzero"/></clipPath><clipPath id="eb5389f17e"><path d="M 46.101562 24.601562 L 64.757812 29.625 L 59.734375 48.277344 L 41.078125 43.257812 Z M 46.101562 24.601562 " clip-rule="nonzero"/></clipPath><clipPath id="0533dc4d13"><path d="M 53 36 L 62 36 L 62 45 L 53 45 Z M 53 36 " clip-rule="nonzero"/></clipPath><clipPath id="74c7322481"><path d="M 46.101562 24.601562 L 64.757812 29.625 L 59.734375 48.277344 L 41.078125 43.257812 Z M 46.101562 24.601562 " clip-rule="nonzero"/></clipPath><clipPath id="9b7391f6c8"><path d="M 46.101562 24.601562 L 64.757812 29.625 L 59.734375 48.277344 L 41.078125 43.257812 Z M 46.101562 24.601562 " clip-rule="nonzero"/></clipPath><clipPath id="ae745526a0"><path d="M 53.773438 36.828125 L 62.023438 39.046875 L 60.179688 45.902344 L 51.929688 43.679688 Z M 53.773438 36.828125 " clip-rule="nonzero"/></clipPath><clipPath id="981bad2577"><path d="M 53 39 L 56 39 L 56 41 L 53 41 Z M 53 39 " clip-rule="nonzero"/></clipPath><clipPath id="5bfd766e74"><path d="M 46.101562 24.601562 L 64.757812 29.625 L 59.734375 48.277344 L 41.078125 43.257812 Z M 46.101562 24.601562 " clip-rule="nonzero"/></clipPath><clipPath id="8db81f48ef"><path d="M 46.101562 24.601562 L 64.757812 29.625 L 59.734375 48.277344 L 41.078125 43.257812 Z M 46.101562 24.601562 " clip-rule="nonzero"/></clipPath><clipPath id="cff3b2c73d"><path d="M 45 36 L 53 36 L 53 46 L 45 46 Z M 45 36 " clip-rule="nonzero"/></clipPath><clipPath id="456666744e"><path d="M 46.101562 24.601562 L 64.757812 29.625 L 59.734375 48.277344 L 41.078125 43.257812 Z M 46.101562 24.601562 " clip-rule="nonzero"/></clipPath><clipPath id="aa8de1c239"><path d="M 46.101562 24.601562 L 64.757812 29.625 L 59.734375 48.277344 L 41.078125 43.257812 Z M 46.101562 24.601562 " clip-rule="nonzero"/></clipPath><clipPath id="52288f0598"><path d="M 47.121094 35.074219 L 52.867188 36.621094 L 50.445312 45.621094 L 44.699219 44.074219 Z M 47.121094 35.074219 " clip-rule="nonzero"/></clipPath><clipPath id="ae066e575d"><path d="M 49 37 L 51 37 L 51 40 L 49 40 Z M 49 37 " clip-rule="nonzero"/></clipPath><clipPath id="729de57a9b"><path d="M 46.101562 24.601562 L 64.757812 29.625 L 59.734375 48.277344 L 41.078125 43.257812 Z M 46.101562 24.601562 " clip-rule="nonzero"/></clipPath><clipPath id="2310d64076"><path d="M 46.101562 24.601562 L 64.757812 29.625 L 59.734375 48.277344 L 41.078125 43.257812 Z M 46.101562 24.601562 " clip-rule="nonzero"/></clipPath></defs><g clip-path="url(#a77f9c64c1)"><g clip-path="url(#fe445c6a90)"><path fill="#000000" d="M 0.292969 0 L 142.347656 0 L 142.347656 79.230469 L 0.292969 79.230469 Z M 0.292969 0 " fill-opacity="1" fill-rule="nonzero"/></g></g><g clip-path="url(#76f657cb41)"><g clip-path="url(#759d2a3c5c)"><path fill="#00fefb" d="M 38.375 21.445312 L 63.515625 21.445312 L 63.515625 60.035156 L 38.375 60.035156 Z M 38.375 21.445312 " fill-opacity="1" fill-rule="nonzero"/></g></g><g clip-path="url(#68ca1e1fb4)"><g clip-path="url(#27306a3bfb)"><path fill="#ffffff" d="M 38.375 21.445312 L 63.515625 21.445312 L 63.515625 60.035156 L 38.375 60.035156 Z M 38.375 21.445312 " fill-opacity="1" fill-rule="nonzero"/></g></g><g clip-path="url(#d2171e6fbd)"><g clip-path="url(#3f9f61d4d0)"><path fill="#ffffff" d="M 38.375 21.445312 L 63.515625 21.445312 L 63.515625 60.035156 L 38.375 60.035156 Z M 38.375 21.445312 " fill-opacity="1" fill-rule="nonzero"/></g></g><g clip-path="url(#5eda782cfd)"><g clip-path="url(#aa11a03fce)"><path fill="#00fefb" d="M 38.375 21.445312 L 63.515625 21.445312 L 63.515625 60.035156 L 38.375 60.035156 Z M 38.375 21.445312 " fill-opacity="1" fill-rule="nonzero"/></g></g><g clip-path="url(#8fbf2ea9cd)"><g clip-path="url(#dc480dc132)"><path fill="#000000" d="M 42.183594 24.601562 L 63.515625 24.601562 L 63.515625 45.933594 L 42.183594 45.933594 Z M 42.183594 24.601562 " fill-opacity="1" fill-rule="nonzero"/></g></g><g fill="#00fefb" fill-opacity="1"><g transform="translate(56.169529, 51.917711)"><g><path d="M 3.921875 -2.234375 L 2.546875 -2.234375 L 2.546875 -0.859375 L 1.640625 -0.859375 L 1.640625 -2.234375 L 0.265625 -2.234375 L 0.265625 -3.125 L 1.640625 -3.125 L 1.640625 -4.515625 L 2.546875 -4.515625 L 2.546875 -3.125 L 3.921875 -3.125 Z M 3.921875 -2.234375 "/></g></g></g><g fill="#00fefb" fill-opacity="1"><g transform="translate(60.357294, 51.917711)"><g/></g></g><g fill="#00fefb" fill-opacity="1"><g transform="translate(62.262315, 51.917711)"><g><path d="M 5.078125 -4.609375 L 2.03125 -4.609375 L 2.03125 -3.453125 L 4.78125 -3.453125 L 4.78125 -2.3125 L 2.03125 -2.3125 L 2.03125 -1.15625 L 5.171875 -1.15625 L 5.171875 0 L 0.578125 0 L 0.578125 -5.75 L 5.078125 -5.75 Z M 5.078125 -4.609375 "/></g></g></g><g fill="#00fefb" fill-opacity="1"><g transform="translate(67.796732, 51.917711)"><g><path d="M 2.78125 -5.8125 C 3.644531 -5.8125 4.398438 -5.597656 5.046875 -5.171875 L 4.5 -4.03125 C 4.195312 -4.207031 3.875 -4.351562 3.53125 -4.46875 C 3.1875 -4.582031 2.894531 -4.640625 2.65625 -4.640625 C 2.238281 -4.640625 2.03125 -4.5 2.03125 -4.21875 C 2.03125 -4.03125 2.132812 -3.878906 2.34375 -3.765625 C 2.550781 -3.660156 2.800781 -3.566406 3.09375 -3.484375 C 3.394531 -3.410156 3.695312 -3.316406 4 -3.203125 C 4.300781 -3.097656 4.554688 -2.914062 4.765625 -2.65625 C 4.972656 -2.40625 5.078125 -2.085938 5.078125 -1.703125 C 5.078125 -1.148438 4.859375 -0.71875 4.421875 -0.40625 C 3.984375 -0.101562 3.429688 0.046875 2.765625 0.046875 C 2.296875 0.046875 1.828125 -0.03125 1.359375 -0.1875 C 0.890625 -0.351562 0.484375 -0.582031 0.140625 -0.875 L 0.703125 -2 C 0.992188 -1.75 1.335938 -1.539062 1.734375 -1.375 C 2.128906 -1.21875 2.476562 -1.140625 2.78125 -1.140625 C 3.019531 -1.140625 3.203125 -1.179688 3.328125 -1.265625 C 3.460938 -1.347656 3.53125 -1.472656 3.53125 -1.640625 C 3.53125 -1.796875 3.453125 -1.925781 3.296875 -2.03125 C 3.148438 -2.132812 2.960938 -2.210938 2.734375 -2.265625 C 2.515625 -2.316406 2.273438 -2.382812 2.015625 -2.46875 C 1.753906 -2.5625 1.507812 -2.660156 1.28125 -2.765625 C 1.050781 -2.867188 0.863281 -3.035156 0.71875 -3.265625 C 0.570312 -3.492188 0.5 -3.765625 0.5 -4.078125 C 0.5 -4.609375 0.707031 -5.03125 1.125 -5.34375 C 1.539062 -5.65625 2.09375 -5.8125 2.78125 -5.8125 Z M 2.78125 -5.8125 "/></g></g></g><g fill="#00fefb" fill-opacity="1"><g transform="translate(73.084811, 51.917711)"><g><path d="M 0.578125 -5.75 L 3.078125 -5.75 C 3.816406 -5.75 4.390625 -5.570312 4.796875 -5.21875 C 5.203125 -4.875 5.40625 -4.382812 5.40625 -3.75 C 5.40625 -3.070312 5.203125 -2.546875 4.796875 -2.171875 C 4.390625 -1.804688 3.816406 -1.625 3.078125 -1.625 L 2.03125 -1.625 L 2.03125 0 L 0.578125 0 Z M 2.03125 -4.609375 L 2.03125 -2.765625 L 3.015625 -2.765625 C 3.335938 -2.765625 3.582031 -2.84375 3.75 -3 C 3.925781 -3.164062 4.015625 -3.398438 4.015625 -3.703125 C 4.015625 -3.992188 3.925781 -4.21875 3.75 -4.375 C 3.582031 -4.53125 3.335938 -4.609375 3.015625 -4.609375 Z M 2.03125 -4.609375 "/></g></g></g><g fill="#00fefb" fill-opacity="1"><g transform="translate(78.668497, 51.917711)"><g><path d="M 4.046875 0 L 3.1875 -1.625 L 2.03125 -1.625 L 2.03125 0 L 0.578125 0 L 0.578125 -5.75 L 3.140625 -5.75 C 3.910156 -5.75 4.503906 -5.570312 4.921875 -5.21875 C 5.335938 -4.875 5.546875 -4.382812 5.546875 -3.75 C 5.546875 -2.863281 5.195312 -2.25 4.5 -1.90625 L 5.703125 0 Z M 2.03125 -2.765625 L 3.140625 -2.765625 C 3.460938 -2.765625 3.710938 -2.84375 3.890625 -3 C 4.066406 -3.164062 4.15625 -3.398438 4.15625 -3.703125 C 4.15625 -3.992188 4.066406 -4.21875 3.890625 -4.375 C 3.710938 -4.53125 3.460938 -4.609375 3.140625 -4.609375 L 2.03125 -4.609375 Z M 2.03125 -2.765625 "/></g></g></g><g fill="#00fefb" fill-opacity="1"><g transform="translate(84.613481, 51.917711)"><g><path d="M 2.03125 0 L 0.578125 0 L 0.578125 -5.75 L 2.03125 -5.75 Z M 2.03125 0 "/></g></g></g><g fill="#00fefb" fill-opacity="1"><g transform="translate(87.224675, 51.917711)"><g><path d="M 4.96875 -4.578125 L 3.234375 -4.578125 L 3.234375 0 L 1.78125 0 L 1.78125 -4.578125 L 0.0625 -4.578125 L 0.0625 -5.765625 L 4.96875 -5.765625 Z M 4.96875 -4.578125 "/></g></g></g><g fill="#ffffff" fill-opacity="1"><g transform="translate(57.591321, 59.365969)"><g><path d="M 2.046875 0 L 1.5625 -0.8125 C 1.53125 -0.800781 1.488281 -0.796875 1.4375 -0.796875 L 0.796875 -0.796875 L 0.796875 0 L 0.34375 0 L 0.34375 -2.671875 L 1.4375 -2.671875 C 1.769531 -2.671875 2.03125 -2.585938 2.21875 -2.421875 C 2.414062 -2.265625 2.515625 -2.039062 2.515625 -1.75 C 2.515625 -1.539062 2.460938 -1.363281 2.359375 -1.21875 C 2.265625 -1.070312 2.128906 -0.960938 1.953125 -0.890625 L 2.546875 0 Z M 0.796875 -1.203125 L 1.4375 -1.203125 C 1.863281 -1.203125 2.078125 -1.382812 2.078125 -1.75 C 2.078125 -2.09375 1.863281 -2.265625 1.4375 -2.265625 L 0.796875 -2.265625 Z M 0.796875 -1.203125 "/></g></g></g><g fill="#ffffff" fill-opacity="1"><g transform="translate(61.821467, 59.365969)"><g><path d="M 2.25 -2.265625 L 0.796875 -2.265625 L 0.796875 -1.546875 L 2.109375 -1.546875 L 2.109375 -1.140625 L 0.796875 -1.140625 L 0.796875 -0.40625 L 2.296875 -0.40625 L 2.296875 0 L 0.34375 0 L 0.34375 -2.671875 L 2.25 -2.671875 Z M 2.25 -2.265625 "/></g></g></g><g fill="#ffffff" fill-opacity="1"><g transform="translate(65.796329, 59.365969)"><g><path d="M 2.078125 -0.609375 L 0.734375 -0.609375 L 0.46875 0 L 0 0 L 1.1875 -2.671875 L 1.640625 -2.671875 L 2.8125 0 L 2.328125 0 Z M 1.90625 -1 L 1.40625 -2.1875 L 0.890625 -1 Z M 1.90625 -1 "/></g></g></g><g fill="#ffffff" fill-opacity="1"><g transform="translate(70.083626, 59.365969)"><g><path d="M 0.796875 -0.40625 L 1.953125 -0.40625 L 1.953125 0 L 0.34375 0 L 0.34375 -2.671875 L 0.796875 -2.671875 Z M 0.796875 -0.40625 "/></g></g></g><g fill="#ffffff" fill-opacity="1"><g transform="translate(73.593642, 59.365969)"><g/></g></g><g fill="#ffffff" fill-opacity="1"><g transform="translate(76.052045, 59.365969)"><g><path d="M 0.796875 0 L 0.34375 0 L 0.34375 -2.671875 L 0.796875 -2.671875 Z M 0.796875 0 "/></g></g></g><g fill="#ffffff" fill-opacity="1"><g transform="translate(78.678095, 59.365969)"><g><path d="M 3.171875 0 L 2.75 0 L 2.75 -2 L 1.90625 -0.28125 L 1.609375 -0.28125 L 0.78125 -2 L 0.78125 0 L 0.34375 0 L 0.34375 -2.671875 L 0.890625 -2.671875 L 1.765625 -0.890625 L 2.640625 -2.671875 L 3.171875 -2.671875 Z M 3.171875 0 "/></g></g></g><g fill="#ffffff" fill-opacity="1"><g transform="translate(83.6779, 59.365969)"><g><path d="M 0.34375 -2.671875 L 1.421875 -2.671875 C 1.753906 -2.671875 2.007812 -2.585938 2.1875 -2.421875 C 2.375 -2.265625 2.46875 -2.039062 2.46875 -1.75 C 2.46875 -1.445312 2.375 -1.210938 2.1875 -1.046875 C 2.007812 -0.878906 1.753906 -0.796875 1.421875 -0.796875 L 0.796875 -0.796875 L 0.796875 0 L 0.34375 0 Z M 0.796875 -2.265625 L 0.796875 -1.203125 L 1.390625 -1.203125 C 1.828125 -1.203125 2.046875 -1.382812 2.046875 -1.75 C 2.046875 -2.09375 1.828125 -2.265625 1.390625 -2.265625 Z M 0.796875 -2.265625 "/></g></g></g><g fill="#ffffff" fill-opacity="1"><g transform="translate(87.717534, 59.365969)"><g><path d="M 2.078125 -0.609375 L 0.734375 -0.609375 L 0.46875 0 L 0 0 L 1.1875 -2.671875 L 1.640625 -2.671875 L 2.8125 0 L 2.328125 0 Z M 1.90625 -1 L 1.40625 -2.1875 L 0.890625 -1 Z M 1.90625 -1 "/></g></g></g><g fill="#ffffff" fill-opacity="1"><g transform="translate(92.004832, 59.365969)"><g><path d="M 1.53125 -2.6875 C 1.71875 -2.6875 1.898438 -2.648438 2.078125 -2.578125 C 2.265625 -2.503906 2.421875 -2.398438 2.546875 -2.265625 L 2.28125 -1.9375 C 2.1875 -2.039062 2.070312 -2.125 1.9375 -2.1875 C 1.8125 -2.25 1.679688 -2.28125 1.546875 -2.28125 C 1.273438 -2.28125 1.046875 -2.1875 0.859375 -2 C 0.679688 -1.820312 0.59375 -1.601562 0.59375 -1.34375 C 0.59375 -1.082031 0.679688 -0.859375 0.859375 -0.671875 C 1.046875 -0.492188 1.273438 -0.40625 1.546875 -0.40625 C 1.816406 -0.40625 2.0625 -0.507812 2.28125 -0.71875 L 2.546875 -0.421875 C 2.410156 -0.285156 2.25 -0.175781 2.0625 -0.09375 C 1.882812 -0.0195312 1.703125 0.015625 1.515625 0.015625 C 1.128906 0.015625 0.800781 -0.113281 0.53125 -0.375 C 0.257812 -0.632812 0.125 -0.957031 0.125 -1.34375 C 0.125 -1.71875 0.257812 -2.035156 0.53125 -2.296875 C 0.800781 -2.554688 1.132812 -2.6875 1.53125 -2.6875 Z M 1.53125 -2.6875 "/></g></g></g><g fill="#ffffff" fill-opacity="1"><g transform="translate(96.135913, 59.365969)"><g><path d="M 2.171875 -2.265625 L 1.328125 -2.265625 L 1.328125 0 L 0.875 0 L 0.875 -2.265625 L 0.03125 -2.265625 L 0.03125 -2.671875 L 2.171875 -2.671875 Z M 2.171875 -2.265625 "/></g></g></g><g clip-path="url(#1cacb869ca)"><path fill="#3eae9e" d="M 99.15625 53.898438 C 104.324219 54.507812 105.03125 58.292969 103.179688 61.9375 C 103.949219 58.199219 102.539062 55.789062 99.609375 55.164062 C 97.773438 54.773438 95.410156 53.941406 95.054688 51.808594 C 95.046875 51.769531 95.046875 51.726562 95.042969 51.6875 C 95.882812 53.027344 97.316406 53.683594 99.15625 53.898438 Z M 96.558594 47.21875 C 96.296875 46.460938 96.171875 46.371094 95.371094 46.367188 C 96.128906 46.105469 96.21875 45.984375 96.222656 45.183594 C 96.480469 45.9375 96.605469 46.027344 97.40625 46.03125 C 96.648438 46.292969 96.5625 46.417969 96.558594 47.21875 " fill-opacity="1" fill-rule="nonzero"/></g><g clip-path="url(#88c86b2733)"><path fill="#40b93c" d="M 99.574219 50.765625 C 98.941406 50.765625 98.429688 50.25 98.429688 49.621094 C 98.429688 48.988281 98.941406 48.476562 99.574219 48.476562 C 100.207031 48.476562 100.71875 48.988281 100.71875 49.621094 C 100.71875 50.25 100.207031 50.765625 99.574219 50.765625 Z M 95.644531 47.035156 C 94.839844 48.4375 95.949219 50.5625 99.71875 51.5625 C 101.984375 52.160156 102.875 53.394531 103.164062 54.582031 C 102.394531 53.742188 101.1875 53.03125 99.480469 52.722656 C 97.636719 52.394531 95.320312 51.378906 95.027344 49.238281 C 94.929688 48.515625 95.125 47.6875 95.644531 47.035156 " fill-opacity="1" fill-rule="nonzero"/></g><g clip-path="url(#0551c34bd4)"><g clip-path="url(#24c3084d7e)"><g clip-path="url(#0fd0008257)"><path fill="#00fefb" d="M 63.808594 19.195312 L 62.054688 18.441406 L 61.988281 18.628906 L 61.894531 18.589844 L 59.300781 25.746094 L 59.800781 25.921875 L 59.902344 25.753906 L 59.964844 25.777344 Z M 63.808594 19.195312 " fill-opacity="1" fill-rule="nonzero"/></g></g></g><g clip-path="url(#538b1cd224)"><g clip-path="url(#83b8a5c6cc)"><g clip-path="url(#0b994a74e0)"><path fill="#00fefb" d="M 67.804688 22.886719 L 67.648438 23.039062 L 67.644531 23.035156 L 62.15625 28.3125 L 62.527344 28.691406 L 68.886719 24.484375 L 68.867188 24.460938 L 69.050781 24.335938 Z M 67.804688 22.886719 " fill-opacity="1" fill-rule="nonzero"/></g></g></g><g clip-path="url(#2d85ee30e7)"><g clip-path="url(#2094038a3a)"><g clip-path="url(#f5964d28a4)"><path fill="#00fefb" d="M 71.15625 28.417969 L 64.382812 31.890625 L 64.628906 32.363281 L 71.929688 30.164062 Z M 71.15625 28.417969 " fill-opacity="1" fill-rule="nonzero"/></g></g></g><g clip-path="url(#4024a40e02)"><g clip-path="url(#153b7d131e)"><g clip-path="url(#9df808b3ae)"><path fill="#00fefb" d="M 72.335938 35.589844 L 64.726562 35.714844 L 64.738281 36.246094 L 72.261719 37.5 Z M 72.335938 35.589844 " fill-opacity="1" fill-rule="nonzero"/></g></g></g><g clip-path="url(#774b556688)"><g clip-path="url(#84a560a303)"><g clip-path="url(#524b65b7c3)"><path fill="#51ade5" d="M 52.628906 35.648438 C 52.753906 35.648438 52.773438 35.472656 52.65625 35.441406 L 49.246094 34.332031 C 49.238281 34.296875 49.226562 34.261719 49.214844 34.226562 L 48.625 32.546875 L 47.746094 30.046875 C 47.707031 29.929688 47.53125 29.96875 47.546875 30.09375 C 47.546875 30.09375 48.621094 33.429688 47.121094 34.375 C 46.34375 34.863281 43.476562 34.832031 43.476562 34.832031 C 43.351562 34.835938 43.339844 35.015625 43.460938 35.039062 C 44.179688 35.171875 44.894531 35.3125 45.613281 35.453125 C 46.308594 35.589844 47.039062 35.816406 47.75 35.820312 C 47.8125 35.824219 47.878906 35.820312 47.941406 35.820312 C 48.304688 35.804688 48.660156 35.730469 49.019531 35.664062 C 49.371094 35.601562 49.671875 35.597656 50.023438 35.605469 C 50.390625 35.613281 50.761719 35.617188 51.128906 35.621094 C 51.628906 35.632812 52.128906 35.640625 52.628906 35.648438 " fill-opacity="1" fill-rule="nonzero"/></g></g></g><g clip-path="url(#18c3d5c1dd)"><g clip-path="url(#29aeab260a)"><g clip-path="url(#471cfc410e)"><path fill="#51ade5" d="M 49.753906 32.835938 C 49.390625 33.265625 49.402344 33.878906 49.789062 34.207031 C 50.175781 34.539062 50.785156 34.460938 51.148438 34.035156 C 51.515625 33.609375 51.5 32.996094 51.117188 32.664062 C 50.730469 32.332031 50.121094 32.410156 49.753906 32.835938 " fill-opacity="1" fill-rule="nonzero"/></g></g></g><g clip-path="url(#9c6c340a5e)"><g clip-path="url(#f3ae2912b5)"><g clip-path="url(#b205dabc7a)"><path fill="#ffffff" d="M 53.597656 35.128906 C 53.632812 35.246094 53.808594 35.214844 53.800781 35.089844 L 53.804688 31.507812 C 53.832031 31.488281 53.863281 31.464844 53.894531 31.441406 L 55.308594 30.363281 L 57.417969 28.753906 C 57.515625 28.679688 57.421875 28.527344 57.308594 28.578125 C 57.308594 28.578125 54.464844 30.632812 53.105469 29.496094 C 52.402344 28.910156 51.542969 26.171875 51.542969 26.171875 C 51.5 26.054688 51.328125 26.097656 51.34375 26.21875 C 51.4375 26.945312 51.527344 27.667969 51.613281 28.394531 C 51.699219 29.097656 51.710938 29.863281 51.921875 30.539062 C 51.941406 30.601562 51.964844 30.664062 51.988281 30.722656 C 52.113281 31.0625 52.292969 31.378906 52.464844 31.699219 C 52.632812 32.015625 52.730469 32.300781 52.832031 32.636719 C 52.9375 32.988281 53.050781 33.339844 53.15625 33.695312 C 53.304688 34.171875 53.449219 34.652344 53.597656 35.128906 " fill-opacity="1" fill-rule="nonzero"/></g></g></g><g clip-path="url(#28072cf121)"><g clip-path="url(#39b8a71557)"><g clip-path="url(#4d0d05b0ff)"><path fill="#ffffff" d="M 55.382812 31.527344 C 54.863281 31.308594 54.285156 31.515625 54.089844 31.984375 C 53.894531 32.453125 54.15625 33.007812 54.675781 33.222656 C 55.191406 33.441406 55.773438 33.234375 55.96875 32.765625 C 56.164062 32.300781 55.902344 31.742188 55.382812 31.527344 " fill-opacity="1" fill-rule="nonzero"/></g></g></g><g clip-path="url(#ac7728899b)"><g clip-path="url(#2282eee9bb)"><g clip-path="url(#d4d0520203)"><path fill="#51ade5" d="M 54.390625 35.890625 C 54.289062 35.960938 54.375 36.117188 54.488281 36.070312 L 57.898438 34.964844 C 57.925781 34.988281 57.957031 35.011719 57.988281 35.03125 L 59.453125 36.042969 L 61.632812 37.550781 C 61.734375 37.621094 61.851562 37.488281 61.769531 37.394531 C 61.769531 37.394531 58.9375 35.324219 59.59375 33.679688 C 59.9375 32.828125 62.273438 31.167969 62.273438 31.167969 C 62.371094 31.089844 62.277344 30.9375 62.167969 30.992188 C 61.507812 31.304688 60.84375 31.613281 60.183594 31.921875 C 59.539062 32.222656 58.816406 32.46875 58.238281 32.878906 C 58.183594 32.917969 58.132812 32.957031 58.082031 32.996094 C 57.796875 33.222656 57.550781 33.492188 57.300781 33.753906 C 57.054688 34.007812 56.8125 34.191406 56.523438 34.390625 C 56.222656 34.601562 55.921875 34.816406 55.617188 35.027344 C 55.207031 35.316406 54.800781 35.601562 54.390625 35.890625 " fill-opacity="1" fill-rule="nonzero"/></g></g></g><g clip-path="url(#aa1f421f52)"><g clip-path="url(#0220771875)"><g clip-path="url(#eb5389f17e)"><path fill="#51ade5" d="M 58.367188 36.472656 C 58.414062 35.914062 58.039062 35.425781 57.535156 35.382812 C 57.027344 35.34375 56.582031 35.765625 56.535156 36.324219 C 56.488281 36.886719 56.863281 37.371094 57.367188 37.414062 C 57.875 37.457031 58.320312 37.035156 58.367188 36.472656 " fill-opacity="1" fill-rule="nonzero"/></g></g></g><g clip-path="url(#0533dc4d13)"><g clip-path="url(#74c7322481)"><g clip-path="url(#9b7391f6c8)"><g clip-path="url(#ae745526a0)"><path fill="#40b93c" d="M 53.914062 36.878906 C 53.8125 36.804688 53.691406 36.933594 53.769531 37.027344 L 55.875 39.929688 C 55.863281 39.964844 55.851562 39.996094 55.839844 40.035156 L 55.328125 41.742188 L 54.570312 44.28125 C 54.535156 44.398438 54.699219 44.46875 54.757812 44.359375 C 54.757812 44.359375 55.851562 41.027344 57.621094 41.144531 C 58.535156 41.207031 60.839844 42.917969 60.839844 42.917969 C 60.941406 42.988281 61.058594 42.851562 60.972656 42.761719 C 60.472656 42.230469 59.972656 41.695312 59.472656 41.160156 C 58.992188 40.640625 58.535156 40.027344 57.964844 39.605469 C 57.910156 39.566406 57.859375 39.53125 57.804688 39.496094 C 57.5 39.292969 57.167969 39.144531 56.84375 38.988281 C 56.523438 38.832031 56.277344 38.65625 55.996094 38.445312 C 55.703125 38.222656 55.40625 38 55.109375 37.78125 C 54.710938 37.480469 54.3125 37.179688 53.914062 36.878906 " fill-opacity="1" fill-rule="nonzero"/></g></g></g></g><g clip-path="url(#981bad2577)"><g clip-path="url(#5bfd766e74)"><g clip-path="url(#8db81f48ef)"><path fill="#40b93c" d="M 54.585938 40.839844 C 55.132812 40.710938 55.480469 40.207031 55.363281 39.710938 C 55.246094 39.21875 54.707031 38.921875 54.160156 39.050781 C 53.613281 39.183594 53.265625 39.6875 53.382812 40.183594 C 53.5 40.675781 54.039062 40.972656 54.585938 40.839844 " fill-opacity="1" fill-rule="nonzero"/></g></g></g><g clip-path="url(#cff3b2c73d)"><g clip-path="url(#456666744e)"><g clip-path="url(#aa8de1c239)"><g clip-path="url(#52288f0598)"><path fill="#40b93c" d="M 52.824219 36.730469 C 52.863281 36.613281 52.703125 36.535156 52.636719 36.640625 L 50.527344 39.539062 C 50.492188 39.535156 50.457031 39.535156 50.417969 39.535156 L 48.636719 39.578125 L 45.988281 39.640625 C 45.863281 39.644531 45.847656 39.824219 45.96875 39.847656 C 45.96875 39.847656 49.476562 39.855469 49.910156 41.574219 C 50.136719 42.464844 49.21875 45.183594 49.21875 45.183594 C 49.1875 45.300781 49.351562 45.371094 49.410156 45.261719 C 49.761719 44.621094 50.113281 43.980469 50.46875 43.34375 C 50.8125 42.722656 51.253906 42.097656 51.480469 41.425781 C 51.5 41.363281 51.519531 41.300781 51.539062 41.238281 C 51.636719 40.890625 51.675781 40.527344 51.726562 40.167969 C 51.773438 39.816406 51.863281 39.527344 51.976562 39.195312 C 52.097656 38.847656 52.21875 38.496094 52.335938 38.148438 C 52.5 37.675781 52.660156 37.203125 52.824219 36.730469 " fill-opacity="1" fill-rule="nonzero"/></g></g></g></g><g clip-path="url(#ae066e575d)"><g clip-path="url(#729de57a9b)"><g clip-path="url(#2310d64076)"><path fill="#40b93c" d="M 49.261719 38.59375 C 49.554688 39.074219 50.144531 39.25 50.578125 38.984375 C 51.011719 38.722656 51.125 38.117188 50.832031 37.636719 C 50.539062 37.15625 49.953125 36.980469 49.519531 37.246094 C 49.085938 37.511719 48.96875 38.113281 49.261719 38.59375 " fill-opacity="1" fill-rule="nonzero"/></g></g></g></svg>