<svg xmlns="http://www.w3.org/2000/svg" xmlns:xlink="http://www.w3.org/1999/xlink" width="1080" zoomAndPan="magnify" viewBox="0 0 810 809.999993" height="1080" preserveAspectRatio="xMidYMid meet" version="1.0"><path fill="#2978b8" d="M 580.5 634.5 L 229.5 634.5 C 199.632812 634.5 175.5 610.367188 175.5 580.5 L 175.5 229.5 C 175.5 199.632812 199.632812 175.5 229.5 175.5 L 580.5 175.5 C 610.367188 175.5 634.5 199.632812 634.5 229.5 L 634.5 580.5 C 634.5 610.367188 610.367188 634.5 580.5 634.5 Z M 580.5 634.5 " fill-opacity="1" fill-rule="nonzero"/><path fill="#3397e8" d="M 553.5 580.5 L 256.5 580.5 C 241.648438 580.5 229.5 568.351562 229.5 553.5 L 229.5 256.5 C 229.5 241.648438 241.648438 229.5 256.5 229.5 L 553.5 229.5 C 568.351562 229.5 580.5 241.648438 580.5 256.5 L 580.5 553.5 C 580.5 568.351562 568.351562 580.5 553.5 580.5 Z M 553.5 580.5 " fill-opacity="1" fill-rule="nonzero"/><path fill="#e9eef2" d="M 337.5 472.5 C 334.125 472.5 330.582031 471.148438 327.882812 468.617188 L 273.882812 414.617188 C 268.648438 409.386719 268.648438 400.78125 273.882812 395.550781 L 327.882812 341.550781 C 333.113281 336.320312 341.71875 336.320312 346.949219 341.550781 C 352.179688 346.78125 352.179688 355.386719 346.949219 360.617188 L 302.570312 405 L 346.949219 449.382812 C 352.179688 454.613281 352.179688 463.21875 346.949219 468.449219 C 344.417969 471.148438 340.875 472.5 337.5 472.5 Z M 337.5 472.5 " fill-opacity="1" fill-rule="nonzero"/><path fill="#e9eef2" d="M 472.5 472.5 C 469.125 472.5 465.582031 471.148438 462.882812 468.617188 C 457.648438 463.386719 457.648438 454.78125 462.882812 449.550781 L 507.261719 405.167969 L 462.882812 360.789062 C 457.648438 355.554688 457.648438 346.949219 462.882812 341.71875 C 468.113281 336.488281 476.71875 336.488281 481.949219 341.71875 L 535.949219 395.71875 C 541.179688 400.949219 541.179688 409.554688 535.949219 414.789062 L 481.949219 468.789062 C 479.417969 471.148438 475.875 472.5 472.5 472.5 Z M 472.5 472.5 " fill-opacity="1" fill-rule="nonzero"/><path fill="#e9eef2" d="M 391.5 472.5 C 390.488281 472.5 389.304688 472.332031 388.292969 472.164062 C 381.039062 470.304688 376.648438 463.050781 378.507812 455.792969 L 405.507812 347.792969 C 407.363281 340.539062 414.617188 336.148438 421.875 338.007812 C 429.132812 339.863281 433.519531 347.117188 431.664062 354.375 L 404.664062 462.375 C 403.144531 468.449219 397.574219 472.5 391.5 472.5 Z M 391.5 472.5 " fill-opacity="1" fill-rule="nonzero"/><path fill="#dadcde" d="M 256.5 810 C 249.074219 810 243 803.925781 243 796.5 L 243 675 C 243 667.574219 249.074219 661.5 256.5 661.5 C 263.925781 661.5 270 667.574219 270 675 L 270 796.5 C 270 803.925781 263.925781 810 256.5 810 Z M 256.5 810 " fill-opacity="1" fill-rule="nonzero"/><path fill="#dadcde" d="M 553.5 810 C 546.074219 810 540 803.925781 540 796.5 L 540 675 C 540 667.574219 546.074219 661.5 553.5 661.5 C 560.925781 661.5 567 667.574219 567 675 L 567 796.5 C 567 803.925781 560.925781 810 553.5 810 Z M 553.5 810 " fill-opacity="1" fill-rule="nonzero"/><path fill="#dadcde" d="M 445.5 810 C 438.074219 810 432 803.925781 432 796.5 L 432 675 C 432 667.574219 438.074219 661.5 445.5 661.5 C 452.925781 661.5 459 667.574219 459 675 L 459 796.5 C 459 803.925781 452.925781 810 445.5 810 Z M 445.5 810 " fill-opacity="1" fill-rule="nonzero"/><path fill="#dadcde" d="M 742.5 310.5 L 675 310.5 C 667.574219 310.5 661.5 304.425781 661.5 297 C 661.5 289.574219 667.574219 283.5 675 283.5 L 732.710938 283.5 L 756.675781 211.78125 C 758.53125 206.210938 763.59375 202.5 769.5 202.5 L 796.5 202.5 C 803.925781 202.5 810 208.574219 810 216 C 810 223.425781 803.925781 229.5 796.5 229.5 L 779.289062 229.5 L 755.324219 301.21875 C 753.46875 306.789062 748.238281 310.5 742.5 310.5 Z M 742.5 310.5 " fill-opacity="1" fill-rule="nonzero"/><path fill="#dadcde" d="M 796.5 607.5 L 769.5 607.5 C 763.761719 607.5 758.53125 603.789062 756.675781 598.21875 L 732.710938 526.5 L 675 526.5 C 667.574219 526.5 661.5 520.425781 661.5 513 C 661.5 505.574219 667.574219 499.5 675 499.5 L 742.5 499.5 C 748.238281 499.5 753.46875 503.210938 755.324219 508.78125 L 779.289062 580.5 L 796.5 580.5 C 803.925781 580.5 810 586.574219 810 594 C 810 601.425781 803.925781 607.5 796.5 607.5 Z M 796.5 607.5 " fill-opacity="1" fill-rule="nonzero"/><path fill="#dadcde" d="M 796.5 418.5 L 675 418.5 C 667.574219 418.5 661.5 412.425781 661.5 405 C 661.5 397.574219 667.574219 391.5 675 391.5 L 796.5 391.5 C 803.925781 391.5 810 397.574219 810 405 C 810 412.425781 803.925781 418.5 796.5 418.5 Z M 796.5 418.5 " fill-opacity="1" fill-rule="nonzero"/><path fill="#dadcde" d="M 135 310.5 L 67.5 310.5 C 61.761719 310.5 56.53125 306.789062 54.675781 301.21875 L 30.710938 229.5 L 13.5 229.5 C 6.074219 229.5 0 223.425781 0 216 C 0 208.574219 6.074219 202.5 13.5 202.5 L 40.5 202.5 C 46.238281 202.5 51.46875 206.210938 53.324219 211.78125 L 77.289062 283.5 L 135 283.5 C 142.425781 283.5 148.5 289.574219 148.5 297 C 148.5 304.425781 142.425781 310.5 135 310.5 Z M 135 310.5 " fill-opacity="1" fill-rule="nonzero"/><path fill="#dadcde" d="M 40.5 607.5 L 13.5 607.5 C 6.074219 607.5 0 601.425781 0 594 C 0 586.574219 6.074219 580.5 13.5 580.5 L 30.710938 580.5 L 54.675781 508.78125 C 56.53125 503.210938 61.59375 499.5 67.5 499.5 L 135 499.5 C 142.425781 499.5 148.5 505.574219 148.5 513 C 148.5 520.425781 142.425781 526.5 135 526.5 L 77.289062 526.5 L 53.324219 598.21875 C 51.46875 603.789062 46.238281 607.5 40.5 607.5 Z M 40.5 607.5 " fill-opacity="1" fill-rule="nonzero"/><path fill="#dadcde" d="M 135 418.5 L 13.5 418.5 C 6.074219 418.5 0 412.425781 0 405 C 0 397.574219 6.074219 391.5 13.5 391.5 L 135 391.5 C 142.425781 391.5 148.5 397.574219 148.5 405 C 148.5 412.425781 142.425781 418.5 135 418.5 Z M 135 418.5 " fill-opacity="1" fill-rule="nonzero"/><path fill="#dadcde" d="M 256.5 148.5 C 249.074219 148.5 243 142.425781 243 135 L 243 13.5 C 243 6.074219 249.074219 0 256.5 0 C 263.925781 0 270 6.074219 270 13.5 L 270 135 C 270 142.425781 263.925781 148.5 256.5 148.5 Z M 256.5 148.5 " fill-opacity="1" fill-rule="nonzero"/><path fill="#dadcde" d="M 553.5 148.5 C 546.074219 148.5 540 142.425781 540 135 L 540 13.5 C 540 6.074219 546.074219 0 553.5 0 C 560.925781 0 567 6.074219 567 13.5 L 567 135 C 567 142.425781 560.925781 148.5 553.5 148.5 Z M 553.5 148.5 " fill-opacity="1" fill-rule="nonzero"/><path fill="#dadcde" d="M 445.5 148.5 C 438.074219 148.5 432 142.425781 432 135 L 432 13.5 C 432 6.074219 438.074219 0 445.5 0 C 452.925781 0 459 6.074219 459 13.5 L 459 135 C 459 142.425781 452.925781 148.5 445.5 148.5 Z M 445.5 148.5 " fill-opacity="1" fill-rule="nonzero"/><path fill="#2978b8" d="M 283.5 148.5 C 283.5 149.382812 283.457031 150.265625 283.371094 151.144531 C 283.285156 152.027344 283.152344 152.898438 282.980469 153.765625 C 282.808594 154.632812 282.59375 155.492188 282.335938 156.335938 C 282.082031 157.183594 281.78125 158.015625 281.445312 158.832031 C 281.105469 159.648438 280.730469 160.449219 280.3125 161.226562 C 279.894531 162.007812 279.441406 162.765625 278.949219 163.5 C 278.457031 164.234375 277.933594 164.945312 277.371094 165.628906 C 276.808594 166.3125 276.21875 166.964844 275.59375 167.59375 C 274.964844 168.21875 274.3125 168.808594 273.628906 169.371094 C 272.945312 169.933594 272.234375 170.457031 271.5 170.949219 C 270.765625 171.441406 270.007812 171.894531 269.226562 172.3125 C 268.449219 172.730469 267.648438 173.105469 266.832031 173.445312 C 266.015625 173.78125 265.183594 174.082031 264.335938 174.335938 C 263.492188 174.59375 262.632812 174.808594 261.765625 174.980469 C 260.898438 175.152344 260.027344 175.285156 259.144531 175.371094 C 258.265625 175.457031 257.382812 175.5 256.5 175.5 C 255.617188 175.5 254.734375 175.457031 253.851562 175.371094 C 252.972656 175.285156 252.101562 175.152344 251.234375 174.980469 C 250.367188 174.808594 249.507812 174.59375 248.664062 174.335938 C 247.816406 174.082031 246.984375 173.78125 246.167969 173.445312 C 245.351562 173.105469 244.550781 172.730469 243.773438 172.3125 C 242.992188 171.894531 242.234375 171.441406 241.5 170.949219 C 240.765625 170.457031 240.054688 169.933594 239.371094 169.371094 C 238.6875 168.808594 238.035156 168.21875 237.40625 167.59375 C 236.78125 166.964844 236.191406 166.3125 235.628906 165.628906 C 235.066406 164.945312 234.542969 164.234375 234.050781 163.5 C 233.558594 162.765625 233.105469 162.007812 232.6875 161.226562 C 232.269531 160.449219 231.894531 159.648438 231.554688 158.832031 C 231.21875 158.015625 230.917969 157.183594 230.664062 156.335938 C 230.40625 155.492188 230.191406 154.632812 230.019531 153.765625 C 229.847656 152.898438 229.714844 152.027344 229.628906 151.144531 C 229.542969 150.265625 229.5 149.382812 229.5 148.5 C 229.5 147.617188 229.542969 146.734375 229.628906 145.855469 C 229.714844 144.972656 229.847656 144.101562 230.019531 143.234375 C 230.191406 142.367188 230.40625 141.507812 230.664062 140.664062 C 230.917969 139.816406 231.21875 138.984375 231.554688 138.167969 C 231.894531 137.351562 232.269531 136.550781 232.6875 135.773438 C 233.105469 134.992188 233.558594 134.234375 234.050781 133.5 C 234.542969 132.765625 235.066406 132.054688 235.628906 131.371094 C 236.191406 130.6875 236.78125 130.035156 237.40625 129.40625 C 238.035156 128.78125 238.6875 128.191406 239.371094 127.628906 C 240.054688 127.066406 240.765625 126.542969 241.5 126.050781 C 242.234375 125.558594 242.992188 125.105469 243.773438 124.6875 C 244.550781 124.269531 245.351562 123.894531 246.167969 123.554688 C 246.984375 123.21875 247.816406 122.917969 248.664062 122.664062 C 249.507812 122.40625 250.367188 122.191406 251.234375 122.019531 C 252.101562 121.847656 252.972656 121.714844 253.851562 121.628906 C 254.734375 121.542969 255.617188 121.5 256.5 121.5 C 257.382812 121.5 258.265625 121.542969 259.144531 121.628906 C 260.027344 121.714844 260.898438 121.847656 261.765625 122.019531 C 262.632812 122.191406 263.492188 122.40625 264.335938 122.664062 C 265.183594 122.917969 266.015625 123.21875 266.832031 123.554688 C 267.648438 123.894531 268.449219 124.269531 269.226562 124.6875 C 270.007812 125.105469 270.765625 125.558594 271.5 126.050781 C 272.234375 126.542969 272.945312 127.066406 273.628906 127.628906 C 274.3125 128.191406 274.964844 128.78125 275.59375 129.40625 C 276.21875 130.035156 276.808594 130.6875 277.371094 131.371094 C 277.933594 132.054688 278.457031 132.765625 278.949219 133.5 C 279.441406 134.234375 279.894531 134.992188 280.3125 135.773438 C 280.730469 136.550781 281.105469 137.351562 281.445312 138.167969 C 281.78125 138.984375 282.082031 139.816406 282.335938 140.664062 C 282.59375 141.507812 282.808594 142.367188 282.980469 143.234375 C 283.152344 144.101562 283.285156 144.972656 283.371094 145.855469 C 283.457031 146.734375 283.5 147.617188 283.5 148.5 Z M 283.5 148.5 " fill-opacity="1" fill-rule="nonzero"/><path fill="#2978b8" d="M 472.5 148.5 C 472.5 149.382812 472.457031 150.265625 472.371094 151.144531 C 472.285156 152.027344 472.152344 152.898438 471.980469 153.765625 C 471.808594 154.632812 471.59375 155.492188 471.335938 156.335938 C 471.082031 157.183594 470.78125 158.015625 470.445312 158.832031 C 470.105469 159.648438 469.730469 160.449219 469.3125 161.226562 C 468.894531 162.007812 468.441406 162.765625 467.949219 163.5 C 467.457031 164.234375 466.933594 164.945312 466.371094 165.628906 C 465.808594 166.3125 465.21875 166.964844 464.59375 167.59375 C 463.964844 168.21875 463.3125 168.808594 462.628906 169.371094 C 461.945312 169.933594 461.234375 170.457031 460.5 170.949219 C 459.765625 171.441406 459.007812 171.894531 458.226562 172.3125 C 457.449219 172.730469 456.648438 173.105469 455.832031 173.445312 C 455.015625 173.78125 454.183594 174.082031 453.335938 174.335938 C 452.492188 174.59375 451.632812 174.808594 450.765625 174.980469 C 449.898438 175.152344 449.027344 175.285156 448.144531 175.371094 C 447.265625 175.457031 446.382812 175.5 445.5 175.5 C 444.617188 175.5 443.734375 175.457031 442.855469 175.371094 C 441.972656 175.285156 441.101562 175.152344 440.234375 174.980469 C 439.363281 174.808594 438.507812 174.59375 437.664062 174.335938 C 436.816406 174.082031 435.984375 173.78125 435.167969 173.445312 C 434.351562 173.105469 433.550781 172.730469 432.773438 172.3125 C 431.992188 171.894531 431.234375 171.441406 430.5 170.949219 C 429.765625 170.457031 429.054688 169.933594 428.371094 169.371094 C 427.6875 168.808594 427.035156 168.21875 426.40625 167.59375 C 425.78125 166.964844 425.191406 166.3125 424.628906 165.628906 C 424.066406 164.945312 423.542969 164.234375 423.050781 163.5 C 422.558594 162.765625 422.105469 162.007812 421.6875 161.226562 C 421.269531 160.449219 420.894531 159.648438 420.554688 158.832031 C 420.214844 158.015625 419.917969 157.183594 419.664062 156.335938 C 419.40625 155.492188 419.191406 154.632812 419.019531 153.765625 C 418.847656 152.898438 418.714844 152.027344 418.628906 151.144531 C 418.542969 150.265625 418.5 149.382812 418.5 148.5 C 418.5 147.617188 418.542969 146.734375 418.628906 145.855469 C 418.714844 144.972656 418.847656 144.101562 419.019531 143.234375 C 419.191406 142.367188 419.40625 141.507812 419.664062 140.664062 C 419.917969 139.816406 420.214844 138.984375 420.554688 138.167969 C 420.894531 137.351562 421.269531 136.550781 421.6875 135.773438 C 422.105469 134.992188 422.558594 134.234375 423.050781 133.5 C 423.542969 132.765625 424.066406 132.054688 424.628906 131.371094 C 425.191406 130.6875 425.78125 130.035156 426.40625 129.40625 C 427.035156 128.78125 427.6875 128.191406 428.371094 127.628906 C 429.054688 127.066406 429.765625 126.542969 430.5 126.050781 C 431.234375 125.558594 431.992188 125.105469 432.773438 124.6875 C 433.550781 124.269531 434.351562 123.894531 435.167969 123.554688 C 435.984375 123.21875 436.816406 122.917969 437.664062 122.664062 C 438.507812 122.40625 439.363281 122.191406 440.234375 122.019531 C 441.101562 121.847656 441.972656 121.714844 442.855469 121.628906 C 443.734375 121.542969 444.617188 121.5 445.5 121.5 C 446.382812 121.5 447.265625 121.542969 448.144531 121.628906 C 449.027344 121.714844 449.898438 121.847656 450.765625 122.019531 C 451.632812 122.191406 452.492188 122.40625 453.335938 122.664062 C 454.183594 122.917969 455.015625 123.21875 455.832031 123.554688 C 456.648438 123.894531 457.449219 124.269531 458.226562 124.6875 C 459.007812 125.105469 459.765625 125.558594 460.5 126.050781 C 461.234375 126.542969 461.945312 127.066406 462.628906 127.628906 C 463.3125 128.191406 463.964844 128.78125 464.59375 129.40625 C 465.21875 130.035156 465.808594 130.6875 466.371094 131.371094 C 466.933594 132.054688 467.457031 132.765625 467.949219 133.5 C 468.441406 134.234375 468.894531 134.992188 469.3125 135.773438 C 469.730469 136.550781 470.105469 137.351562 470.445312 138.167969 C 470.78125 138.984375 471.082031 139.816406 471.335938 140.664062 C 471.59375 141.507812 471.808594 142.367188 471.980469 143.234375 C 472.152344 144.101562 472.285156 144.972656 472.371094 145.855469 C 472.457031 146.734375 472.5 147.617188 472.5 148.5 Z M 472.5 148.5 " fill-opacity="1" fill-rule="nonzero"/><path fill="#2978b8" d="M 580.5 148.5 C 580.5 149.382812 580.457031 150.265625 580.371094 151.144531 C 580.285156 152.027344 580.152344 152.898438 579.980469 153.765625 C 579.808594 154.632812 579.59375 155.492188 579.335938 156.335938 C 579.082031 157.183594 578.78125 158.015625 578.445312 158.832031 C 578.105469 159.648438 577.730469 160.449219 577.3125 161.226562 C 576.894531 162.007812 576.441406 162.765625 575.949219 163.5 C 575.457031 164.234375 574.933594 164.945312 574.371094 165.628906 C 573.808594 166.3125 573.21875 166.964844 572.59375 167.59375 C 571.964844 168.21875 571.3125 168.808594 570.628906 169.371094 C 569.945312 169.933594 569.234375 170.457031 568.5 170.949219 C 567.765625 171.441406 567.007812 171.894531 566.226562 172.3125 C 565.449219 172.730469 564.648438 173.105469 563.832031 173.445312 C 563.015625 173.78125 562.183594 174.082031 561.335938 174.335938 C 560.492188 174.59375 559.632812 174.808594 558.765625 174.980469 C 557.898438 175.152344 557.027344 175.285156 556.144531 175.371094 C 555.265625 175.457031 554.382812 175.5 553.5 175.5 C 552.617188 175.5 551.734375 175.457031 550.855469 175.371094 C 549.972656 175.285156 549.101562 175.152344 548.234375 174.980469 C 547.363281 174.808594 546.507812 174.59375 545.664062 174.335938 C 544.816406 174.082031 543.984375 173.78125 543.167969 173.445312 C 542.351562 173.105469 541.550781 172.730469 540.773438 172.3125 C 539.992188 171.894531 539.234375 171.441406 538.5 170.949219 C 537.765625 170.457031 537.054688 169.933594 536.371094 169.371094 C 535.6875 168.808594 535.035156 168.21875 534.40625 167.59375 C 533.78125 166.964844 533.191406 166.3125 532.628906 165.628906 C 532.066406 164.945312 531.542969 164.234375 531.050781 163.5 C 530.558594 162.765625 530.105469 162.007812 529.6875 161.226562 C 529.269531 160.449219 528.894531 159.648438 528.554688 158.832031 C 528.214844 158.015625 527.917969 157.183594 527.664062 156.335938 C 527.40625 155.492188 527.191406 154.632812 527.019531 153.765625 C 526.847656 152.898438 526.714844 152.027344 526.628906 151.144531 C 526.542969 150.265625 526.5 149.382812 526.5 148.5 C 526.5 147.617188 526.542969 146.734375 526.628906 145.855469 C 526.714844 144.972656 526.847656 144.101562 527.019531 143.234375 C 527.191406 142.367188 527.40625 141.507812 527.664062 140.664062 C 527.917969 139.816406 528.214844 138.984375 528.554688 138.167969 C 528.894531 137.351562 529.269531 136.550781 529.6875 135.773438 C 530.105469 134.992188 530.558594 134.234375 531.050781 133.5 C 531.542969 132.765625 532.066406 132.054688 532.628906 131.371094 C 533.191406 130.6875 533.78125 130.035156 534.40625 129.40625 C 535.035156 128.78125 535.6875 128.191406 536.371094 127.628906 C 537.054688 127.066406 537.765625 126.542969 538.5 126.050781 C 539.234375 125.558594 539.992188 125.105469 540.773438 124.6875 C 541.550781 124.269531 542.351562 123.894531 543.167969 123.554688 C 543.984375 123.21875 544.816406 122.917969 545.664062 122.664062 C 546.507812 122.40625 547.363281 122.191406 548.234375 122.019531 C 549.101562 121.847656 549.972656 121.714844 550.855469 121.628906 C 551.734375 121.542969 552.617188 121.5 553.5 121.5 C 554.382812 121.5 555.265625 121.542969 556.148438 121.628906 C 557.027344 121.714844 557.898438 121.847656 558.765625 122.019531 C 559.632812 122.191406 560.492188 122.40625 561.335938 122.664062 C 562.183594 122.917969 563.015625 123.21875 563.832031 123.554688 C 564.648438 123.894531 565.449219 124.269531 566.226562 124.6875 C 567.007812 125.105469 567.765625 125.558594 568.5 126.050781 C 569.234375 126.542969 569.945312 127.066406 570.628906 127.628906 C 571.3125 128.191406 571.964844 128.78125 572.59375 129.40625 C 573.21875 130.035156 573.808594 130.6875 574.371094 131.371094 C 574.933594 132.054688 575.457031 132.765625 575.949219 133.5 C 576.441406 134.234375 576.894531 134.992188 577.3125 135.773438 C 577.730469 136.550781 578.105469 137.351562 578.445312 138.167969 C 578.78125 138.984375 579.082031 139.816406 579.335938 140.664062 C 579.59375 141.507812 579.808594 142.367188 579.980469 143.234375 C 580.152344 144.101562 580.285156 144.972656 580.371094 145.855469 C 580.457031 146.734375 580.5 147.617188 580.5 148.5 Z M 580.5 148.5 " fill-opacity="1" fill-rule="nonzero"/><path fill="#2978b8" d="M 688.5 405 C 688.5 405.882812 688.457031 406.765625 688.371094 407.644531 C 688.285156 408.527344 688.152344 409.398438 687.980469 410.265625 C 687.808594 411.132812 687.59375 411.992188 687.335938 412.835938 C 687.082031 413.683594 686.78125 414.515625 686.445312 415.332031 C 686.105469 416.148438 685.730469 416.949219 685.3125 417.726562 C 684.894531 418.507812 684.441406 419.265625 683.949219 420 C 683.457031 420.734375 682.933594 421.445312 682.371094 422.128906 C 681.808594 422.8125 681.21875 423.464844 680.589844 424.09375 C 679.964844 424.71875 679.3125 425.308594 678.628906 425.871094 C 677.945312 426.433594 677.234375 426.957031 676.5 427.449219 C 675.765625 427.941406 675.007812 428.394531 674.226562 428.8125 C 673.449219 429.230469 672.648438 429.605469 671.832031 429.945312 C 671.015625 430.28125 670.183594 430.582031 669.335938 430.835938 C 668.492188 431.09375 667.632812 431.308594 666.765625 431.480469 C 665.898438 431.652344 665.027344 431.785156 664.144531 431.871094 C 663.265625 431.957031 662.382812 432 661.5 432 C 660.617188 432 659.734375 431.957031 658.855469 431.871094 C 657.972656 431.785156 657.101562 431.652344 656.234375 431.480469 C 655.363281 431.308594 654.507812 431.09375 653.664062 430.835938 C 652.816406 430.582031 651.984375 430.28125 651.167969 429.945312 C 650.351562 429.605469 649.550781 429.230469 648.773438 428.8125 C 647.992188 428.394531 647.234375 427.941406 646.5 427.449219 C 645.765625 426.957031 645.054688 426.433594 644.371094 425.871094 C 643.6875 425.308594 643.035156 424.71875 642.40625 424.09375 C 641.78125 423.464844 641.191406 422.8125 640.628906 422.128906 C 640.066406 421.445312 639.542969 420.734375 639.050781 420 C 638.558594 419.265625 638.105469 418.507812 637.6875 417.726562 C 637.269531 416.949219 636.894531 416.148438 636.554688 415.332031 C 636.214844 414.515625 635.917969 413.683594 635.664062 412.835938 C 635.40625 411.992188 635.191406 411.132812 635.019531 410.265625 C 634.847656 409.398438 634.714844 408.527344 634.628906 407.644531 C 634.542969 406.765625 634.5 405.882812 634.5 405 C 634.5 404.117188 634.542969 403.234375 634.628906 402.355469 C 634.714844 401.472656 634.847656 400.601562 635.019531 399.734375 C 635.191406 398.867188 635.40625 398.007812 635.664062 397.164062 C 635.917969 396.316406 636.214844 395.484375 636.554688 394.667969 C 636.894531 393.851562 637.269531 393.050781 637.6875 392.273438 C 638.105469 391.492188 638.558594 390.734375 639.050781 390 C 639.542969 389.265625 640.066406 388.554688 640.628906 387.871094 C 641.191406 387.1875 641.78125 386.535156 642.40625 385.90625 C 643.035156 385.28125 643.6875 384.691406 644.371094 384.128906 C 645.054688 383.566406 645.765625 383.042969 646.5 382.550781 C 647.234375 382.058594 647.992188 381.605469 648.773438 381.1875 C 649.550781 380.769531 650.351562 380.394531 651.167969 380.054688 C 651.984375 379.71875 652.816406 379.417969 653.664062 379.164062 C 654.507812 378.90625 655.363281 378.691406 656.234375 378.519531 C 657.101562 378.347656 657.972656 378.214844 658.855469 378.128906 C 659.734375 378.042969 660.617188 378 661.5 378 C 662.382812 378 663.265625 378.042969 664.144531 378.128906 C 665.027344 378.214844 665.898438 378.347656 666.765625 378.519531 C 667.632812 378.691406 668.492188 378.90625 669.335938 379.164062 C 670.183594 379.417969 671.015625 379.71875 671.832031 380.054688 C 672.648438 380.394531 673.449219 380.769531 674.226562 381.1875 C 675.007812 381.605469 675.765625 382.058594 676.5 382.550781 C 677.234375 383.042969 677.945312 383.566406 678.628906 384.128906 C 679.3125 384.691406 679.964844 385.28125 680.589844 385.90625 C 681.21875 386.535156 681.808594 387.1875 682.371094 387.871094 C 682.933594 388.554688 683.457031 389.265625 683.949219 390 C 684.441406 390.734375 684.894531 391.492188 685.3125 392.273438 C 685.730469 393.050781 686.105469 393.851562 686.445312 394.667969 C 686.78125 395.484375 687.082031 396.316406 687.335938 397.164062 C 687.59375 398.007812 687.808594 398.867188 687.980469 399.734375 C 688.152344 400.601562 688.285156 401.472656 688.371094 402.355469 C 688.457031 403.234375 688.5 404.117188 688.5 405 Z M 688.5 405 " fill-opacity="1" fill-rule="nonzero"/><path fill="#2978b8" d="M 688.5 297 C 688.5 297.882812 688.457031 298.765625 688.371094 299.644531 C 688.285156 300.527344 688.152344 301.398438 687.980469 302.265625 C 687.808594 303.132812 687.59375 303.992188 687.335938 304.835938 C 687.082031 305.683594 686.78125 306.515625 686.445312 307.332031 C 686.105469 308.148438 685.730469 308.949219 685.3125 309.726562 C 684.894531 310.507812 684.441406 311.265625 683.949219 312 C 683.457031 312.734375 682.933594 313.445312 682.371094 314.128906 C 681.808594 314.8125 681.21875 315.464844 680.589844 316.09375 C 679.964844 316.71875 679.3125 317.308594 678.628906 317.871094 C 677.945312 318.433594 677.234375 318.957031 676.5 319.449219 C 675.765625 319.941406 675.007812 320.394531 674.226562 320.8125 C 673.449219 321.230469 672.648438 321.605469 671.832031 321.945312 C 671.015625 322.28125 670.183594 322.582031 669.335938 322.835938 C 668.492188 323.09375 667.632812 323.308594 666.765625 323.480469 C 665.898438 323.652344 665.027344 323.785156 664.144531 323.871094 C 663.265625 323.957031 662.382812 324 661.5 324 C 660.617188 324 659.734375 323.957031 658.855469 323.871094 C 657.972656 323.785156 657.101562 323.652344 656.234375 323.480469 C 655.363281 323.308594 654.507812 323.09375 653.664062 322.835938 C 652.816406 322.582031 651.984375 322.28125 651.167969 321.945312 C 650.351562 321.605469 649.550781 321.230469 648.773438 320.8125 C 647.992188 320.394531 647.234375 319.941406 646.5 319.449219 C 645.765625 318.957031 645.054688 318.433594 644.371094 317.871094 C 643.6875 317.308594 643.035156 316.71875 642.40625 316.09375 C 641.78125 315.464844 641.191406 314.8125 640.628906 314.128906 C 640.066406 313.445312 639.542969 312.734375 639.050781 312 C 638.558594 311.265625 638.105469 310.507812 637.6875 309.726562 C 637.269531 308.949219 636.894531 308.148438 636.554688 307.332031 C 636.214844 306.515625 635.917969 305.683594 635.664062 304.835938 C 635.40625 303.992188 635.191406 303.132812 635.019531 302.265625 C 634.847656 301.398438 634.714844 300.527344 634.628906 299.644531 C 634.542969 298.765625 634.5 297.882812 634.5 297 C 634.5 296.117188 634.542969 295.234375 634.628906 294.355469 C 634.714844 293.472656 634.847656 292.601562 635.019531 291.734375 C 635.191406 290.867188 635.40625 290.007812 635.664062 289.164062 C 635.917969 288.316406 636.214844 287.484375 636.554688 286.667969 C 636.894531 285.851562 637.269531 285.050781 637.6875 284.273438 C 638.105469 283.492188 638.558594 282.734375 639.050781 282 C 639.542969 281.265625 640.066406 280.554688 640.628906 279.871094 C 641.191406 279.1875 641.78125 278.535156 642.40625 277.90625 C 643.035156 277.28125 643.6875 276.691406 644.371094 276.128906 C 645.054688 275.566406 645.765625 275.042969 646.5 274.550781 C 647.234375 274.058594 647.992188 273.605469 648.773438 273.1875 C 649.550781 272.769531 650.351562 272.394531 651.167969 272.054688 C 651.984375 271.71875 652.816406 271.417969 653.664062 271.164062 C 654.507812 270.90625 655.363281 270.691406 656.234375 270.519531 C 657.101562 270.347656 657.972656 270.214844 658.855469 270.128906 C 659.734375 270.042969 660.617188 270 661.5 270 C 662.382812 270 663.265625 270.042969 664.144531 270.128906 C 665.027344 270.214844 665.898438 270.347656 666.765625 270.519531 C 667.632812 270.691406 668.492188 270.90625 669.335938 271.164062 C 670.183594 271.417969 671.015625 271.71875 671.832031 272.054688 C 672.648438 272.394531 673.449219 272.769531 674.226562 273.1875 C 675.007812 273.605469 675.765625 274.058594 676.5 274.550781 C 677.234375 275.042969 677.945312 275.566406 678.628906 276.128906 C 679.3125 276.691406 679.964844 277.28125 680.589844 277.90625 C 681.21875 278.535156 681.808594 279.1875 682.371094 279.871094 C 682.933594 280.554688 683.457031 281.265625 683.949219 282 C 684.441406 282.734375 684.894531 283.492188 685.3125 284.273438 C 685.730469 285.050781 686.105469 285.851562 686.445312 286.667969 C 686.78125 287.484375 687.082031 288.316406 687.335938 289.164062 C 687.59375 290.007812 687.808594 290.867188 687.980469 291.734375 C 688.152344 292.601562 688.285156 293.472656 688.371094 294.355469 C 688.457031 295.234375 688.5 296.117188 688.5 297 Z M 688.5 297 " fill-opacity="1" fill-rule="nonzero"/><path fill="#2978b8" d="M 688.5 513 C 688.5 513.882812 688.457031 514.765625 688.371094 515.644531 C 688.285156 516.527344 688.152344 517.398438 687.980469 518.265625 C 687.808594 519.132812 687.59375 519.992188 687.335938 520.835938 C 687.082031 521.683594 686.78125 522.515625 686.445312 523.332031 C 686.105469 524.148438 685.730469 524.949219 685.3125 525.726562 C 684.894531 526.507812 684.441406 527.265625 683.949219 528 C 683.457031 528.734375 682.933594 529.445312 682.371094 530.128906 C 681.808594 530.8125 681.21875 531.464844 680.589844 532.09375 C 679.964844 532.71875 679.3125 533.308594 678.628906 533.871094 C 677.945312 534.433594 677.234375 534.957031 676.5 535.449219 C 675.765625 535.941406 675.007812 536.394531 674.226562 536.8125 C 673.449219 537.230469 672.648438 537.605469 671.832031 537.945312 C 671.015625 538.28125 670.183594 538.582031 669.335938 538.835938 C 668.492188 539.09375 667.632812 539.308594 666.765625 539.480469 C 665.898438 539.652344 665.027344 539.785156 664.144531 539.871094 C 663.265625 539.957031 662.382812 540 661.5 540 C 660.617188 540 659.734375 539.957031 658.855469 539.871094 C 657.972656 539.785156 657.101562 539.652344 656.234375 539.480469 C 655.363281 539.308594 654.507812 539.09375 653.664062 538.835938 C 652.816406 538.582031 651.984375 538.28125 651.167969 537.945312 C 650.351562 537.605469 649.550781 537.230469 648.773438 536.8125 C 647.992188 536.394531 647.234375 535.941406 646.5 535.449219 C 645.765625 534.957031 645.054688 534.433594 644.371094 533.871094 C 643.6875 533.308594 643.035156 532.71875 642.40625 532.09375 C 641.78125 531.464844 641.191406 530.8125 640.628906 530.128906 C 640.066406 529.445312 639.542969 528.734375 639.050781 528 C 638.558594 527.265625 638.105469 526.507812 637.6875 525.726562 C 637.269531 524.949219 636.894531 524.148438 636.554688 523.332031 C 636.214844 522.515625 635.917969 521.683594 635.664062 520.835938 C 635.40625 519.992188 635.191406 519.132812 635.019531 518.265625 C 634.847656 517.398438 634.714844 516.527344 634.628906 515.644531 C 634.542969 514.765625 634.5 513.882812 634.5 513 C 634.5 512.117188 634.542969 511.234375 634.628906 510.355469 C 634.714844 509.472656 634.847656 508.601562 635.019531 507.734375 C 635.191406 506.867188 635.40625 506.007812 635.664062 505.164062 C 635.917969 504.316406 636.214844 503.484375 636.554688 502.667969 C 636.894531 501.851562 637.269531 501.050781 637.6875 500.273438 C 638.105469 499.492188 638.558594 498.734375 639.050781 498 C 639.542969 497.265625 640.066406 496.554688 640.628906 495.871094 C 641.191406 495.1875 641.78125 494.535156 642.40625 493.90625 C 643.035156 493.28125 643.6875 492.691406 644.371094 492.128906 C 645.054688 491.566406 645.765625 491.042969 646.5 490.550781 C 647.234375 490.058594 647.992188 489.605469 648.773438 489.1875 C 649.550781 488.769531 650.351562 488.394531 651.167969 488.054688 C 651.984375 487.71875 652.816406 487.417969 653.664062 487.164062 C 654.507812 486.90625 655.363281 486.691406 656.234375 486.519531 C 657.101562 486.347656 657.972656 486.214844 658.855469 486.128906 C 659.734375 486.042969 660.617188 486 661.5 486 C 662.382812 486 663.265625 486.042969 664.144531 486.128906 C 665.027344 486.214844 665.898438 486.347656 666.765625 486.519531 C 667.632812 486.691406 668.492188 486.90625 669.335938 487.164062 C 670.183594 487.417969 671.015625 487.71875 671.832031 488.054688 C 672.648438 488.394531 673.449219 488.769531 674.226562 489.1875 C 675.007812 489.605469 675.765625 490.058594 676.5 490.550781 C 677.234375 491.042969 677.945312 491.566406 678.628906 492.128906 C 679.3125 492.691406 679.964844 493.28125 680.589844 493.90625 C 681.21875 494.535156 681.808594 495.1875 682.371094 495.871094 C 682.933594 496.554688 683.457031 497.265625 683.949219 498 C 684.441406 498.734375 684.894531 499.492188 685.3125 500.273438 C 685.730469 501.050781 686.105469 501.851562 686.445312 502.667969 C 686.78125 503.484375 687.082031 504.316406 687.335938 505.164062 C 687.59375 506.007812 687.808594 506.867188 687.980469 507.734375 C 688.152344 508.601562 688.285156 509.472656 688.371094 510.355469 C 688.457031 511.234375 688.5 512.117188 688.5 513 Z M 688.5 513 " fill-opacity="1" fill-rule="nonzero"/><path fill="#2978b8" d="M 175.5 405 C 175.5 405.882812 175.457031 406.765625 175.371094 407.644531 C 175.285156 408.527344 175.152344 409.398438 174.980469 410.265625 C 174.808594 411.132812 174.59375 411.992188 174.335938 412.835938 C 174.082031 413.683594 173.78125 414.515625 173.445312 415.332031 C 173.105469 416.148438 172.730469 416.949219 172.3125 417.726562 C 171.894531 418.507812 171.441406 419.265625 170.949219 420 C 170.457031 420.734375 169.933594 421.445312 169.371094 422.128906 C 168.808594 422.8125 168.21875 423.464844 167.59375 424.09375 C 166.964844 424.71875 166.3125 425.308594 165.628906 425.871094 C 164.945312 426.433594 164.234375 426.957031 163.5 427.449219 C 162.765625 427.941406 162.007812 428.394531 161.226562 428.8125 C 160.449219 429.230469 159.648438 429.605469 158.832031 429.945312 C 158.015625 430.28125 157.183594 430.582031 156.335938 430.835938 C 155.492188 431.09375 154.632812 431.308594 153.765625 431.480469 C 152.898438 431.652344 152.027344 431.785156 151.144531 431.871094 C 150.265625 431.957031 149.382812 432 148.5 432 C 147.617188 432 146.734375 431.957031 145.855469 431.871094 C 144.972656 431.785156 144.101562 431.652344 143.234375 431.480469 C 142.367188 431.308594 141.507812 431.09375 140.664062 430.835938 C 139.816406 430.582031 138.984375 430.28125 138.167969 429.945312 C 137.351562 429.605469 136.550781 429.230469 135.773438 428.8125 C 134.992188 428.394531 134.234375 427.941406 133.5 427.449219 C 132.765625 426.957031 132.054688 426.433594 131.371094 425.871094 C 130.6875 425.308594 130.035156 424.71875 129.40625 424.09375 C 128.78125 423.464844 128.191406 422.8125 127.628906 422.128906 C 127.066406 421.445312 126.542969 420.734375 126.050781 420 C 125.558594 419.265625 125.105469 418.507812 124.6875 417.726562 C 124.269531 416.949219 123.894531 416.148438 123.554688 415.332031 C 123.21875 414.515625 122.917969 413.683594 122.664062 412.835938 C 122.40625 411.992188 122.191406 411.132812 122.019531 410.265625 C 121.847656 409.398438 121.714844 408.527344 121.628906 407.644531 C 121.542969 406.765625 121.5 405.882812 121.5 405 C 121.5 404.117188 121.542969 403.234375 121.628906 402.355469 C 121.714844 401.472656 121.847656 400.601562 122.019531 399.734375 C 122.191406 398.867188 122.40625 398.007812 122.664062 397.164062 C 122.917969 396.316406 123.21875 395.484375 123.554688 394.667969 C 123.894531 393.851562 124.269531 393.050781 124.6875 392.273438 C 125.105469 391.492188 125.558594 390.734375 126.050781 390 C 126.542969 389.265625 127.066406 388.554688 127.628906 387.871094 C 128.191406 387.1875 128.78125 386.535156 129.40625 385.90625 C 130.035156 385.28125 130.6875 384.691406 131.371094 384.128906 C 132.054688 383.566406 132.765625 383.042969 133.5 382.550781 C 134.234375 382.058594 134.992188 381.605469 135.773438 381.1875 C 136.550781 380.769531 137.351562 380.394531 138.167969 380.054688 C 138.984375 379.71875 139.816406 379.417969 140.664062 379.164062 C 141.507812 378.90625 142.367188 378.691406 143.234375 378.519531 C 144.101562 378.347656 144.972656 378.214844 145.855469 378.128906 C 146.734375 378.042969 147.617188 378 148.5 378 C 149.382812 378 150.265625 378.042969 151.144531 378.128906 C 152.027344 378.214844 152.898438 378.347656 153.765625 378.519531 C 154.632812 378.691406 155.492188 378.90625 156.335938 379.164062 C 157.183594 379.417969 158.015625 379.71875 158.832031 380.054688 C 159.648438 380.394531 160.449219 380.769531 161.226562 381.1875 C 162.007812 381.605469 162.765625 382.058594 163.5 382.550781 C 164.234375 383.042969 164.945312 383.566406 165.628906 384.128906 C 166.3125 384.691406 166.964844 385.28125 167.59375 385.90625 C 168.21875 386.535156 168.808594 387.1875 169.371094 387.871094 C 169.933594 388.554688 170.457031 389.265625 170.949219 390 C 171.441406 390.734375 171.894531 391.492188 172.3125 392.273438 C 172.730469 393.050781 173.105469 393.851562 173.445312 394.667969 C 173.78125 395.484375 174.082031 396.316406 174.335938 397.164062 C 174.59375 398.007812 174.808594 398.867188 174.980469 399.734375 C 175.152344 400.601562 175.285156 401.472656 175.371094 402.355469 C 175.457031 403.234375 175.5 404.117188 175.5 405 Z M 175.5 405 " fill-opacity="1" fill-rule="nonzero"/><path fill="#2978b8" d="M 175.5 297 C 175.5 297.882812 175.457031 298.765625 175.371094 299.644531 C 175.285156 300.527344 175.152344 301.398438 174.980469 302.265625 C 174.808594 303.132812 174.59375 303.992188 174.335938 304.835938 C 174.082031 305.683594 173.78125 306.515625 173.445312 307.332031 C 173.105469 308.148438 172.730469 308.949219 172.3125 309.726562 C 171.894531 310.507812 171.441406 311.265625 170.949219 312 C 170.457031 312.734375 169.933594 313.445312 169.371094 314.128906 C 168.808594 314.8125 168.21875 315.464844 167.59375 316.09375 C 166.964844 316.71875 166.3125 317.308594 165.628906 317.871094 C 164.945312 318.433594 164.234375 318.957031 163.5 319.449219 C 162.765625 319.941406 162.007812 320.394531 161.226562 320.8125 C 160.449219 321.230469 159.648438 321.605469 158.832031 321.945312 C 158.015625 322.28125 157.183594 322.582031 156.335938 322.835938 C 155.492188 323.09375 154.632812 323.308594 153.765625 323.480469 C 152.898438 323.652344 152.027344 323.785156 151.144531 323.871094 C 150.265625 323.957031 149.382812 324 148.5 324 C 147.617188 324 146.734375 323.957031 145.855469 323.871094 C 144.972656 323.785156 144.101562 323.652344 143.234375 323.480469 C 142.367188 323.308594 141.507812 323.09375 140.664062 322.835938 C 139.816406 322.582031 138.984375 322.28125 138.167969 321.945312 C 137.351562 321.605469 136.550781 321.230469 135.773438 320.8125 C 134.992188 320.394531 134.234375 319.941406 133.5 319.449219 C 132.765625 318.957031 132.054688 318.433594 131.371094 317.871094 C 130.6875 317.308594 130.035156 316.71875 129.40625 316.09375 C 128.78125 315.464844 128.191406 314.8125 127.628906 314.128906 C 127.066406 313.445312 126.542969 312.734375 126.050781 312 C 125.558594 311.265625 125.105469 310.507812 124.6875 309.726562 C 124.269531 308.949219 123.894531 308.148438 123.554688 307.332031 C 123.21875 306.515625 122.917969 305.683594 122.664062 304.835938 C 122.40625 303.992188 122.191406 303.132812 122.019531 302.265625 C 121.847656 301.398438 121.714844 300.527344 121.628906 299.644531 C 121.542969 298.765625 121.5 297.882812 121.5 297 C 121.5 296.117188 121.542969 295.234375 121.628906 294.355469 C 121.714844 293.472656 121.847656 292.601562 122.019531 291.734375 C 122.191406 290.867188 122.40625 290.007812 122.664062 289.164062 C 122.917969 288.316406 123.21875 287.484375 123.554688 286.667969 C 123.894531 285.851562 124.269531 285.050781 124.6875 284.273438 C 125.105469 283.492188 125.558594 282.734375 126.050781 282 C 126.542969 281.265625 127.066406 280.554688 127.628906 279.871094 C 128.191406 279.1875 128.78125 278.535156 129.40625 277.90625 C 130.035156 277.28125 130.6875 276.691406 131.371094 276.128906 C 132.054688 275.566406 132.765625 275.042969 133.5 274.550781 C 134.234375 274.058594 134.992188 273.605469 135.773438 273.1875 C 136.550781 272.769531 137.351562 272.394531 138.167969 272.054688 C 138.984375 271.71875 139.816406 271.417969 140.664062 271.164062 C 141.507812 270.90625 142.367188 270.691406 143.234375 270.519531 C 144.101562 270.347656 144.972656 270.214844 145.855469 270.128906 C 146.734375 270.042969 147.617188 270 148.5 270 C 149.382812 270 150.265625 270.042969 151.144531 270.128906 C 152.027344 270.214844 152.898438 270.347656 153.765625 270.519531 C 154.632812 270.691406 155.492188 270.90625 156.335938 271.164062 C 157.183594 271.417969 158.015625 271.71875 158.832031 272.054688 C 159.648438 272.394531 160.449219 272.769531 161.226562 273.1875 C 162.007812 273.605469 162.765625 274.058594 163.5 274.550781 C 164.234375 275.042969 164.945312 275.566406 165.628906 276.128906 C 166.3125 276.691406 166.964844 277.28125 167.59375 277.90625 C 168.21875 278.535156 168.808594 279.1875 169.371094 279.871094 C 169.933594 280.554688 170.457031 281.265625 170.949219 282 C 171.441406 282.734375 171.894531 283.492188 172.3125 284.273438 C 172.730469 285.050781 173.105469 285.851562 173.445312 286.667969 C 173.78125 287.484375 174.082031 288.316406 174.335938 289.164062 C 174.59375 290.007812 174.808594 290.867188 174.980469 291.734375 C 175.152344 292.601562 175.285156 293.472656 175.371094 294.355469 C 175.457031 295.234375 175.5 296.117188 175.5 297 Z M 175.5 297 " fill-opacity="1" fill-rule="nonzero"/><path fill="#2978b8" d="M 175.5 513 C 175.5 513.882812 175.457031 514.765625 175.371094 515.644531 C 175.285156 516.527344 175.152344 517.398438 174.980469 518.265625 C 174.808594 519.132812 174.59375 519.992188 174.335938 520.835938 C 174.082031 521.683594 173.78125 522.515625 173.445312 523.332031 C 173.105469 524.148438 172.730469 524.949219 172.3125 525.726562 C 171.894531 526.507812 171.441406 527.265625 170.949219 528 C 170.457031 528.734375 169.933594 529.445312 169.371094 530.128906 C 168.808594 530.8125 168.21875 531.464844 167.59375 532.09375 C 166.964844 532.71875 166.3125 533.308594 165.628906 533.871094 C 164.945312 534.433594 164.234375 534.957031 163.5 535.449219 C 162.765625 535.941406 162.007812 536.394531 161.226562 536.8125 C 160.449219 537.230469 159.648438 537.605469 158.832031 537.945312 C 158.015625 538.28125 157.183594 538.582031 156.335938 538.835938 C 155.492188 539.09375 154.632812 539.308594 153.765625 539.480469 C 152.898438 539.652344 152.027344 539.785156 151.144531 539.871094 C 150.265625 539.957031 149.382812 540 148.5 540 C 147.617188 540 146.734375 539.957031 145.855469 539.871094 C 144.972656 539.785156 144.101562 539.652344 143.234375 539.480469 C 142.367188 539.308594 141.507812 539.09375 140.664062 538.835938 C 139.816406 538.582031 138.984375 538.28125 138.167969 537.945312 C 137.351562 537.605469 136.550781 537.230469 135.773438 536.8125 C 134.992188 536.394531 134.234375 535.941406 133.5 535.449219 C 132.765625 534.957031 132.054688 534.433594 131.371094 533.871094 C 130.6875 533.308594 130.035156 532.71875 129.40625 532.09375 C 128.78125 531.464844 128.191406 530.8125 127.628906 530.128906 C 127.066406 529.445312 126.542969 528.734375 126.050781 528 C 125.558594 527.265625 125.105469 526.507812 124.6875 525.726562 C 124.269531 524.949219 123.894531 524.148438 123.554688 523.332031 C 123.21875 522.515625 122.917969 521.683594 122.664062 520.835938 C 122.40625 519.992188 122.191406 519.132812 122.019531 518.265625 C 121.847656 517.398438 121.714844 516.527344 121.628906 515.644531 C 121.542969 514.765625 121.5 513.882812 121.5 513 C 121.5 512.117188 121.542969 511.234375 121.628906 510.355469 C 121.714844 509.472656 121.847656 508.601562 122.019531 507.734375 C 122.191406 506.867188 122.40625 506.007812 122.664062 505.164062 C 122.917969 504.316406 123.21875 503.484375 123.554688 502.667969 C 123.894531 501.851562 124.269531 501.050781 124.6875 500.273438 C 125.105469 499.492188 125.558594 498.734375 126.050781 498 C 126.542969 497.265625 127.066406 496.554688 127.628906 495.871094 C 128.191406 495.1875 128.78125 494.535156 129.40625 493.90625 C 130.035156 493.28125 130.6875 492.691406 131.371094 492.128906 C 132.054688 491.566406 132.765625 491.042969 133.5 490.550781 C 134.234375 490.058594 134.992188 489.605469 135.773438 489.1875 C 136.550781 488.769531 137.351562 488.394531 138.167969 488.054688 C 138.984375 487.71875 139.816406 487.417969 140.664062 487.164062 C 141.507812 486.90625 142.367188 486.691406 143.234375 486.519531 C 144.101562 486.347656 144.972656 486.214844 145.855469 486.128906 C 146.734375 486.042969 147.617188 486 148.5 486 C 149.382812 486 150.265625 486.042969 151.144531 486.128906 C 152.027344 486.214844 152.898438 486.347656 153.765625 486.519531 C 154.632812 486.691406 155.492188 486.90625 156.335938 487.164062 C 157.183594 487.417969 158.015625 487.71875 158.832031 488.054688 C 159.648438 488.394531 160.449219 488.769531 161.226562 489.1875 C 162.007812 489.605469 162.765625 490.058594 163.5 490.550781 C 164.234375 491.042969 164.945312 491.566406 165.628906 492.128906 C 166.3125 492.691406 166.964844 493.28125 167.59375 493.90625 C 168.21875 494.535156 168.808594 495.1875 169.371094 495.871094 C 169.933594 496.554688 170.457031 497.265625 170.949219 498 C 171.441406 498.734375 171.894531 499.492188 172.3125 500.273438 C 172.730469 501.050781 173.105469 501.851562 173.445312 502.667969 C 173.78125 503.484375 174.082031 504.316406 174.335938 505.164062 C 174.59375 506.007812 174.808594 506.867188 174.980469 507.734375 C 175.152344 508.601562 175.285156 509.472656 175.371094 510.355469 C 175.457031 511.234375 175.5 512.117188 175.5 513 Z M 175.5 513 " fill-opacity="1" fill-rule="nonzero"/><path fill="#2978b8" d="M 283.5 661.5 C 283.5 662.382812 283.457031 663.265625 283.371094 664.148438 C 283.285156 665.027344 283.152344 665.898438 282.980469 666.765625 C 282.808594 667.632812 282.59375 668.492188 282.335938 669.335938 C 282.082031 670.183594 281.78125 671.015625 281.445312 671.832031 C 281.105469 672.648438 280.730469 673.449219 280.3125 674.226562 C 279.894531 675.007812 279.441406 675.765625 278.949219 676.5 C 278.457031 677.234375 277.933594 677.945312 277.371094 678.628906 C 276.808594 679.3125 276.21875 679.964844 275.59375 680.589844 C 274.964844 681.21875 274.3125 681.808594 273.628906 682.371094 C 272.945312 682.933594 272.234375 683.457031 271.5 683.949219 C 270.765625 684.441406 270.007812 684.894531 269.226562 685.3125 C 268.449219 685.730469 267.648438 686.105469 266.832031 686.445312 C 266.015625 686.78125 265.183594 687.082031 264.335938 687.335938 C 263.492188 687.59375 262.632812 687.808594 261.765625 687.980469 C 260.898438 688.152344 260.027344 688.285156 259.144531 688.371094 C 258.265625 688.457031 257.382812 688.5 256.5 688.5 C 255.617188 688.5 254.734375 688.457031 253.851562 688.371094 C 252.972656 688.285156 252.101562 688.152344 251.234375 687.980469 C 250.367188 687.808594 249.507812 687.59375 248.664062 687.335938 C 247.816406 687.082031 246.984375 686.78125 246.167969 686.445312 C 245.351562 686.105469 244.550781 685.730469 243.773438 685.3125 C 242.992188 684.894531 242.234375 684.441406 241.5 683.949219 C 240.765625 683.457031 240.054688 682.933594 239.371094 682.371094 C 238.6875 681.808594 238.035156 681.21875 237.40625 680.589844 C 236.78125 679.964844 236.191406 679.3125 235.628906 678.628906 C 235.066406 677.945312 234.542969 677.234375 234.050781 676.5 C 233.558594 675.765625 233.105469 675.007812 232.6875 674.226562 C 232.269531 673.449219 231.894531 672.648438 231.554688 671.832031 C 231.21875 671.015625 230.917969 670.183594 230.664062 669.335938 C 230.40625 668.492188 230.191406 667.632812 230.019531 666.765625 C 229.847656 665.898438 229.714844 665.027344 229.628906 664.144531 C 229.542969 663.265625 229.5 662.382812 229.5 661.5 C 229.5 660.617188 229.542969 659.734375 229.628906 658.855469 C 229.714844 657.972656 229.847656 657.101562 230.019531 656.234375 C 230.191406 655.363281 230.40625 654.507812 230.664062 653.664062 C 230.917969 652.816406 231.21875 651.984375 231.554688 651.167969 C 231.894531 650.351562 232.269531 649.550781 232.6875 648.773438 C 233.105469 647.992188 233.558594 647.234375 234.050781 646.5 C 234.542969 645.765625 235.066406 645.054688 235.628906 644.371094 C 236.191406 643.6875 236.78125 643.035156 237.40625 642.40625 C 238.035156 641.78125 238.6875 641.191406 239.371094 640.628906 C 240.054688 640.066406 240.765625 639.542969 241.5 639.050781 C 242.234375 638.558594 242.992188 638.105469 243.773438 637.6875 C 244.550781 637.269531 245.351562 636.894531 246.167969 636.554688 C 246.984375 636.214844 247.816406 635.917969 248.664062 635.664062 C 249.507812 635.40625 250.367188 635.191406 251.234375 635.019531 C 252.101562 634.847656 252.972656 634.714844 253.851562 634.628906 C 254.734375 634.542969 255.617188 634.5 256.5 634.5 C 257.382812 634.5 258.265625 634.542969 259.144531 634.628906 C 260.027344 634.714844 260.898438 634.847656 261.765625 635.019531 C 262.632812 635.191406 263.492188 635.40625 264.335938 635.664062 C 265.183594 635.917969 266.015625 636.214844 266.832031 636.554688 C 267.648438 636.894531 268.449219 637.269531 269.226562 637.6875 C 270.007812 638.105469 270.765625 638.558594 271.5 639.050781 C 272.234375 639.542969 272.945312 640.066406 273.628906 640.628906 C 274.3125 641.191406 274.964844 641.78125 275.59375 642.40625 C 276.21875 643.035156 276.808594 643.6875 277.371094 644.371094 C 277.933594 645.054688 278.457031 645.765625 278.949219 646.5 C 279.441406 647.234375 279.894531 647.992188 280.3125 648.773438 C 280.730469 649.550781 281.105469 650.351562 281.445312 651.167969 C 281.78125 651.984375 282.082031 652.816406 282.335938 653.664062 C 282.59375 654.507812 282.808594 655.363281 282.980469 656.234375 C 283.152344 657.101562 283.285156 657.972656 283.371094 658.855469 C 283.457031 659.734375 283.5 660.617188 283.5 661.5 Z M 283.5 661.5 " fill-opacity="1" fill-rule="nonzero"/><path fill="#2978b8" d="M 472.5 661.5 C 472.5 662.382812 472.457031 663.265625 472.371094 664.148438 C 472.285156 665.027344 472.152344 665.898438 471.980469 666.765625 C 471.808594 667.632812 471.59375 668.492188 471.335938 669.335938 C 471.082031 670.183594 470.78125 671.015625 470.445312 671.832031 C 470.105469 672.648438 469.730469 673.449219 469.3125 674.226562 C 468.894531 675.007812 468.441406 675.765625 467.949219 676.5 C 467.457031 677.234375 466.933594 677.945312 466.371094 678.628906 C 465.808594 679.3125 465.21875 679.964844 464.59375 680.589844 C 463.964844 681.21875 463.3125 681.808594 462.628906 682.371094 C 461.945312 682.933594 461.234375 683.457031 460.5 683.949219 C 459.765625 684.441406 459.007812 684.894531 458.226562 685.3125 C 457.449219 685.730469 456.648438 686.105469 455.832031 686.445312 C 455.015625 686.78125 454.183594 687.082031 453.335938 687.335938 C 452.492188 687.59375 451.632812 687.808594 450.765625 687.980469 C 449.898438 688.152344 449.027344 688.285156 448.144531 688.371094 C 447.265625 688.457031 446.382812 688.5 445.5 688.5 C 444.617188 688.5 443.734375 688.457031 442.855469 688.371094 C 441.972656 688.285156 441.101562 688.152344 440.234375 687.980469 C 439.363281 687.808594 438.507812 687.59375 437.664062 687.335938 C 436.816406 687.082031 435.984375 686.78125 435.167969 686.445312 C 434.351562 686.105469 433.550781 685.730469 432.773438 685.3125 C 431.992188 684.894531 431.234375 684.441406 430.5 683.949219 C 429.765625 683.457031 429.054688 682.933594 428.371094 682.371094 C 427.6875 681.808594 427.035156 681.21875 426.40625 680.589844 C 425.78125 679.964844 425.191406 679.3125 424.628906 678.628906 C 424.066406 677.945312 423.542969 677.234375 423.050781 676.5 C 422.558594 675.765625 422.105469 675.007812 421.6875 674.226562 C 421.269531 673.449219 420.894531 672.648438 420.554688 671.832031 C 420.214844 671.015625 419.917969 670.183594 419.664062 669.335938 C 419.40625 668.492188 419.191406 667.632812 419.019531 666.765625 C 418.847656 665.898438 418.714844 665.027344 418.628906 664.144531 C 418.542969 663.265625 418.5 662.382812 418.5 661.5 C 418.5 660.617188 418.542969 659.734375 418.628906 658.855469 C 418.714844 657.972656 418.847656 657.101562 419.019531 656.234375 C 419.191406 655.363281 419.40625 654.507812 419.664062 653.664062 C 419.917969 652.816406 420.214844 651.984375 420.554688 651.167969 C 420.894531 650.351562 421.269531 649.550781 421.6875 648.773438 C 422.105469 647.992188 422.558594 647.234375 423.050781 646.5 C 423.542969 645.765625 424.066406 645.054688 424.628906 644.371094 C 425.191406 643.6875 425.78125 643.035156 426.40625 642.40625 C 427.035156 641.78125 427.6875 641.191406 428.371094 640.628906 C 429.054688 640.066406 429.765625 639.542969 430.5 639.050781 C 431.234375 638.558594 431.992188 638.105469 432.773438 637.6875 C 433.550781 637.269531 434.351562 636.894531 435.167969 636.554688 C 435.984375 636.214844 436.816406 635.917969 437.664062 635.664062 C 438.507812 635.40625 439.363281 635.191406 440.234375 635.019531 C 441.101562 634.847656 441.972656 634.714844 442.855469 634.628906 C 443.734375 634.542969 444.617188 634.5 445.5 634.5 C 446.382812 634.5 447.265625 634.542969 448.144531 634.628906 C 449.027344 634.714844 449.898438 634.847656 450.765625 635.019531 C 451.632812 635.191406 452.492188 635.40625 453.335938 635.664062 C 454.183594 635.917969 455.015625 636.214844 455.832031 636.554688 C 456.648438 636.894531 457.449219 637.269531 458.226562 637.6875 C 459.007812 638.105469 459.765625 638.558594 460.5 639.050781 C 461.234375 639.542969 461.945312 640.066406 462.628906 640.628906 C 463.3125 641.191406 463.964844 641.78125 464.59375 642.40625 C 465.21875 643.035156 465.808594 643.6875 466.371094 644.371094 C 466.933594 645.054688 467.457031 645.765625 467.949219 646.5 C 468.441406 647.234375 468.894531 647.992188 469.3125 648.773438 C 469.730469 649.550781 470.105469 650.351562 470.445312 651.167969 C 470.78125 651.984375 471.082031 652.816406 471.335938 653.664062 C 471.59375 654.507812 471.808594 655.363281 471.980469 656.234375 C 472.152344 657.101562 472.285156 657.972656 472.371094 658.855469 C 472.457031 659.734375 472.5 660.617188 472.5 661.5 Z M 472.5 661.5 " fill-opacity="1" fill-rule="nonzero"/><path fill="#2978b8" d="M 580.5 661.5 C 580.5 662.382812 580.457031 663.265625 580.371094 664.148438 C 580.285156 665.027344 580.152344 665.898438 579.980469 666.765625 C 579.808594 667.632812 579.59375 668.492188 579.335938 669.335938 C 579.082031 670.183594 578.78125 671.015625 578.445312 671.832031 C 578.105469 672.648438 577.730469 673.449219 577.3125 674.226562 C 576.894531 675.007812 576.441406 675.765625 575.949219 676.5 C 575.457031 677.234375 574.933594 677.945312 574.371094 678.628906 C 573.808594 679.3125 573.21875 679.964844 572.59375 680.589844 C 571.964844 681.21875 571.3125 681.808594 570.628906 682.371094 C 569.945312 682.933594 569.234375 683.457031 568.5 683.949219 C 567.765625 684.441406 567.007812 684.894531 566.226562 685.3125 C 565.449219 685.730469 564.648438 686.105469 563.832031 686.445312 C 563.015625 686.78125 562.183594 687.082031 561.335938 687.335938 C 560.492188 687.59375 559.632812 687.808594 558.765625 687.980469 C 557.898438 688.152344 557.027344 688.285156 556.144531 688.371094 C 555.265625 688.457031 554.382812 688.5 553.5 688.5 C 552.617188 688.5 551.734375 688.457031 550.855469 688.371094 C 549.972656 688.285156 549.101562 688.152344 548.234375 687.980469 C 547.363281 687.808594 546.507812 687.59375 545.664062 687.335938 C 544.816406 687.082031 543.984375 686.78125 543.167969 686.445312 C 542.351562 686.105469 541.550781 685.730469 540.773438 685.3125 C 539.992188 684.894531 539.234375 684.441406 538.5 683.949219 C 537.765625 683.457031 537.054688 682.933594 536.371094 682.371094 C 535.6875 681.808594 535.035156 681.21875 534.40625 680.589844 C 533.78125 679.964844 533.191406 679.3125 532.628906 678.628906 C 532.066406 677.945312 531.542969 677.234375 531.050781 676.5 C 530.558594 675.765625 530.105469 675.007812 529.6875 674.226562 C 529.269531 673.449219 528.894531 672.648438 528.554688 671.832031 C 528.214844 671.015625 527.917969 670.183594 527.664062 669.335938 C 527.40625 668.492188 527.191406 667.632812 527.019531 666.765625 C 526.847656 665.898438 526.714844 665.027344 526.628906 664.144531 C 526.542969 663.265625 526.5 662.382812 526.5 661.5 C 526.5 660.617188 526.542969 659.734375 526.628906 658.855469 C 526.714844 657.972656 526.847656 657.101562 527.019531 656.234375 C 527.191406 655.363281 527.40625 654.507812 527.664062 653.664062 C 527.917969 652.816406 528.214844 651.984375 528.554688 651.167969 C 528.894531 650.351562 529.269531 649.550781 529.6875 648.773438 C 530.105469 647.992188 530.558594 647.234375 531.050781 646.5 C 531.542969 645.765625 532.066406 645.054688 532.628906 644.371094 C 533.191406 643.6875 533.78125 643.035156 534.40625 642.40625 C 535.035156 641.78125 535.6875 641.191406 536.371094 640.628906 C 537.054688 640.066406 537.765625 639.542969 538.5 639.050781 C 539.234375 638.558594 539.992188 638.105469 540.773438 637.6875 C 541.550781 637.269531 542.351562 636.894531 543.167969 636.554688 C 543.984375 636.214844 544.816406 635.917969 545.664062 635.664062 C 546.507812 635.40625 547.363281 635.191406 548.234375 635.019531 C 549.101562 634.847656 549.972656 634.714844 550.855469 634.628906 C 551.734375 634.542969 552.617188 634.5 553.5 634.5 C 554.382812 634.5 555.265625 634.542969 556.148438 634.628906 C 557.027344 634.714844 557.898438 634.847656 558.765625 635.019531 C 559.632812 635.191406 560.492188 635.40625 561.335938 635.664062 C 562.183594 635.917969 563.015625 636.214844 563.832031 636.554688 C 564.648438 636.894531 565.449219 637.269531 566.226562 637.6875 C 567.007812 638.105469 567.765625 638.558594 568.5 639.050781 C 569.234375 639.542969 569.945312 640.066406 570.628906 640.628906 C 571.3125 641.191406 571.964844 641.78125 572.59375 642.40625 C 573.21875 643.035156 573.808594 643.6875 574.371094 644.371094 C 574.933594 645.054688 575.457031 645.765625 575.949219 646.5 C 576.441406 647.234375 576.894531 647.992188 577.3125 648.773438 C 577.730469 649.550781 578.105469 650.351562 578.445312 651.167969 C 578.78125 651.984375 579.082031 652.816406 579.335938 653.664062 C 579.59375 654.507812 579.808594 655.363281 579.980469 656.234375 C 580.152344 657.101562 580.285156 657.972656 580.371094 658.855469 C 580.457031 659.734375 580.5 660.617188 580.5 661.5 Z M 580.5 661.5 " fill-opacity="1" fill-rule="nonzero"/></svg>